<svg width="271" height="239" viewBox="0 0 271 239" fill="none" xmlns="http://www.w3.org/2000/svg">
<g clip-path="url(#clip0_124_617)">
<path d="M140.34 202.615C187.483 202.615 225.7 164.398 225.7 117.255C225.7 70.1123 187.483 31.8955 140.34 31.8955C93.1975 31.8955 54.9807 70.1123 54.9807 117.255C54.9807 164.398 93.1975 202.615 140.34 202.615Z" fill="#FFFEF0"/>
<path d="M269.336 58.6379C262.873 42.1395 230.396 38.2746 187.945 46.3784C193.929 50.5134 199.436 55.438 204.568 61.0067C219.799 61.2768 230.375 65.1625 233.347 72.7467C240.1 90.014 204.672 120.019 154.2 139.779C103.728 159.54 57.329 161.556 50.5758 144.288C48.5187 139.031 50.368 132.569 55.3965 125.587C54.6277 117.11 55.0225 108.653 56.7056 100.196C25.8282 121.307 8.68567 143.333 14.5869 158.376C23.9997 182.438 88.6843 179.612 159.041 152.08C229.399 124.548 278.79 82.6998 269.377 58.6379H269.336Z" fill="#37BACC"/>
<path d="M65.9521 173.607C81.5986 191.394 104.497 202.635 130.055 202.635C177.015 202.635 215.103 164.735 215.414 117.837C197.171 130.117 174.355 142.044 148.714 152.08C118.834 163.779 89.9933 170.989 65.9521 173.607Z" stroke="#110E00" stroke-width="6.23366" stroke-linecap="round" stroke-linejoin="round"/>
<path d="M52.9031 153.826C46.4409 151.914 42.015 148.756 40.2696 144.268C38.2125 139.011 40.0618 132.548 45.0903 125.567C44.9864 124.507 44.924 123.447 44.8617 122.387C45.5266 133.587 48.3526 144.184 52.9031 153.805C71.3547 159.27 106.492 154.366 143.894 139.738C174.543 127.728 199.643 111.956 213.108 97.536C209.825 83.6141 203.134 71.0221 193.971 60.6743C188.942 55.251 183.54 50.4303 177.68 46.3784C164.07 37.2149 147.675 31.854 130.055 31.854C87.583 31.854 52.3629 62.8768 45.7968 103.499C45.9838 102.377 46.1708 101.276 46.3993 100.154C15.5012 121.307 -1.62058 143.333 4.25983 158.376C9.68311 172.215 33.3918 177.14 65.9522 173.607M44.8409 112.892C44.8825 112.247 44.924 111.603 44.9656 110.938C44.924 111.582 44.8617 112.227 44.8409 112.892ZM44.737 116.071C44.737 117.068 44.737 118.045 44.737 119.042C44.737 118.46 44.6955 117.858 44.6955 117.276C44.6955 116.881 44.737 116.486 44.737 116.071Z" stroke="#110E00" stroke-width="6.23366" stroke-linecap="round" stroke-linejoin="round"/>
<path d="M215.414 117.837C247.248 96.4139 265.034 73.9311 259.05 58.6379C252.588 42.1395 220.11 38.2746 177.659 46.3784C177.659 46.3784 177.68 46.3784 177.701 46.3992C183.727 50.451 189.191 55.2717 193.991 60.695C194.074 60.7989 194.178 60.882 194.282 60.9859C209.513 61.256 220.09 65.1417 223.061 72.726C225.721 79.4999 221.835 88.2478 213.129 97.5567" stroke="#110E00" stroke-width="6.23366" stroke-linecap="round" stroke-linejoin="round"/>
<path d="M193.991 60.7158C189.191 55.2925 183.727 50.4718 177.701 46.42C183.56 50.4718 188.963 55.2925 193.991 60.7158Z" stroke="#110E00" stroke-width="6.23366" stroke-linecap="round" stroke-linejoin="round"/>
<path d="M44.8617 122.408C44.7994 121.452 44.7786 120.517 44.7578 119.562C44.7786 120.517 44.8201 121.452 44.8617 122.408Z" stroke="#110E00" stroke-width="6.23366" stroke-linecap="round" stroke-linejoin="round"/>
<path d="M45.7968 103.541C45.6722 104.351 45.5475 105.183 45.4436 106.014C45.5475 105.183 45.6722 104.372 45.7968 103.541Z" stroke="#110E00" stroke-width="6.23366" stroke-linecap="round" stroke-linejoin="round"/>
<path d="M45.3395 106.907C44.9239 110.294 44.6953 113.764 44.6953 117.255C44.6953 117.858 44.7369 118.439 44.7369 119.021C44.6538 114.969 44.8615 110.938 45.3395 106.907Z" stroke="#110E00" stroke-width="6.23366" stroke-linecap="round" stroke-linejoin="round"/>
<path d="M148.548 74.8039C153.556 74.8039 153.577 67.0118 148.548 67.0118C143.52 67.0118 143.52 74.8039 148.548 74.8039Z" fill="black"/>
<path d="M168.973 69.2559C173.981 69.2559 174.002 61.4639 168.973 61.4639C163.945 61.4639 163.945 69.2559 168.973 69.2559Z" fill="black"/>
<path d="M154.719 78.0662C157.109 78.4402 159.498 78.3571 161.805 77.6298C164.111 76.9025 166.148 75.6974 167.872 74.0351C168.849 73.1 168.89 71.2923 167.872 70.3572C166.854 69.4222 165.254 69.3598 164.194 70.3572C164.028 70.5027 163.862 70.6689 163.696 70.8143C163.613 70.8975 163.53 70.9598 163.446 71.0221C163.197 71.2507 163.446 71.0014 163.571 70.9182C163.197 71.1468 162.844 71.4377 162.47 71.6663C162.096 71.8948 161.68 72.1026 161.285 72.2896C160.974 72.4351 161.327 72.2689 161.452 72.2273C161.348 72.2689 161.244 72.3104 161.14 72.352C160.911 72.4351 160.662 72.5182 160.433 72.6013C159.997 72.726 159.582 72.8507 159.145 72.9338C158.917 72.9753 158.709 73.0169 158.48 73.0585C158.127 73.1208 159.021 73.0169 158.667 73.0377C158.563 73.0377 158.439 73.0585 158.335 73.0792C157.898 73.1208 157.441 73.1208 157.005 73.1208C156.776 73.1208 156.569 73.1208 156.34 73.0792C156.236 73.0792 156.111 73.0585 156.008 73.0377C155.675 73.0169 156.693 73.1416 156.111 73.0377C155.405 72.9338 154.761 72.913 154.117 73.3078C153.576 73.6195 153.057 74.2428 152.932 74.8662C152.641 76.1129 153.306 77.8376 154.74 78.0662H154.719Z" fill="black"/>
<path d="M54.9807 174.501V201.243" stroke="#110E00" stroke-width="6.23366" stroke-linecap="round" stroke-linejoin="round"/>
<path d="M54.9807 201.243L58.617 209.804C58.991 210.677 59.6767 211.363 60.5494 211.737L69.1103 215.373L60.5494 219.009C59.6767 219.383 58.991 220.069 58.617 220.942L54.9807 229.502L51.3444 220.942C50.9704 220.069 50.2847 219.383 49.412 219.009L40.8511 215.373L49.412 211.737C50.2847 211.363 50.9704 210.677 51.3444 209.804L54.9807 201.243Z" fill="#FF7B17"/>
<path d="M231.455 107.26V155.634" stroke="#110E00" stroke-width="6.23366" stroke-linecap="round" stroke-linejoin="round"/>
<path d="M231.455 155.634L233.513 160.454C233.887 161.327 234.572 162.013 235.445 162.387L240.266 164.444L235.445 166.501C234.572 166.875 233.887 167.561 233.513 168.433L231.455 173.254L229.398 168.433C229.024 167.561 228.339 166.875 227.466 166.501L222.645 164.444L227.466 162.387C228.339 162.013 229.024 161.327 229.398 160.454L231.455 155.634Z" fill="#FF7B17"/>
<path d="M184.059 184.766V198.771" stroke="#110E00" stroke-width="6.23366" stroke-linecap="round" stroke-linejoin="round"/>
<path d="M184.059 198.771L186.719 205.046C187.093 205.918 187.779 206.604 188.651 206.978L194.927 209.638L188.651 212.298C187.779 212.672 187.093 213.357 186.719 214.23L184.059 220.505L181.4 214.23C181.026 213.357 180.34 212.672 179.467 212.298L173.192 209.638L179.467 206.978C180.34 206.604 181.026 205.918 181.4 205.046L184.059 198.771Z" fill="#FF7B17"/>
<path d="M115.946 202.635V215.996" stroke="#110E00" stroke-width="6.23366" stroke-linecap="round" stroke-linejoin="round"/>
<path d="M115.946 215.996L118.647 222.375C119.021 223.248 119.707 223.934 120.58 224.308L126.959 227.009L120.58 229.71C119.707 230.084 119.021 230.77 118.647 231.643L115.946 238.022L113.245 231.643C112.871 230.77 112.185 230.084 111.312 229.71L104.933 227.009L111.312 224.308C112.185 223.934 112.871 223.248 113.245 222.375L115.946 215.996Z" fill="#FF7B17"/>
<path d="M255.538 80.0609V112.559" stroke="#110E00" stroke-width="6.23366" stroke-linecap="round" stroke-linejoin="round"/>
<path d="M255.539 112.559L258.78 120.185C259.154 121.058 259.84 121.743 260.712 122.117L268.338 125.359L260.712 128.6C259.84 128.974 259.154 129.66 258.78 130.533L255.539 138.159L252.297 130.533C251.923 129.66 251.237 128.974 250.365 128.6L242.739 125.359L250.365 122.117C251.237 121.743 251.923 121.058 252.297 120.185L255.539 112.559Z" fill="#FF7B17"/>
<path d="M184.288 51.3445L202.054 20.4048C201.389 17.1633 200.641 13.8803 201.181 11.0751C201.451 9.70373 202.22 8.45699 203.446 7.79207C206.666 6.08821 209.181 9.55827 208.952 11.3453C209.991 2.9506 215.248 1.78698 220.651 4.322C223.061 5.44406 224.619 7.70896 224.91 10.3686C225.658 17.662 220.069 22.7113 211.321 26.6385L193.971 60.7366" stroke="#110E00" stroke-width="6.23366" stroke-linecap="round" stroke-linejoin="round"/>
<path d="M96.3308 86.2946L66.2014 50.8043C66.2638 47.4797 66.3884 44.1343 65.3703 41.4538C64.8716 40.1448 63.8742 39.0643 62.5443 38.6487C59.0743 37.5682 57.225 41.433 57.786 43.1369C55.2302 35.0539 49.8485 34.8877 45.007 38.3578C42.846 39.9162 41.7239 42.4097 41.9317 45.0693C42.5135 52.3835 48.9342 56.3107 58.2431 58.5964L87.6452 94.5438" stroke="#110E00" stroke-width="6.23366" stroke-linecap="round" stroke-linejoin="round"/>
</g>
<defs>
<clipPath id="clip0_124_617">
<rect width="270.499" height="238.022" fill="white"/>
</clipPath>
</defs>
</svg>
