<svg width="559" height="152" viewBox="0 0 559 152" fill="none" xmlns="http://www.w3.org/2000/svg">
<path d="M76 152C95.5429 152 113.363 144.624 126.828 132.503C140.293 144.624 158.113 152 177.656 152C197.199 152 215.019 144.624 228.484 132.503C241.949 144.624 259.769 152 279.312 152C298.855 152 316.675 144.624 330.14 132.503C343.605 144.624 361.425 152 380.968 152C400.511 152 418.331 144.624 431.796 132.503C445.261 144.624 463.081 152 482.624 152C524.598 152 558.624 117.974 558.624 76C558.624 34.0264 524.598 0 482.624 0C463.081 0 445.261 7.37636 431.796 19.4968C418.331 7.37636 400.511 0 380.968 0C361.425 0 343.605 7.37636 330.14 19.4968C316.675 7.37636 298.855 0 279.312 0C259.769 0 241.949 7.37636 228.484 19.4968C215.019 7.37636 197.199 0 177.656 0C158.113 0 140.293 7.37636 126.828 19.4968C113.363 7.37636 95.5429 0 76 0C34.0264 0 0 34.0264 0 76C0 117.974 34.0264 152 76 152Z" fill="#FFFEF0"/>
</svg>
