<svg width="53" height="44" viewBox="0 0 53 44" fill="none" xmlns="http://www.w3.org/2000/svg">
<g clip-path="url(#clip0_144_529)">
<path d="M8.48812 30.2513C9.21394 31.169 10.1391 31.8459 11.5644 31.9324L11.7261 24.5425L9.05975 25.1067L8.16846 29.1795L8.48436 30.2513H8.48812Z" fill="#FF7B17"/>
<path d="M6.23145 30.2513C6.95727 31.169 7.88241 31.8459 9.30772 31.9324" stroke="#110E00" stroke-width="1.12822" stroke-linecap="round" stroke-linejoin="round"/>
<path d="M12.5308 23.1436L33.4743 21.4324L24.7456 12.3089L14.4863 14.8812L12.5308 23.1436Z" fill="#D36820"/>
<path d="M11.5641 31.9324C7.57019 31.8083 9.70253 38.8296 13.5422 37.9872C12.7487 36.1858 12.0868 34.1738 11.5641 31.9324Z" fill="#FFFEF0"/>
<path d="M42.3836 27.9949C52.3796 29.0442 46.449 39.5893 40.6499 35.4337C41.4697 32.6394 42.1918 29.9693 42.3836 27.9949Z" fill="#FFFEF0"/>
<path d="M10.8084 25.3097C22.8691 15.7161 33.0908 20.6238 42.7258 25.2533C42.2181 30.0482 41.3757 34.3204 39.4502 38.367C38.8184 39.6945 37.7052 40.7438 36.34 41.2891C30.2439 43.7298 21.6694 44.1886 17.0099 41.8306C15.562 41.0973 14.4225 39.8675 13.7343 38.3971C12.2337 35.1929 10.6881 29.8038 10.8122 25.306L10.8084 25.3097Z" fill="#FFFEF0"/>
<path d="M40.4693 25.2533C39.9616 30.0482 39.1192 34.3204 37.1899 38.367C36.5581 39.6945 35.4449 40.7438 34.0798 41.2891C27.9836 43.7298 19.4092 44.1886 14.7496 41.8306C13.3017 41.0973 12.1622 39.8675 11.474 38.3971C9.97349 35.1929 8.42783 29.8038 8.55193 25.3059" stroke="#110E00" stroke-width="1.12822" stroke-linecap="round" stroke-linejoin="round"/>
<path d="M18.0174 30.9884C18.7244 30.9884 19.3224 30.3867 19.3224 29.6835C19.3224 28.9802 18.7244 28.3785 18.0174 28.3785C17.3104 28.3785 16.7124 28.9802 16.7124 29.6835C16.7124 30.3867 17.3104 30.9884 18.0174 30.9884Z" fill="black"/>
<path d="M29.4427 30.7478C30.1497 30.7478 30.7476 30.146 30.7476 29.4428C30.7476 28.7395 30.1497 28.1378 29.4427 28.1378C28.7357 28.1378 28.1377 28.7395 28.1377 29.4428C28.1377 30.146 28.7357 30.7478 29.4427 30.7478Z" fill="black"/>
<path d="M21.1092 33.2562C22.9896 33.888 25.0805 33.7864 26.8894 32.9892C27.3069 32.8049 27.4348 32.1618 27.2016 31.797C26.9233 31.3645 26.457 31.2893 26.0094 31.4849C25.9154 31.5262 25.9117 31.53 25.9906 31.4924C25.938 31.5112 25.8891 31.5338 25.8364 31.5526C25.7462 31.5864 25.6522 31.6165 25.5619 31.6466C25.3626 31.7105 25.1557 31.7632 24.9527 31.8045C24.8699 31.8233 24.7872 31.8384 24.7007 31.8534C24.6443 31.8647 24.5879 31.8722 24.5315 31.8797C24.6217 31.8685 24.6142 31.8685 24.5051 31.8797C24.3021 31.8985 24.1027 31.9173 23.8997 31.9211C23.0046 31.9474 22.4292 31.8647 21.568 31.5751C21.1355 31.4284 20.5977 31.7406 20.4962 32.1844C20.3871 32.6657 20.6429 33.0982 21.1054 33.2562H21.1092Z" fill="black"/>
<path d="M17.9499 5.20483C12.9255 4.69713 9.96961 11.0641 3.88475 13.5311C4.38492 14.5991 5.52066 15.3024 7.07761 15.765C5.43793 20.0146 4.14048 20.7103 2.82422 21.6091C4.08782 22.7374 5.3928 23.2563 6.77299 22.6358C5.14835 27.0321 6.80683 28.6568 8.49164 30.2551C8.6684 28.1491 9.3002 26.3966 10.812 25.3097C11.5717 26.4229 12.7601 27.3179 14.238 28.0626C13.2678 24.283 13.6815 20.6878 15.5543 17.2956C17.4347 18.0289 18.7584 19.2211 19.6873 20.7367C21.1352 18.059 22.8501 15.7725 25.0765 14.2231C30.7777 17.7694 31.9962 23.2676 33.1207 28.8072C34.4181 26.374 35.4711 23.7227 35.0951 19.7814C36.0428 22.5757 37.1936 24.9073 38.8558 26.0807C38.916 27.0547 39.0514 28.0513 39.262 29.0704C45.4935 26.3928 44.6548 29.0817 49.7168 26.6824C47.8966 26.2348 46.8511 24.7644 45.8959 23.1774C48.6864 24.0987 51.0707 23.7528 53.0074 21.9927C48.8405 19.4768 50.3524 16.7315 46.9564 13.3957C48.7277 14.1855 50.4614 14.6029 52.1349 14.5202C46.46 12.0155 44.5157 4.33986 36.6971 3.63661C37.8705 3.06121 38.4384 2.00069 38.5286 0.564087C28.6642 3.27181 24.4973 -1.98193 17.9499 5.20483Z" fill="#FF7B17"/>
<path d="M15.6935 5.20483C10.6692 4.69713 7.71326 11.0641 1.6284 13.5311C2.12858 14.5991 3.26432 15.3024 4.82126 15.765C3.18158 20.0146 1.88413 20.7103 0.567871 21.6091C1.83148 22.7374 3.13645 23.2563 4.51664 22.6358C2.892 27.0321 4.55049 28.6568 6.23529 30.2551C6.41205 28.1491 7.04385 26.3966 8.55567 25.3097C9.31533 26.4229 10.5037 27.3179 11.9817 28.0626C11.0114 24.283 11.4251 20.6878 13.298 17.2956C15.1783 18.0289 16.5021 19.2211 17.431 20.7367C18.8789 18.059 20.5938 15.7725 22.8201 14.2231C28.5214 17.7694 29.7399 23.2676 30.8643 28.8072C32.1618 26.374 33.2148 23.7227 32.8387 19.7814C33.7864 22.5757 34.9372 24.9073 36.5994 26.0807C36.6596 27.0547 36.795 28.0513 37.0056 29.0704C43.2371 26.3928 42.3985 29.0817 47.4604 26.6824C45.6402 26.2348 44.5948 24.7644 43.6395 23.1774C46.43 24.0987 48.8143 23.7528 50.7511 21.9927C46.5842 19.4768 48.096 16.7315 44.7001 13.3957C46.4714 14.1855 48.2051 14.6029 49.8786 14.5202C44.2037 12.0155 42.2594 4.33986 34.4408 3.63661C35.6141 3.06121 36.182 2.00069 36.2723 0.564087C26.4079 3.27181 22.241 -1.98193 15.6935 5.20483Z" stroke="#110E00" stroke-width="1.12822" stroke-linecap="round" stroke-linejoin="round"/>
<path d="M9.30823 31.9324C5.31433 31.8083 7.44667 38.8296 11.2864 37.9872C10.4929 36.1858 9.83097 34.1738 9.30823 31.9324Z" stroke="#110E00" stroke-width="1.12822" stroke-linecap="round" stroke-linejoin="round"/>
<path d="M40.1268 27.9949C50.1228 29.0442 44.1921 39.5893 38.3931 35.4337C39.2129 32.6394 39.935 29.9693 40.1268 27.9949Z" stroke="#110E00" stroke-width="1.12822" stroke-linecap="round" stroke-linejoin="round"/>
<path d="M37.002 29.0742C38.8898 26.7802 40.2099 24.2868 40.4693 21.4324" stroke="#110E00" stroke-width="1.12822" stroke-linecap="round" stroke-linejoin="round"/>
<path d="M36.5957 26.0844C36.5844 24.6816 36.5694 23.2751 36.5581 21.8724" stroke="#110E00" stroke-width="1.12822" stroke-linecap="round" stroke-linejoin="round"/>
<path d="M7.46538 19.8002C7.40897 21.8649 7.39769 23.9032 8.55224 25.3059" stroke="#110E00" stroke-width="1.12822" stroke-linecap="round" stroke-linejoin="round"/>
<path d="M24.7759 5.88176C29.5144 4.94158 30.9096 8.06674 35.7347 8.72863" stroke="#110E00" stroke-width="1.12822" stroke-linecap="round" stroke-linejoin="round"/>
<path d="M13.3284 9.92834C11.4555 11.1017 10.0039 12.6361 9.25928 14.7797" stroke="#110E00" stroke-width="1.12822" stroke-linecap="round" stroke-linejoin="round"/>
<path d="M39.7546 13.9109C39.9201 14.7985 41.3867 15.6823 43.4025 16.566C40.7249 16.7917 38.6113 16.19 37.4756 14.1742" stroke="#110E00" stroke-width="1.12822" stroke-linecap="round" stroke-linejoin="round"/>
</g>
<defs>
<clipPath id="clip0_144_529">
<rect width="53" height="43.9442" fill="white"/>
</clipPath>
</defs>
</svg>
