<svg width="258" height="71" viewBox="0 0 258 71" fill="none" xmlns="http://www.w3.org/2000/svg">
<g clip-path="url(#clip0_3_23)">
<ellipse cx="35.2008" cy="44.5685" rx="1.01707" ry="1.01154" fill="#110E00"/>
<ellipse cx="43.2763" cy="42.1711" rx="1.01707" ry="1.01154" fill="#110E00"/>
<path d="M38.0791 46.8242C39.6759 46.8343 41.0998 46.6016 41.9134 45.4991" stroke="#110E00" stroke-width="2" stroke-linecap="round" stroke-linejoin="round"/>
<path d="M77.4193 36.5975C77.4193 16.3971 60.2512 0.182072 39.6352 1.60834C22.2331 2.80196 8.14673 16.832 6.95676 34.1294C5.85832 50.0712 15.4798 63.9091 29.3628 69.2804C30.2782 69.6344 31.3257 69.5333 32.1089 68.9365C33.665 67.7428 35.0991 66.2458 36.0755 64.3845C37.7028 61.8658 38.4452 58.8817 38.4859 55.8876C38.5571 51.1637 36.8484 47.1681 29.6069 45.4586C26.0878 44.2549 27.6134 40.583 30.4511 41.0685C32.0479 41.1798 33.6447 41.4023 35.2211 40.9573L29.9425 35.6669C27.4812 33.4516 29.5154 29.5066 33.1666 32.2884L37.2451 35.323L35.3737 30.4271C34.0413 27.3419 36.8383 26.2697 38.7707 28.5659C39.625 29.3852 40.9676 30.9835 42.3406 32.6222C42.5644 31.2566 42.7271 29.7898 42.3406 27.5543C41.6287 24.54 45.7478 23.8622 47.253 27.2205C47.7718 28.6063 47.965 30.8014 48.0972 33.1279C48.8702 31.7522 49.7245 30.4979 50.8128 29.5774C51.9824 28.5962 53.4673 29.2537 54.0369 31.6005C54.4336 33.2898 54.159 35.4949 53.6809 37.8518C53.4877 38.8027 53.5894 39.7737 53.9352 40.674C55.6337 45.0439 56.0812 51.9426 55.9998 59.8933C55.9795 61.7039 56.4575 63.464 57.322 64.9813C58.1255 66.3874 59.9461 66.8729 61.3191 65.9929C70.9915 59.7415 77.4092 48.9181 77.4092 36.5874L77.4193 36.5975Z" fill="#F9D80D"/>
<path d="M72.0695 36.5975C72.0695 16.3971 54.9014 0.182072 34.2854 1.60834C16.8834 2.80196 2.79694 16.832 1.60697 34.1294C0.508537 50.0712 10.13 63.9091 24.013 69.2804C24.9284 69.6344 25.976 69.5333 26.7591 68.9365C28.3152 67.7428 29.7493 66.2458 30.7257 64.3845C32.353 61.8658 33.0954 58.8817 33.1361 55.8876C33.2073 51.1637 31.4986 47.1681 24.2571 45.4586C20.738 44.2549 22.2637 40.583 25.1013 41.0685C26.6981 41.1798 28.2949 41.4023 29.8713 40.9573L24.5927 35.6669C22.1314 33.4516 24.1656 29.5066 27.8169 32.2884L31.8953 35.323L30.0239 30.4271C28.6915 27.3419 31.4885 26.2697 33.4209 28.5659C34.2752 29.3852 35.6178 30.9835 36.9908 32.6222C37.2146 31.2566 37.3773 29.7898 36.9908 27.5543C36.2789 24.54 40.398 23.8622 41.9033 27.2205C42.422 28.6063 42.6152 30.8014 42.7474 33.1279C43.5204 31.7522 44.3747 30.4979 45.463 29.5774C46.6326 28.5962 48.1176 29.2537 48.6871 31.6005C49.0838 33.2898 48.8092 35.4949 48.3311 37.8518C48.1379 38.8027 48.2396 39.7737 48.5854 40.674C50.2839 45.0439 50.7314 51.9426 50.6501 59.8933C50.6297 61.7039 51.1077 63.464 51.9722 64.9813C52.7757 66.3874 54.5963 66.8729 55.9693 65.9929C65.6417 59.7415 72.0594 48.9181 72.0594 36.5874L72.0695 36.5975Z" stroke="#110E00" stroke-width="3" stroke-linecap="round" stroke-linejoin="round"/>
<path d="M118.245 24.2365C120.696 25.6324 122.628 27.5442 124.032 29.9922C125.435 32.4401 126.137 35.1611 126.137 38.1755V52.0842C126.137 52.5799 125.984 52.9946 125.679 53.3183C125.374 53.642 124.947 53.8038 124.408 53.8038C123.91 53.8038 123.493 53.642 123.167 53.3183C122.842 52.9946 122.679 52.5799 122.679 52.0842V47.6233C121.408 49.6464 119.679 51.2446 117.472 52.4079C115.264 53.5712 112.803 54.1579 110.077 54.1579C107.047 54.1579 104.3 53.4599 101.849 52.064C99.388 50.668 97.4658 48.7562 96.0622 46.3083C94.6587 43.8705 93.9569 41.1596 93.9569 38.1755C93.9569 35.1915 94.6587 32.43 96.0622 29.9922C97.4658 27.5543 99.388 25.6324 101.849 24.2365C104.3 22.8406 107.047 22.1426 110.077 22.1426C113.108 22.1426 115.793 22.8406 118.255 24.2365H118.245ZM116.515 49.2822C118.438 48.1797 119.943 46.6522 121.031 44.7C122.13 42.7578 122.669 40.583 122.669 38.1755C122.669 35.7681 122.12 33.5932 121.031 31.6511C119.933 29.7089 118.428 28.1714 116.515 27.0385C114.593 25.9157 112.447 25.3492 110.067 25.3492C107.687 25.3492 105.541 25.9157 103.619 27.0385C101.697 28.1613 100.181 29.6988 99.0727 31.6511C97.9641 33.6034 97.4047 35.7782 97.4047 38.1755C97.4047 40.5729 97.9641 42.7578 99.0727 44.7C100.181 46.6421 101.697 48.1695 103.619 49.2822C105.541 50.3848 107.687 50.9412 110.067 50.9412C112.447 50.9412 114.593 50.3848 116.515 49.2822Z" fill="#110E00"/>
<path d="M135.708 51.1738C134.304 49.4239 133.602 47.1479 133.602 44.3662V10.8134C133.602 10.2773 133.765 9.86252 134.09 9.54894C134.416 9.24548 134.833 9.09375 135.331 9.09375C135.87 9.09375 136.287 9.24548 136.603 9.54894C136.908 9.8524 137.06 10.2773 137.06 10.8134V44.3662C137.06 46.1262 137.437 47.5626 138.179 48.6854C138.932 49.8082 139.898 50.3747 141.088 50.3747H142.532C142.959 50.3747 143.295 50.5264 143.57 50.8299C143.834 51.1334 143.976 51.5582 143.976 52.0943C143.976 52.59 143.824 53.0047 143.519 53.3284C143.214 53.6521 142.786 53.8139 142.247 53.8139H141.098C138.911 53.8139 137.111 52.9339 135.718 51.1839L135.708 51.1738Z" fill="#110E00"/>
<path d="M155.886 52.064C153.425 50.668 151.503 48.7562 150.099 46.3083C148.696 43.8705 147.994 41.1596 147.994 38.1755C147.994 35.1915 148.696 32.43 150.099 29.9922C151.503 27.5543 153.425 25.6324 155.886 24.2365C158.337 22.8406 161.083 22.1426 164.114 22.1426C167.145 22.1426 169.83 22.8406 172.292 24.2365C174.743 25.6324 176.675 27.5442 178.079 29.9922C179.482 32.4401 180.184 35.1611 180.184 38.1755C180.184 41.1899 179.482 43.8604 178.079 46.3083C176.675 48.7562 174.753 50.668 172.292 52.064C169.83 53.4599 167.115 54.1579 164.114 54.1579C161.114 54.1579 158.337 53.4599 155.886 52.064ZM170.563 49.2822C172.485 48.1797 173.99 46.6522 175.078 44.7C176.177 42.7578 176.716 40.583 176.716 38.1755C176.716 35.7681 176.167 33.5932 175.078 31.6511C173.98 29.7089 172.475 28.1714 170.563 27.0385C168.64 25.9157 166.494 25.3492 164.114 25.3492C161.734 25.3492 159.588 25.9157 157.666 27.0385C155.744 28.1613 154.228 29.6988 153.12 31.6511C152.011 33.6034 151.452 35.7782 151.452 38.1755C151.452 40.5729 152.011 42.7578 153.12 44.7C154.228 46.6421 155.744 48.1695 157.666 49.2822C159.588 50.3848 161.734 50.9412 164.114 50.9412C166.494 50.9412 168.64 50.3848 170.563 49.2822Z" fill="#110E00"/>
<path d="M210.716 23.8117C212.923 24.9547 214.653 26.6237 215.893 28.8188C217.144 31.0138 217.765 33.6337 217.765 36.6886V52.0842C217.765 52.5799 217.602 52.9946 217.277 53.3183C216.951 53.642 216.534 53.8038 216.036 53.8038C215.537 53.8038 215.12 53.642 214.795 53.3183C214.469 52.9946 214.307 52.5799 214.307 52.0842V36.6886C214.307 33.0673 213.279 30.2956 211.225 28.3838C209.17 26.472 206.496 25.5212 203.19 25.5212C201.156 25.5212 199.305 25.9157 197.637 26.6945C195.969 27.4734 194.657 28.5659 193.691 29.9618C192.735 31.3577 192.246 32.8953 192.246 34.5744V52.0943C192.246 52.59 192.094 53.0047 191.789 53.3284C191.484 53.6521 191.056 53.8139 190.517 53.8139C190.019 53.8139 189.602 53.6521 189.277 53.3284C188.951 53.0047 188.788 52.59 188.788 52.0943V10.8134C188.788 10.2773 188.951 9.86252 189.277 9.54894C189.602 9.24548 190.019 9.09375 190.517 9.09375C191.056 9.09375 191.473 9.24548 191.789 9.54894C192.094 9.8524 192.246 10.2773 192.246 10.8134V27.1902C193.548 25.592 195.145 24.3377 197.027 23.4374C198.908 22.5371 200.963 22.092 203.19 22.092C205.987 22.092 208.499 22.6686 210.706 23.8117H210.716Z" fill="#110E00"/>
<path d="M250.118 24.2365C252.569 25.6324 254.501 27.5442 255.905 29.9922C257.308 32.4401 258.01 35.1611 258.01 38.1755V52.0842C258.01 52.5799 257.858 52.9946 257.553 53.3183C257.247 53.642 256.82 53.8038 256.281 53.8038C255.783 53.8038 255.366 53.642 255.04 53.3183C254.715 52.9946 254.552 52.5799 254.552 52.0842V47.6233C253.281 49.6464 251.552 51.2446 249.345 52.4079C247.138 53.5712 244.676 54.1579 241.951 54.1579C238.92 54.1579 236.174 53.4599 233.723 52.064C231.261 50.668 229.339 48.7562 227.935 46.3083C226.532 43.8705 225.83 41.1596 225.83 38.1755C225.83 35.1915 226.532 32.43 227.935 29.9922C229.339 27.5543 231.261 25.6324 233.723 24.2365C236.174 22.8406 238.92 22.1426 241.951 22.1426C244.982 22.1426 247.667 22.8406 250.128 24.2365H250.118ZM248.389 49.2822C250.311 48.1797 251.816 46.6522 252.905 44.7C254.003 42.7578 254.542 40.583 254.542 38.1755C254.542 35.7681 253.993 33.5932 252.905 31.6511C251.806 29.7089 250.301 28.1714 248.389 27.0385C246.466 25.9157 244.32 25.3492 241.941 25.3492C239.561 25.3492 237.415 25.9157 235.492 27.0385C233.57 28.1613 232.055 29.6988 230.946 31.6511C229.837 33.6034 229.278 35.7782 229.278 38.1755C229.278 40.5729 229.837 42.7578 230.946 44.7C232.055 46.6421 233.57 48.1695 235.492 49.2822C237.415 50.3848 239.561 50.9412 241.941 50.9412C244.32 50.9412 246.466 50.3848 248.389 49.2822Z" fill="#110E00"/>
<path d="M99.0626 40.2896C99.6931 43.5266 102.022 46.541 105.002 47.9672C105.623 48.2707 106.274 48.4123 106.965 48.2201C107.555 48.0583 108.196 47.6031 108.481 47.0568C108.796 46.4701 108.948 45.7621 108.735 45.1046C108.542 44.5078 108.155 43.8806 107.565 43.5974C107.036 43.3445 106.538 43.041 106.07 42.687L106.589 43.0815C105.979 42.6162 105.44 42.07 104.962 41.463L105.358 41.9789C104.89 41.372 104.504 40.7044 104.199 40.0064L104.453 40.6133C104.229 40.0772 104.067 39.5209 103.955 38.9443C103.843 38.3677 103.294 37.7304 102.785 37.4371C102.236 37.1235 101.432 36.9819 100.822 37.1842C100.212 37.3865 99.6118 37.7608 99.3067 38.3475C98.971 38.9746 98.91 39.6018 99.0524 40.2998L99.0626 40.2896Z" fill="#37BBCA"/>
<path d="M158.185 39.0454C160.636 39.0454 160.646 35.2522 158.185 35.2522C155.724 35.2522 155.724 39.0454 158.185 39.0454Z" fill="black"/>
<path d="M170.125 35.2421C172.576 35.2421 172.587 31.4488 170.125 31.4488C167.664 31.4488 167.664 35.2421 170.125 35.2421Z" fill="black"/>
<path d="M161.948 40.7752C164.541 41.0584 167.257 40.0165 169.057 38.1452C169.515 37.6697 169.576 36.8302 169.057 36.3547C168.539 35.8793 167.745 35.8389 167.257 36.3547C167.064 36.5571 166.871 36.7391 166.667 36.9111C166.616 36.9516 166.565 36.992 166.515 37.0325C166.382 37.1437 166.688 36.9111 166.545 37.0122C166.423 37.0932 166.311 37.1842 166.189 37.255C165.955 37.4067 165.721 37.5382 165.477 37.6596C165.365 37.7203 165.243 37.7709 165.131 37.8215C164.969 37.9024 165.335 37.7406 165.172 37.8012C165.101 37.8316 165.019 37.8619 164.948 37.8822C164.704 37.9732 164.46 38.044 164.206 38.1047C164.063 38.1351 163.921 38.1654 163.779 38.1957C163.718 38.2059 163.657 38.216 163.585 38.2261C163.545 38.2261 163.331 38.2463 163.514 38.2362C163.718 38.216 163.413 38.2362 163.392 38.2362C163.331 38.2362 163.26 38.2463 163.199 38.2463C163.067 38.2463 162.945 38.2564 162.812 38.2564C162.528 38.2564 162.233 38.2463 161.948 38.2059C161.287 38.1351 160.646 38.8431 160.677 39.4703C160.707 40.2188 161.236 40.6538 161.948 40.7347V40.7752Z" fill="black"/>
<path d="M147.2 26.0674L143.346 24.1556C142.756 23.8622 141.942 23.9836 141.607 24.6108C141.301 25.1873 141.424 26.0269 142.064 26.3405C143.346 26.9778 144.637 27.615 145.919 28.2523C146.509 28.5457 147.323 28.4243 147.658 27.7971C147.963 27.2205 147.841 26.381 147.2 26.0674Z" fill="#F9D80D"/>
<path d="M153.781 21.0704L152.225 15.9014C152.032 15.2641 151.33 14.809 150.659 15.0214C149.987 15.2338 149.57 15.9014 149.774 16.5791L151.33 21.7481C151.523 22.3854 152.225 22.8406 152.896 22.6282C153.567 22.4157 153.984 21.7481 153.781 21.0704Z" fill="#F9D80D"/>
<path d="M162.09 19.3103V14.5156C162.09 13.8581 161.511 13.2208 160.819 13.2512C160.127 13.2815 159.548 13.8075 159.548 14.5156V19.3103C159.548 19.9678 160.127 20.6051 160.819 20.5747C161.511 20.5444 162.09 20.0184 162.09 19.3103Z" fill="#F9D80D"/>
<path d="M170.969 19.5632C171.671 18.0257 172.383 16.4982 173.085 14.9607C173.227 14.6471 173.309 14.3335 173.217 13.9896C173.136 13.6963 172.912 13.3827 172.637 13.2309C172.078 12.9376 171.193 13.0388 170.898 13.6861C170.196 15.2237 169.484 16.7511 168.783 18.2887C168.64 18.6022 168.559 18.9158 168.65 19.2597C168.732 19.5531 168.956 19.8667 169.23 20.0184C169.79 20.3117 170.674 20.2106 170.969 19.5632Z" fill="#F9D80D"/>
<path d="M178.862 22.881L180.977 20.2005C181.099 20.0892 181.191 19.9476 181.242 19.7958C181.323 19.6441 181.354 19.4823 181.354 19.3103C181.354 18.9967 181.211 18.6326 180.977 18.4201C180.743 18.2077 180.418 18.0358 180.082 18.0459C179.767 18.056 179.391 18.1571 179.187 18.4201L177.072 21.1007C176.95 21.212 176.858 21.3536 176.807 21.5053C176.726 21.6571 176.695 21.8189 176.695 21.9909C176.695 22.3045 176.838 22.6686 177.072 22.881C177.306 23.0935 177.631 23.2654 177.967 23.2553C178.282 23.2452 178.658 23.144 178.862 22.881Z" fill="#F9D80D"/>
<path d="M241.981 45.4788C246.188 45.4788 249.599 42.0868 249.599 37.9024C249.599 33.7181 246.188 30.326 241.981 30.326C237.774 30.326 234.363 33.7181 234.363 37.9024C234.363 42.0868 237.774 45.4788 241.981 45.4788Z" fill="#D3DE16"/>
<path d="M234.77 40.32C235.97 43.4659 235.35 45.0945 234.363 46.4196C236.265 45.6508 238.584 45.1754 241.981 45.4788L234.77 40.32Z" fill="#D3DE16"/>
</g>
<defs>
<clipPath id="clip0_3_23">
<rect width="258" height="71" fill="white"/>
</clipPath>
</defs>
</svg>
