<svg width="51" height="51" viewBox="0 0 51 51" fill="none" xmlns="http://www.w3.org/2000/svg">
<g clip-path="url(#clip0_144_507)">
<path d="M25.7842 0.861627C8.66848 -2.85061 -4.36863 34.5898 7.74646 41.2775C8.95031 44.8085 8.22156 47.1679 4.767 47.8886C7.12641 49.6119 9.32879 49.9259 11.1809 47.0874C11.1527 48.098 10.9312 49.0039 10.3796 49.7206C14.4542 50.8439 16.5399 47.7195 17.482 42.1592C18.7865 43.5483 19.5435 45.0501 19.4307 46.7411C21.8223 46.1171 23.4892 44.6434 24.5844 42.5015C25.905 46.5197 30.4466 47.8484 36.2687 48.1141C35.3386 45.8715 34.8353 43.7818 36.2687 42.3887C37.0417 48.6979 40.5728 49.4508 44.9735 48.4604C46.9303 48.8469 48.7501 49.0321 49.7849 48.0014C39.7997 41.1647 49.9902 42.2518 50.9284 35.2743C51.488 30.9702 48.4361 29.3355 48.7542 24.4476C50.413 9.21617 37.8953 -0.152997 27.9866 0.982415C27.2498 1.06697 26.5089 1.01865 25.7842 0.861627Z" fill="#F9D80D"/>
<path d="M42.1431 32.6209C42.4967 32.6209 42.7833 32.2514 42.7833 31.7955C42.7833 31.3397 42.4967 30.9702 42.1431 30.9702C41.7895 30.9702 41.5029 31.3397 41.5029 31.7955C41.5029 32.2514 41.7895 32.6209 42.1431 32.6209Z" fill="#FFFEF0"/>
<path d="M9.79206 26.6339C4.93234 26.9882 6.76027 36.8929 11.6321 34.7952C10.7262 33.3135 9.89272 31.5218 9.79206 26.6339Z" fill="#FFFEF0"/>
<path d="M7.37605 26.6339C2.51632 26.9882 4.34426 36.8929 9.21606 34.7952C8.31015 33.3135 7.47671 31.5218 7.37605 26.6339Z" stroke="#110E00" stroke-width="1.20789" stroke-linecap="round" stroke-linejoin="round"/>
<path d="M23.3687 0.861627C6.25295 -2.85061 -6.78416 34.5898 5.33093 41.2775C6.53479 44.8085 5.80603 47.1679 2.35148 47.8886C4.71088 49.6119 6.91326 49.9259 8.76535 47.0874C8.73716 48.098 8.51572 49.0039 7.96412 49.7206C12.0387 50.8439 14.1243 47.7195 15.0665 42.1592C16.371 43.5483 17.1279 45.0501 17.0152 46.7411C19.4068 46.1171 21.0737 44.6434 22.1689 42.5015C23.4895 46.5197 28.0311 47.8484 33.8531 48.1141C32.9231 45.8715 32.4198 43.7818 33.8531 42.3887C34.6262 48.6979 38.1572 49.4508 42.558 48.4604C44.5147 48.8469 46.3346 49.0321 47.3694 48.0014C37.3842 41.1647 47.5747 42.2518 48.5128 35.2743C49.0725 30.9702 46.0206 29.3355 46.3386 24.4476C47.9975 9.21617 35.4797 -0.152997 25.5711 0.982415C24.8342 1.06697 24.0934 1.01865 23.3687 0.861627Z" stroke="#110E00" stroke-width="1.20789" stroke-linecap="round" stroke-linejoin="round"/>
<path d="M10.9558 18.2471L14.8371 14.1323L28.7882 18.2471C33.5352 19.1691 38.3788 20.0187 39.2766 23.9967C39.1961 25.5548 40.3315 27.4311 41.9743 29.4442C41.2938 33.8248 39.4699 37.8028 29.5169 38.9302C27.7051 39.1355 25.8772 39.1637 24.0533 39.1073C18.6218 38.9382 12.8521 39.522 10.5572 32.3552C9.82034 30.0602 9.63916 27.6203 9.91295 25.2287C10.2149 22.5834 10.5531 20.1838 10.9598 18.2471H10.9558Z" fill="#FFFEF0"/>
<path d="M36.8606 23.9967C36.7801 25.5548 37.9155 27.4311 39.5582 29.4442C38.8778 33.8248 37.0539 37.8028 27.1009 38.9302C25.2891 39.1355 23.4611 39.1637 21.6372 39.1073C16.2058 38.9382 10.4361 39.522 8.14114 32.3552C7.40433 30.0602 7.22314 27.6203 7.49693 25.2287C7.7989 22.5834 8.13711 20.1838 8.54376 18.2471" stroke="#110E00" stroke-width="1.20789" stroke-linecap="round" stroke-linejoin="round"/>
<path d="M34.6219 12.2439C23.9522 8.86991 17.2525 10.1664 12.9564 14.2973C10.3675 17.0433 10.3796 21.6292 10.3394 26.1749C11.3983 21.6493 12.59 17.6834 14.261 15.7146C13.4356 19.5275 14.1684 21.6373 16.0607 22.4707C17.2203 21.2789 18.4765 20.3287 20.0387 20.1274C19.33 22.4385 21.4076 23.5457 24.5078 24.2141C24.4716 23.123 24.536 22.0721 26.1989 21.7621C33.9173 25.3898 36.3975 24.5241 39.2763 23.9967" fill="#F9D80D"/>
<path d="M9.63488 15.7871C7.79889 19.0484 7.968 21.6252 7.92773 26.1749C8.98665 21.6493 10.1784 17.6835 11.8493 15.7146C11.0239 19.5275 11.7567 21.6373 13.6491 22.4707C14.8087 21.2789 16.0649 20.3287 17.6271 20.1274C16.9184 22.4385 18.996 23.5457 22.0962 24.2141C22.06 23.123 22.1244 22.0721 23.7873 21.7621C31.5057 25.3898 33.9858 24.5241 36.8646 23.9967" stroke="#110E00" stroke-width="1.20789" stroke-linecap="round" stroke-linejoin="round"/>
<path d="M44.0679 18.5652C44.8369 22.0519 45.5898 24.6006 46.3145 25.43" stroke="#110E00" stroke-width="1.20789" stroke-linecap="round" stroke-linejoin="round"/>
<path d="M38.5796 32.9471C39.413 32.9713 40.1498 32.8465 40.6008 32.2908" stroke="#110E00" stroke-width="1.20789" stroke-linecap="round" stroke-linejoin="round"/>
<path d="M39.5581 29.4482C44.3454 36.6191 34.6823 41.821 44.6111 48.7543" stroke="#110E00" stroke-width="1.20789" stroke-linecap="round" stroke-linejoin="round"/>
<path d="M15.0944 14.4664C13.6369 17.8364 13.1135 20.1113 13.649 22.4707" stroke="#110E00" stroke-width="1.20789" stroke-linecap="round" stroke-linejoin="round"/>
<path d="M20.9044 13.3029C19.3503 17.454 19.62 21.1259 22.0962 24.2141" stroke="#110E00" stroke-width="1.20789" stroke-linecap="round" stroke-linejoin="round"/>
<path d="M25.9172 14.1363C24.4798 19.0926 25.6918 22.8975 32.1177 24.4396" stroke="#110E00" stroke-width="1.20789" stroke-linecap="round" stroke-linejoin="round"/>
<path d="M33.0076 18.5652C32.9472 20.989 33.1686 23.2558 35.7172 24.2141" stroke="#110E00" stroke-width="1.20789" stroke-linecap="round" stroke-linejoin="round"/>
<path d="M36.309 15.787C35.8017 18.6699 35.991 21.5527 36.8727 24.4355" stroke="#110E00" stroke-width="1.20789" stroke-linecap="round" stroke-linejoin="round"/>
<path d="M16.3991 30.2495C17.156 30.2495 17.7962 29.6053 17.7962 28.8524C17.7962 28.0995 17.156 27.4553 16.3991 27.4553C15.6421 27.4553 15.002 28.0995 15.002 28.8524C15.002 29.6053 15.6421 30.2495 16.3991 30.2495Z" fill="black"/>
<path d="M28.6349 29.9918C29.3919 29.9918 30.032 29.3476 30.032 28.5947C30.032 27.8418 29.3919 27.1976 28.6349 27.1976C27.878 27.1976 27.2378 27.8418 27.2378 28.5947C27.2378 29.3476 27.878 29.9918 28.6349 29.9918Z" fill="black"/>
<path d="M19.7085 32.6773C21.7216 33.3538 23.9602 33.245 25.8968 32.3915C26.3438 32.1942 26.4807 31.5057 26.231 31.1151C25.9331 30.6521 25.4338 30.5716 24.9547 30.781C24.854 30.8252 24.85 30.8293 24.9346 30.789C24.8782 30.8091 24.8259 30.8333 24.7695 30.8534C24.6729 30.8897 24.5722 30.9219 24.4756 30.9541C24.2622 31.0225 24.0407 31.0789 23.8233 31.1232C23.7347 31.1433 23.6462 31.1594 23.5536 31.1755C23.4932 31.1876 23.4328 31.1957 23.3724 31.2037C23.469 31.1916 23.4609 31.1916 23.3442 31.2037C23.1268 31.2238 22.9134 31.244 22.696 31.248C21.7377 31.2762 21.1217 31.1876 20.1997 30.8776C19.7366 30.7206 19.1609 31.0547 19.0522 31.5298C18.9354 32.0452 19.2092 32.5082 19.7044 32.6773H19.7085Z" fill="black"/>
</g>
<defs>
<clipPath id="clip0_144_507">
<rect width="50.9929" height="50.55" fill="white"/>
</clipPath>
</defs>
</svg>
