<svg width="280" height="75" viewBox="0 0 280 75" fill="none" xmlns="http://www.w3.org/2000/svg">
<g filter="url(#filter0_d_257_310)">
<path d="M33 0C17.536 0 5 12.536 5 28C5 43.464 17.536 56 33 56H134.304L139.5 65L144.696 56H247C262.464 56 275 43.464 275 28C275 12.536 262.464 0 247 0H33Z" fill="#FFFEF0"/>
<path d="M135.603 55.25L135.17 54.5H134.304H33C18.3644 54.5 6.5 42.6355 6.5 28C6.5 13.3645 18.3644 1.5 33 1.5H247C261.636 1.5 273.5 13.3645 273.5 28C273.5 42.6355 261.636 54.5 247 54.5H144.696H143.83L143.397 55.25L139.5 62L135.603 55.25Z" stroke="#F9D80D" stroke-width="3"/>
</g>
<defs>
<filter id="filter0_d_257_310" x="0" y="0" width="280" height="75" filterUnits="userSpaceOnUse" color-interpolation-filters="sRGB">
<feFlood flood-opacity="0" result="BackgroundImageFix"/>
<feColorMatrix in="SourceAlpha" type="matrix" values="0 0 0 0 0 0 0 0 0 0 0 0 0 0 0 0 0 0 127 0" result="hardAlpha"/>
<feOffset dy="5"/>
<feGaussianBlur stdDeviation="2.5"/>
<feComposite in2="hardAlpha" operator="out"/>
<feColorMatrix type="matrix" values="0 0 0 0 0 0 0 0 0 0 0 0 0 0 0 0 0 0 0.15 0"/>
<feBlend mode="normal" in2="BackgroundImageFix" result="effect1_dropShadow_257_310"/>
<feBlend mode="normal" in="SourceGraphic" in2="effect1_dropShadow_257_310" result="shape"/>
</filter>
</defs>
</svg>
