<svg width="38" height="29" viewBox="0 0 38 29" fill="none" xmlns="http://www.w3.org/2000/svg">
<g clip-path="url(#clip0_124_809)">
<path d="M4.86105 16.5567C9.82768 18.1144 12.258 10.4377 7.27071 8.87355C2.28346 7.3094 -0.126202 14.9926 4.86105 16.5567Z" fill="black"/>
<path d="M31.4714 16.4411C36.438 17.9988 38.8683 10.3221 33.8811 8.75792C28.8938 7.19377 26.4841 14.8769 31.4714 16.4411Z" fill="black"/>
<path d="M11.3874 22.4517C16.4626 24.6735 22.6269 24.2889 27.4634 21.6426C28.6928 20.9705 29.3498 19.3087 28.6008 18.0162C27.8517 16.7236 26.27 16.1375 24.9531 16.8721C24.433 17.1591 23.9258 17.4051 23.4044 17.6241C23.2756 17.6738 23.1469 17.7234 23.0181 17.773C22.6795 17.9144 23.4456 17.637 23.0928 17.7514C22.7941 17.8378 22.5096 17.9511 22.2173 18.0169C21.6469 18.1756 21.0894 18.2933 20.5177 18.384C20.2524 18.4359 19.973 18.4608 19.7142 18.4921C19.333 18.5526 20.1777 18.4575 19.8094 18.477C19.6459 18.4932 19.4618 18.503 19.3047 18.4987C18.7522 18.528 18.2126 18.5163 17.6589 18.4776C17.3511 18.4486 17.0433 18.4196 16.7355 18.3905C16.6054 18.3722 16.4753 18.3539 16.3246 18.3292C16.2422 18.3033 15.7966 18.2086 16.174 18.3044C16.599 18.3927 15.9679 18.2398 15.9267 18.2269C15.803 18.1881 15.6523 18.1633 15.5287 18.1246C15.2608 18.0405 15.007 17.9835 14.7391 17.8994C14.1621 17.7185 13.5709 17.5105 13.0195 17.2476C11.725 16.6841 9.97683 17.7111 9.64026 19.0007C9.22658 20.5363 10.0219 21.7534 11.4131 22.3697L11.3874 22.4517Z" fill="black"/>
</g>
<defs>
<clipPath id="clip0_124_809">
<rect width="33.1749" height="19.9049" fill="white" transform="translate(5.95703) rotate(17.413)"/>
</clipPath>
</defs>
</svg>
