<svg width="154" height="94" viewBox="0 0 154 94" fill="none" xmlns="http://www.w3.org/2000/svg">
<g clip-path="url(#clip0_124_668)">
<path d="M18.1262 75.5036C42.261 75.5036 42.3612 37.9494 18.1262 37.9494C-6.10879 37.9494 -6.10879 75.5036 18.1262 75.5036Z" fill="black"/>
<path d="M135.696 37.8491C159.831 37.8491 159.931 0.29492 135.696 0.29492C111.461 0.29492 111.461 37.8491 135.696 37.8491Z" fill="black"/>
<path d="M55.179 92.6283C80.7159 95.4324 107.454 85.1175 125.18 66.5907C129.687 61.8839 130.287 53.572 125.18 48.8652C120.073 44.1584 112.261 43.7578 107.454 48.8652C105.552 50.8681 103.649 52.6707 101.646 54.3731C101.145 54.7737 100.645 55.1743 100.144 55.5748C98.842 56.6764 101.846 54.3731 100.444 55.3746C99.2426 56.1757 98.141 57.077 96.9393 57.778C94.636 59.2802 92.3326 60.5821 89.9292 61.7838C88.8276 62.3847 87.6259 62.8854 86.5243 63.3861C84.922 64.1873 88.5272 62.585 86.9248 63.1858C86.2238 63.4863 85.4227 63.7867 84.7217 63.987C82.3182 64.8883 79.9147 65.5893 77.4111 66.1902C76.0091 66.4906 74.6071 66.791 73.205 67.0915C72.6042 67.1916 72.0033 67.2918 71.3023 67.3919C70.9017 67.3919 68.7987 67.5922 70.6013 67.492C72.6042 67.2918 69.5998 67.492 69.3995 67.492C68.7987 67.492 68.0977 67.5922 67.4968 67.5922C66.1949 67.5922 64.9932 67.6923 63.6913 67.6923C60.8873 67.6923 57.9831 67.5922 55.179 67.1916C48.6696 66.4906 42.3605 73.5007 42.661 79.7097C42.9614 87.1204 48.1689 91.4266 55.179 92.2278V92.6283Z" fill="black"/>
</g>
<defs>
<clipPath id="clip0_124_668">
<rect width="153.822" height="92.834" fill="white" transform="translate(0 0.294922)"/>
</clipPath>
</defs>
</svg>
