<svg width="55" height="54" viewBox="0 0 55 54" fill="none" xmlns="http://www.w3.org/2000/svg">
<g clip-path="url(#clip0_124_1186)">
<path d="M4.36531 29.3028C-5.45267 -9.75087 54.3073 -2.54794 49.2115 25.7307L4.36531 29.2986V29.3028Z" fill="#37BACC"/>
<path d="M2.48038 29.3028C-7.34179 -9.75087 52.4224 -2.54794 47.3266 25.7307L2.48038 29.3028Z" stroke="#110E00" stroke-width="1.25925" stroke-linecap="round" stroke-linejoin="round"/>
<path d="M26.9019 43.9773C37.582 43.9773 46.2398 37.2081 46.2398 28.8578C46.2398 20.5076 37.582 13.7384 26.9019 13.7384C16.2219 13.7384 7.56396 20.5076 7.56396 28.8578C7.56396 37.2081 16.2219 43.9773 26.9019 43.9773Z" fill="#FFFEF0"/>
<path d="M25.0171 43.9773C35.6972 43.9773 44.3551 37.2081 44.3551 28.8578C44.3551 20.5076 35.6972 13.7384 25.0171 13.7384C14.3371 13.7384 5.6792 20.5076 5.6792 28.8578C5.6792 37.2081 14.3371 43.9773 25.0171 43.9773Z" stroke="#110E00" stroke-width="1.25925" stroke-linecap="round" stroke-linejoin="round"/>
<path d="M14.7042 22.2174C-0.251551 -5.03282 48.406 -7.38763 37.1735 20.3202L14.7042 22.2174Z" fill="#37BACC"/>
<path d="M12.815 22.2174C-2.13652 -5.03282 46.521 -7.38763 35.2843 20.3202L12.815 22.2174Z" stroke="#110E00" stroke-width="1.25925" stroke-linecap="round" stroke-linejoin="round"/>
<path d="M7.56376 28.8579C-0.176451 27.7707 1.4186 39.5405 9.38968 35.2717C8.39067 34.3356 7.55537 32.9043 7.56376 28.8579Z" fill="#FFFEF0"/>
<path d="M5.679 28.8579C-2.06122 27.7707 -0.466161 39.5405 7.50491 35.2717C6.50591 34.3356 5.6706 32.9043 5.679 28.8579Z" stroke="#110E00" stroke-width="1.25925" stroke-linecap="round" stroke-linejoin="round"/>
<path d="M6.17902 36.212C5.13804 36.4638 4.26915 37.0053 3.70249 38.0547C3.45903 39.0831 3.46743 40.0485 4.49582 40.7831C4.89038 42.4411 5.50322 43.6332 6.50223 43.9816C5.15483 44.1662 4.44964 44.8966 4.87359 46.5756C3.11903 48.1077 3.44644 49.1907 5.10026 49.984C6.85062 49.9924 7.95037 49.4047 7.22 47.1423C8.34074 46.6008 8.84444 45.8662 7.56 44.565C9.44888 44.0277 9.7595 43.1714 9.03753 42.1053C11.1825 42.4243 12.0094 41.0895 9.88962 36.0609L6.17482 36.212H6.17902Z" fill="#37BACC"/>
<path d="M4.29425 36.212C3.25327 36.4638 2.38439 37.0053 1.81772 38.0547C1.57427 39.0831 1.58266 40.0485 2.61105 40.7831C3.00562 42.4411 3.61845 43.6332 4.61746 43.9816C3.27006 44.1662 2.56488 44.8966 2.98883 46.5756C1.23427 48.1077 1.56167 49.1907 3.21549 49.984C4.96586 49.9924 6.0656 49.4047 5.33524 47.1423C6.45597 46.6008 6.95967 45.8662 5.67524 44.565C7.56412 44.0277 7.87473 43.1714 7.15276 42.1053C9.29769 42.4243 10.1246 41.0895 8.00485 36.0609L4.29006 36.212H4.29425Z" stroke="#110E00" stroke-width="1.25925" stroke-linecap="round" stroke-linejoin="round"/>
<path d="M2.61084 40.7788C4.28984 40.0443 5.75478 39.0452 6.85453 37.5971" stroke="#110E00" stroke-width="1.25925" stroke-linecap="round" stroke-linejoin="round"/>
<path d="M7.50081 42.9195C6.30032 42.483 5.34749 41.6729 5.84279 38.7178" stroke="#110E00" stroke-width="1.25925" stroke-linecap="round" stroke-linejoin="round"/>
<path d="M2.98877 46.5714L5.33938 47.1423" stroke="#110E00" stroke-width="1.25925" stroke-linecap="round" stroke-linejoin="round"/>
<path d="M2.61106 49.6356L0.743164 52.662" stroke="#110E00" stroke-width="1.25925" stroke-linecap="round" stroke-linejoin="round"/>
<path d="M3.45016 49.9797L3.12695 53.0103" stroke="#110E00" stroke-width="1.25925" stroke-linecap="round" stroke-linejoin="round"/>
<path d="M4.73047 49.7363L5.33911 53.0104" stroke="#110E00" stroke-width="1.25925" stroke-linecap="round" stroke-linejoin="round"/>
<path d="M45.6396 32.6063C55.7095 30.4446 50.1772 22.4231 45.6396 25.1095C46.5841 27.8337 46.2483 30.2515 45.6396 32.6063Z" fill="#FFFEF0"/>
<path d="M45.6396 32.6063C55.7095 30.4446 50.1772 22.4231 45.6396 25.1095C46.5841 27.8337 46.2483 30.2515 45.6396 32.6063Z" stroke="#110E00" stroke-width="1.25925" stroke-linecap="round" stroke-linejoin="round"/>
<path d="M45.6394 32.6062C44.93 34.7176 44.208 36.8457 44.3843 37.7943C45.0811 38.1217 45.7191 38.1973 46.2396 37.7943C46.5292 38.8521 47.1757 39.4985 48.691 39.1291C46.7307 41.3748 48.3132 43.4064 50.0635 42.6928C48.5524 45.6227 51.1549 47.3647 52.624 45.8116C53.9924 44.3131 53.6356 42.3822 51.2976 42.5459C52.5946 41.4252 52.8843 40.2331 49.5179 38.7975C50.4581 37.4837 50.4539 36.1825 48.5021 34.8981C49.3793 35.1079 50.2566 35.3052 50.8779 35.045C51.1843 33.941 51.2388 32.8916 50.9156 31.9262C49.606 31.7247 47.6668 32.1235 45.6352 32.6062H45.6394Z" fill="#37BACC"/>
<path d="M43.7546 32.6062C43.0452 34.7176 42.3232 36.8457 42.4995 37.7943C43.1963 38.1217 43.8343 38.1973 44.3548 37.7943C44.6445 38.8521 45.2909 39.4985 46.8062 39.1291C44.8459 41.3748 46.4284 43.4064 48.1788 42.6928C46.6677 45.6227 49.2701 47.3647 50.7393 45.8116C52.1076 44.3131 51.7509 42.3822 49.4128 42.5459C50.7099 41.4252 50.9995 40.2331 47.6331 38.7975C48.5733 37.4837 48.5691 36.1825 46.6173 34.8981C47.4946 35.1079 48.3719 35.3052 48.9931 35.045C49.2995 33.941 49.3541 32.8916 49.0309 31.9262C47.7212 31.7247 45.782 32.1235 43.7504 32.6062H43.7546Z" stroke="#110E00" stroke-width="1.25925" stroke-linecap="round" stroke-linejoin="round"/>
<path d="M43.7549 32.6063L46.1097 37.425L44.3551 37.7944" stroke="#110E00" stroke-width="1.25925" stroke-linecap="round" stroke-linejoin="round"/>
<path d="M5.46498 20.2026C4.09659 22.9226 3.41239 25.8398 3.38721 28.9502" stroke="#110E00" stroke-width="1.25925" stroke-linecap="round" stroke-linejoin="round"/>
<path d="M14.9764 15.3964C14.8799 17.726 15.3164 19.9046 16.37 21.9152" stroke="#110E00" stroke-width="1.25925" stroke-linecap="round" stroke-linejoin="round"/>
<path d="M21.1135 12.2441C20.8113 15.4048 21.0338 18.3641 22.0244 21.0211" stroke="#110E00" stroke-width="1.25925" stroke-linecap="round" stroke-linejoin="round"/>
<path d="M27.1328 14.0071C28.0731 16.3157 28.3879 18.6243 28.0731 20.9288" stroke="#110E00" stroke-width="1.25925" stroke-linecap="round" stroke-linejoin="round"/>
<path d="M32.1317 14.175C32.3122 16.5508 32.3206 18.7461 31.5356 20.1103" stroke="#110E00" stroke-width="1.25925" stroke-linecap="round" stroke-linejoin="round"/>
<path d="M49.5933 46.3867L50.4579 49.1445" stroke="#110E00" stroke-width="1.25925" stroke-linecap="round" stroke-linejoin="round"/>
<path d="M52.4859 48.5148L50.7397 45.8116" stroke="#110E00" stroke-width="1.25925" stroke-linecap="round" stroke-linejoin="round"/>
<path d="M54.3702 46.3867C53.6357 45.6437 52.7332 45.0519 51.3354 44.9218" stroke="#110E00" stroke-width="1.25925" stroke-linecap="round" stroke-linejoin="round"/>
<path d="M21.7056 30.7971C22.4947 30.7971 23.1621 30.1255 23.1621 29.3406C23.1621 28.5556 22.4947 27.884 21.7056 27.884C20.9164 27.884 20.249 28.5556 20.249 29.3406C20.249 30.1255 20.9164 30.7971 21.7056 30.7971Z" fill="black"/>
<path d="M34.3984 29.5043C35.1876 29.5043 35.855 28.8327 35.855 28.0477C35.855 27.2628 35.1876 26.5912 34.3984 26.5912C33.6093 26.5912 32.9419 27.2628 32.9419 28.0477C32.9419 28.8327 33.6093 29.5043 34.3984 29.5043Z" fill="black"/>
<path d="M25.3908 33.0218C27.5232 33.5549 29.8654 33.3157 31.8088 32.2663C32.258 32.0228 32.4342 31.368 32.1572 30.9357C31.8634 30.4824 31.3051 30.327 30.8266 30.5873C30.7217 30.6419 30.6167 30.6964 30.5118 30.7468C30.4782 30.7636 30.1508 30.9021 30.3355 30.8307C30.1382 30.9105 29.9367 30.9819 29.7352 31.0406C29.5002 31.112 29.2609 31.1707 29.0175 31.2211C28.9251 31.2379 28.8328 31.2547 28.7404 31.2715C28.6775 31.2799 28.6187 31.2925 28.5557 31.3009C28.6607 31.2883 28.6523 31.2883 28.5348 31.3009C28.0646 31.3428 27.5945 31.3638 27.1244 31.3386C27.0321 31.3344 26.9355 31.3261 26.8432 31.3177C26.7802 31.3135 26.7172 31.3051 26.6585 31.2967C26.7634 31.3135 26.755 31.3093 26.6375 31.2967C26.394 31.2547 26.1506 31.2085 25.9071 31.1498C25.416 31.028 24.8326 31.3093 24.7108 31.8298C24.5891 32.3502 24.8619 32.8917 25.3908 33.026V33.0218Z" fill="black"/>
<path d="M45.631 24.568C44.825 21.4577 43.4441 18.956 41.0977 17.47" stroke="#110E00" stroke-width="1.25925" stroke-linecap="round" stroke-linejoin="round"/>
</g>
<defs>
<clipPath id="clip0_124_1186">
<rect width="55" height="53.64" fill="white"/>
</clipPath>
</defs>
</svg>
