<svg width="558" height="213" viewBox="0 0 558 213" fill="none" xmlns="http://www.w3.org/2000/svg">
<mask id="mask0_267_1901" style="mask-type:luminance" maskUnits="userSpaceOnUse" x="0" y="13" width="558" height="200">
<path d="M517.79 13H40.21C18.0026 13 0 31.0026 0 53.21V172.79C0 194.997 18.0026 213 40.21 213H517.79C539.997 213 558 194.997 558 172.79V53.21C558 31.0026 539.997 13 517.79 13Z" fill="white"/>
</mask>
<g mask="url(#mask0_267_1901)">
<mask id="mask1_267_1901" style="mask-type:luminance" maskUnits="userSpaceOnUse" x="-5" y="-30" width="284" height="285">
<path d="M279 -29.01H-5V254.99H279V-29.01Z" fill="white"/>
</mask>
<g mask="url(#mask1_267_1901)">
<path d="M279 -29.01H-5V254.99H279V-29.01Z" fill="#F7E8D7"/>
<path d="M83.7799 122.76C83.6299 124.1 83.4699 125.34 83.2799 126.56V126.58C81.9599 135.66 79.5899 142.95 76.0299 148.84C75.6299 149.51 75.1999 150.17 74.7699 150.81C67.9499 160.82 56.6099 168.59 39.0799 175.23L38.6599 175.39C38.4799 175.46 38.2999 175.52 38.1199 175.59C37.4599 163.61 39.0399 151.38 42.7199 140.03C43.3599 138.08 44.0699 136.11 44.7599 134.19C46.1899 130.23 47.6599 126.13 48.5899 121.91C51.0099 110.81 49.4399 98.73 44.3099 88.56C44.5599 88.36 44.8099 88.16 45.0699 87.93C46.0799 87.05 46.9799 86.09 47.8499 85.15C48.7899 84.14 49.6799 83.19 50.6699 82.36C54.3499 79.29 59.5299 77.76 66.9999 77.54C72.1499 77.38 77.3099 77.79 82.3699 78.73C83.1499 84.11 83.7199 89.17 84.0999 94.02C84.8699 104.36 84.7599 113.77 83.7699 122.77L83.7799 122.76Z" fill="#ABC178"/>
<path d="M238.85 189.13C235.47 191.35 232.41 194 229.75 197C227.07 200.02 224.73 203.42 222.46 206.72C219.05 211.69 215.83 216.39 211.55 219.81C210.13 220.93 208.74 221.83 207.28 222.54C198.15 227.06 187.26 224.56 176.71 222.14C172.05 221.07 166.66 220 161.31 219.83C161.38 219.49 161.43 219.14 161.48 218.81C161.85 216.37 162.07 213.92 162.11 211.5C162.25 202.7 160.09 193.66 156 185.62C158.91 183.47 161.73 181.2 164.48 178.99C172.34 172.65 179.77 166.66 188.65 163.71C190.53 163.09 192.52 162.59 194.59 162.21C195.79 161.99 197 161.82 198.23 161.68C214.77 168.54 226.83 176.29 235.89 185.87C236.89 186.94 237.89 188.05 238.86 189.14L238.85 189.13Z" fill="#ABC178"/>
<path d="M199.49 50.96C199.44 51.17 199.4 51.37 199.34 51.59C198.9 53.31 198.31 55.04 197.74 56.72C197.18 58.37 196.6 60.08 196.14 61.83C195.17 65.48 194.74 69.35 194.86 73.2C193.46 73.64 192.1 74.13 190.76 74.6C188.97 75.24 187.27 75.83 185.56 76.32C179.14 78.15 172.12 78.32 165.25 76.81H165.23C155.37 74.65 146.7 69.33 140.8 61.84C137.83 58.06 135.44 53.75 132.91 49.18C130.78 45.32 128.56 41.33 125.96 37.68C125.53 37.08 125.1 36.52 124.67 35.96C132.17 34.09 139.68 32.06 146.98 30.07C149.14 29.48 151.33 28.89 153.51 28.3C157.01 31.7 160.5 35.1 164 38.51C167.96 42.35 172.06 46.33 177.26 48.8C181.31 50.72 185.98 51.69 191.21 51.69C193.82 51.69 196.56 51.45 199.45 50.96H199.48H199.49Z" fill="#ABC178"/>
<path d="M163.13 169.45C161.83 170.47 160.55 171.52 159.28 172.54C156.32 174.93 153.27 177.39 150.21 179.61C146.05 182.62 142.47 184.77 138.93 186.37C131.99 189.51 124.43 190.91 116.43 192.39C115.5 192.56 114.56 192.73 113.63 192.91C109.45 193.69 105.35 194.56 101.42 195.48C100.74 194.47 100.1 193.42 99.5001 192.34C97.4201 188.54 95.8001 184.4 94.3501 180.49C94.0401 179.63 93.7201 178.77 93.4101 177.91C92.0001 174.04 90.5401 170.03 88.7301 166.2C86.3401 161.14 83.3701 156.38 79.8701 152.02C80.0001 151.81 80.1401 151.61 80.2701 151.39C83.8201 145.51 86.2701 138.44 87.7501 129.87C91.2401 130.58 94.7101 131.29 98.1901 132C104.94 133.38 111.58 134.56 117.92 134.56H118.12C119.24 136.8 120.23 139.15 121.06 141.53C121.32 142.29 121.58 143.07 121.84 143.85C123.53 149 125.44 154.82 130.25 157.94C130.43 158.06 130.61 158.17 130.79 158.28C134.03 160.16 137.68 160.4 141.21 160.63C142.99 160.75 144.66 160.85 146.27 161.15C150.91 162.03 155.12 164.59 159.19 167.06L163.12 169.45H163.13Z" fill="#ABC178"/>
<path d="M60.6498 17.95H37.8198V30.68H60.6498V17.95Z" fill="#E2D1C0"/>
<path d="M57.5497 28H52.3896V38.94H57.5497V28Z" fill="#E2D1C0"/>
<path d="M49.24 53.46H22.04V65.78H49.24V53.46Z" fill="#E2D1C0"/>
<path d="M6.1399 64.13H0.149902V76.46H6.1399V64.13Z" fill="#E2D1C0"/>
<path d="M28.6401 74.19H19.5601V80.82H28.6401V74.19Z" fill="#E2D1C0"/>
<path d="M70.56 50.51H62.71V64.14H70.56V50.51Z" fill="#E2D1C0"/>
<path d="M144.06 11.69H127.13V20.57H144.06V11.69Z" fill="#E2D1C0"/>
<path d="M158.46 6.94H151.29V14.11H158.46V6.94Z" fill="#E2D1C0"/>
<path d="M192.99 27.59H180.4V35.64H192.99V27.59Z" fill="#E2D1C0"/>
<path d="M216.13 23.89H202.5V31.61H216.13V23.89Z" fill="#E2D1C0"/>
<path d="M245.03 17.95H229.54V31.61H245.03V17.95Z" fill="#E2D1C0"/>
<path d="M109.38 55.69H97.4697V67.6H109.38V55.69Z" fill="#E2D1C0"/>
<path d="M114.5 80.83H100.26V113H114.5V80.83Z" fill="#E2D1C0"/>
<path d="M135.6 89.21H110.88V98.15H135.6V89.21Z" fill="#E2D1C0"/>
<path d="M131.82 96.91H127.13V110.03H131.82V96.91Z" fill="#E2D1C0"/>
<path d="M161.44 98.15H152.84V106.75H161.44V98.15Z" fill="#E2D1C0"/>
<path d="M276.03 93.68H263.53V117.59H276.03V93.68Z" fill="#E2D1C0"/>
<path d="M241.73 93.68H227.48V101.02H241.73V93.68Z" fill="#E2D1C0"/>
<path d="M272.25 132.09H263.53V148.11H272.25V132.09Z" fill="#E2D1C0"/>
<path d="M215.85 122.54H193.84V129.61H215.85V122.54Z" fill="#E2D1C0"/>
<path d="M210.03 135.91H200.95V142.89H210.03V135.91Z" fill="#E2D1C0"/>
<path d="M238.37 129.6H227.48V144.04H238.37V129.6Z" fill="#E2D1C0"/>
<path d="M150.08 204.23H137V217.31H150.08V204.23Z" fill="#E2D1C0"/>
<path d="M12.98 102.45H4.29004V122.54H12.98V102.45Z" fill="#E2D1C0"/>
<path d="M37.8197 104.6H20.9097V118.42H37.8197V104.6Z" fill="#E2D1C0"/>
<path d="M34.6099 114.85H28.6499V134.24H34.6099V114.85Z" fill="#E2D1C0"/>
<path d="M31.6299 129.6H15.4399V142.71H31.6299V129.6Z" fill="#E2D1C0"/>
<path d="M12.9796 160.55H1.38965V169.47H12.9796V160.55Z" fill="#E2D1C0"/>
<path d="M27.0296 155.2H8.63965V165.01H27.0296V155.2Z" fill="#E2D1C0"/>
<path d="M22.43 203.12H-2.29004V219.6H22.43V203.12Z" fill="#E2D1C0"/>
<path d="M39.0999 192.3H31.6299V208.2H39.0999V192.3Z" fill="#E2D1C0"/>
<path d="M63.6298 182.57H52.8198V190.15H63.6298V182.57Z" fill="#E2D1C0"/>
<path d="M44.7698 134.19C46.1998 130.23 47.6698 126.14 48.5998 121.91C51.0198 110.81 49.4498 98.73 44.3198 88.56C44.5698 88.36 44.8198 88.16 45.0798 87.94C46.0898 87.06 46.9898 86.09 47.8598 85.15C48.7998 84.14 49.6898 83.19 50.6798 82.36C54.3498 79.29 59.5398 77.75 67.0098 77.53C72.8298 77.36 78.6698 77.89 84.3598 79.11L85.0498 75.88C79.0998 74.6 72.9998 74.05 66.9098 74.22C58.6598 74.46 52.8298 76.24 48.5598 79.82C47.4098 80.78 46.4098 81.85 45.4398 82.89C44.5898 83.81 43.7798 84.67 42.8998 85.44C42.8398 85.5 42.7798 85.54 42.7098 85.59C42.6398 85.47 42.5798 85.36 42.4998 85.24L39.6698 86.94C39.7798 87.13 39.8798 87.3 39.9898 87.48C36.1698 89.66 31.2498 90.71 25.9498 90.41C19.6698 90.06 13.4998 88.05 7.52984 86.11L-8.39016 80.93L-9.41016 84.07L6.50984 89.25C12.6798 91.26 19.0498 93.33 25.7698 93.71C26.4198 93.75 27.0598 93.76 27.6998 93.76C32.8798 93.76 37.6898 92.59 41.5598 90.4C46.2098 99.84 47.5998 110.96 45.3698 121.19C44.4898 125.2 43.0498 129.2 41.6598 133.06C40.9598 135 40.2398 137 39.5898 139C35.4598 151.72 33.8898 165.51 35.0498 178.88L38.3398 178.6C37.2198 165.66 38.7398 152.33 42.7298 140.03C43.3598 138.08 44.0798 136.1 44.7698 134.19ZM97.0098 9.02999C97.4498 7.60999 97.9898 5.98999 98.9598 4.76999C101.56 1.46999 106.72 1.29999 111.91 1.60999C117.7 1.95999 124.1 1.70999 127.65 -2.86001C128.32 -3.73001 128.81 -4.66001 129.27 -5.55001C129.75 -6.47001 130.21 -7.34001 130.8 -8.02001C133.56 -11.15 138.71 -10.21 143.69 -9.29001C144.24 -9.19001 144.78 -9.09001 145.31 -9.00001C148.51 -8.44001 151.77 -8.29001 155.03 -8.49001C156.87 -5.41001 159.72 -1.57001 164.17 0.189987C167.36 1.44999 170.85 1.39999 173.91 1.35999L185.37 1.18999C186.39 1.17999 187.44 1.15999 188.28 1.48999C189.54 1.97999 190.48 3.34999 191.33 4.69999C193.8 8.63999 195.99 12.73 197.84 16.87L200.86 15.52C198.95 11.24 196.68 7.00999 194.13 2.93999C193.03 1.19999 191.67 -0.73001 189.49 -1.59001C188.05 -2.16001 186.54 -2.13001 185.33 -2.12001L173.87 -1.95001C170.97 -1.91001 167.97 -1.87001 165.39 -2.89001C162.9 -3.87001 160.79 -5.77001 158.72 -8.87001C163.75 -9.61001 168.64 -11.24 172.99 -13.65C176.84 -15.78 188.56 -22.24 186.07 -33.26L182.85 -32.53C184.18 -26.66 180.54 -21.58 171.39 -16.54C166.69 -13.94 161.3 -12.31 155.81 -11.85C152.48 -11.56 149.14 -11.69 145.89 -12.26C145.37 -12.35 144.84 -12.45 144.3 -12.55C138.96 -13.53 132.32 -14.75 128.33 -10.2C127.47 -9.22001 126.9 -8.13001 126.35 -7.08001C125.93 -6.27001 125.53 -5.51001 125.04 -4.88001C122.44 -1.54001 117.29 -1.37001 112.11 -1.68001C106.03 -2.04001 99.9098 -1.76001 96.3698 2.72999C95.0498 4.38999 94.3798 6.35999 93.8598 8.06999C92.2898 13.15 91.2698 18.38 90.8298 23.63L94.1198 23.9C94.5398 18.89 95.5098 13.89 97.0098 9.03999V9.02999ZM109.12 213.02C107.07 217.07 104.56 220.99 102.13 224.79C101.09 226.41 100.03 228.08 98.9998 229.76C90.4798 231.35 80.6898 232.89 71.2298 231.82C66.5098 231.28 61.7098 230.09 57.0698 228.93C52.7298 227.85 48.2298 226.73 43.7598 226.14L43.3198 229.42C47.6098 229.99 52.0098 231.09 56.2698 232.15C61.0198 233.33 65.9198 234.55 70.8598 235.11C73.1798 235.37 75.5098 235.49 77.8298 235.49C84.3598 235.49 90.8098 234.58 96.7598 233.53C96.4498 234.07 96.1598 234.6 95.8798 235.1C91.9298 242.38 89.0698 250.28 87.3898 258.57L90.6298 259.23C92.2498 251.26 94.9898 243.68 98.7898 236.68C99.5198 235.34 100.36 233.89 101.44 232.12C102.57 230.26 103.77 228.39 104.92 226.58C107.39 222.72 109.95 218.72 112.07 214.53C115.22 208.33 116.96 202.38 117.26 196.85L113.96 196.67C113.69 201.74 112.06 207.24 109.12 213.03V213.02ZM169.17 169.25L160.92 164.24C156.8 161.74 152.13 158.91 146.89 157.91C145.07 157.57 143.22 157.45 141.43 157.33C138.9 157.17 136.48 157.01 134.33 156.26C135.93 155.22 137.82 154.32 139.99 153.58C142.05 152.87 144.23 152.33 146.34 151.79C148.96 151.13 151.68 150.45 154.28 149.44C159.24 147.54 163.66 144.56 167.95 141.65C169.95 140.29 172.22 138.75 173.87 136.59C175.41 134.56 176.25 132.19 176.88 130.14C178.58 124.48 179.31 118.61 179.05 112.71C179.02 111.89 178.96 111 178.86 110L175.57 110.31C175.66 111.25 175.72 112.08 175.75 112.85C176 118.39 175.32 123.88 173.72 129.18C173.18 130.94 172.47 132.97 171.25 134.58C169.93 136.31 167.98 137.63 166.08 138.92C161.96 141.7 157.71 144.58 153.1 146.34C150.68 147.27 148.18 147.9 145.53 148.57C143.35 149.12 141.11 149.68 138.92 150.43C135.85 151.48 133.25 152.83 131.14 154.45C127.96 151.79 126.45 147.23 125 142.8C124.74 142 124.48 141.21 124.21 140.43C123.11 137.25 121.75 134.17 120.17 131.26L117.27 132.84C118.76 135.59 120.05 138.51 121.09 141.51C121.35 142.27 121.61 143.05 121.87 143.83C123.56 148.97 125.48 154.8 130.28 157.92C130.46 158.04 130.64 158.15 130.82 158.25C134.06 160.14 137.71 160.37 141.23 160.6C143 160.71 144.68 160.82 146.29 161.12C150.93 162 155.14 164.55 159.22 167.02L167.47 172.03L169.18 169.2L169.17 169.25ZM235.59 39.11L235.46 39.13C229.84 39.96 224.68 41 219.69 42.31C217.38 42.91 215.06 43.59 212.82 44.24C209.08 45.33 205.22 46.45 201.39 47.25H200.09L200.06 47.5C199.68 47.57 199.29 47.65 198.91 47.71C190.94 49.04 184.14 48.41 178.69 45.82C173.98 43.58 170.08 39.8 166.31 36.14C162.59 32.51 158.86 28.89 155.14 25.27L152.84 27.64C156.56 31.26 160.29 34.88 164.01 38.5C167.97 42.34 172.07 46.32 177.27 48.79C181.32 50.72 185.99 51.68 191.21 51.68C193.82 51.68 196.57 51.44 199.45 50.96C199.46 50.96 199.47 50.96 199.48 50.96C199.43 51.17 199.39 51.37 199.33 51.59C198.89 53.31 198.3 55.04 197.72 56.72C197.16 58.37 196.58 60.08 196.11 61.82C194.81 66.72 194.48 72.02 195.15 77.12L198.43 76.69C197.81 72.01 198.12 67.16 199.31 62.66C199.74 61.03 200.3 59.38 200.85 57.78C201.44 56.04 202.05 54.25 202.53 52.41C202.73 51.66 202.87 50.95 202.99 50.26C206.63 49.46 210.24 48.42 213.73 47.41C215.95 46.76 218.25 46.09 220.51 45.5C225.2 44.27 230.05 43.29 235.32 42.49C237.78 44.1 239.67 45.67 241.22 47.4C245.4 52.05 247.43 58.38 248.86 63.96C249.19 65.23 249.5 66.51 249.81 67.79C250.93 72.42 252.09 77.21 254.1 81.66L257.11 80.3C255.23 76.13 254.11 71.5 253.02 67.01C252.71 65.71 252.39 64.42 252.06 63.13C250.53 57.17 248.33 50.37 243.68 45.19C242.63 44.02 241.44 42.92 240.08 41.84C254.02 40.13 268.29 40.02 282.87 40.06V36.76C266.76 36.71 251 36.85 235.57 39.11H235.59ZM231.94 231.6C229.48 229.66 226.75 228.14 224.1 226.67C223.01 226.06 221.91 225.45 220.83 224.82C218.9 223.67 217.01 222.4 215.17 221.03C219.07 217.47 222.17 212.96 225.17 208.59C227.37 205.38 229.65 202.06 232.19 199.2C235.07 195.96 238.44 193.17 242.2 190.91L240.5 188.08C236.45 190.51 232.83 193.52 229.72 197.01C227.04 200.02 224.7 203.43 222.44 206.72C219.03 211.69 215.81 216.39 211.52 219.81C210.1 220.93 208.71 221.83 207.26 222.54C198.13 227.06 187.24 224.56 176.69 222.14C171.44 220.93 165.27 219.73 159.27 219.8L159.32 223.1C164.96 223 170.9 224.19 175.97 225.36C182.2 226.79 188.91 228.33 195.46 228.33C200.04 228.33 204.54 227.58 208.73 225.5C210.04 224.86 211.3 224.09 212.55 223.18C214.67 224.81 216.88 226.32 219.14 227.66C220.24 228.31 221.37 228.94 222.49 229.56C225.13 231.03 227.63 232.42 229.88 234.19C237.56 240.26 241.01 249.59 244.65 259.46L247.75 258.32C244.11 248.45 240.34 238.24 231.92 231.6H231.94Z" fill="#FDF9F4"/>
<path d="M240.42 163.04C242.8 163.59 245.27 164.32 247.97 165.26C251.22 166.39 254.52 167.72 257.71 169.01C261.36 170.48 265.13 172 268.98 173.29C273.73 174.87 278.25 175.92 282.42 176.41L283.38 168.2C279.77 167.78 275.8 166.85 271.59 165.44C267.98 164.23 264.33 162.76 260.8 161.33C257.81 160.12 254.72 158.88 251.6 157.77C251.57 154.72 251.85 151.49 252.16 148.14C252.93 139.64 253.72 130.84 249.11 123.51C244.64 116.41 236.68 113.2 228.22 110.28C223.73 108.74 219.24 107.19 214.76 105.63L211.16 104.39L196.86 99.46C188.93 96.72 180.73 93.89 174.2 88.72C173.11 87.86 172.09 86.92 171.15 85.94C176.84 86.33 182.51 85.75 187.84 84.24C189.8 83.68 191.69 83.01 193.52 82.37C196.44 81.34 199.21 80.36 202 79.89C208.22 78.85 214.7 80.32 220.8 81.92L221.2 82.02C222 82.23 222.81 82.45 223.61 82.67C227.69 83.77 231.92 84.9 236.23 85.56C239.04 85.98 241.88 86.19 244.73 86.19C253.07 86.19 261.45 84.39 269 80.93C274.9 78.21 280.29 74.52 285.3 70.96L280.52 64.22C275.63 67.68 270.81 71 265.54 73.42C256.87 77.4 246.9 78.81 237.47 77.39C233.62 76.8 229.8 75.78 225.76 74.69C224.81 74.43 223.86 74.18 222.9 73.93L222.38 73.79C215.56 72.02 208.28 70.46 200.64 71.74C197.14 72.33 193.9 73.47 190.77 74.58C188.98 75.21 187.28 75.81 185.57 76.3C179.15 78.13 172.12 78.3 165.26 76.78H165.25C155.4 74.62 146.72 69.31 140.82 61.81C137.85 58.04 135.46 53.72 132.93 49.16C130.79 45.3 128.58 41.31 125.98 37.66C125.55 37.05 125.12 36.49 124.69 35.94C132.19 34.07 139.7 32.04 147 30.05C156.19 27.55 165.7 24.96 175.11 22.75C210.31 14.51 246.55 11.01 282.85 12.37L282.97 9.06998C246.39 7.69998 209.84 11.23 174.36 19.54C164.89 21.76 155.36 24.36 146.14 26.87C138.34 28.99 130.31 31.17 122.32 33.13C122.23 33.03 122.14 32.93 122.05 32.83C120.03 30.65 117.81 28.77 115.44 27.24C109.72 23.56 103.27 22.05 97.03 20.59C95.04 20.12 93.16 19.68 91.3 19.18C86.88 17.97 82.55 16.32 78.4 14.25C66.72 8.45998 56.49 -0.420019 48.83 -11.44C43.94 -18.47 40.31 -26.07 38.02 -34.05L30.08 -31.77C32.49 -23.38 36.25 -15.37 41.25 -7.93002C35.59 -3.31002 31.77 1.32998 29.41 6.46998C27.45 10.72 26.51 15.3 25.6 19.72C24.81 23.55 24 27.52 22.53 31.11C21.55 33.52 20.24 35.84 18.66 38.02C11.76 47.52 -0.0200195 53.53 -9.52002 57.7L-8.19002 60.73C1.68998 56.39 13.98 50.11 21.34 39.97C23.08 37.58 24.51 35.02 25.6 32.37C27.19 28.49 28.03 24.37 28.85 20.39C29.76 15.95 30.62 11.76 32.43 7.85998C34.56 3.24998 38.01 -0.960018 43.17 -5.20002C51.23 5.87998 61.69 14.91 73.56 21.04C72.53 29.67 74.38 38.99 76.58 48.55C77.96 54.57 79.11 59.98 80.1 65.07C82.17 75.79 83.49 85.26 84.16 94.01C84.93 104.35 84.82 113.75 83.83 122.76C83.69 124.1 83.53 125.34 83.34 126.56V126.58C82.02 135.66 79.65 142.94 76.09 148.84C75.69 149.51 75.26 150.17 74.82 150.81C68.01 160.82 56.66 168.59 39.13 175.23L38.7 175.39C38.18 175.58 37.66 175.78 37.13 175.97C22.17 181.43 6.57998 185.38 -9.22002 187.69L-8.50002 192.6C7.62998 190.24 23.56 186.21 38.82 180.63C39.22 180.49 39.62 180.34 40.02 180.19L40.45 180.03C51.51 175.88 66.97 168.98 76.95 156.28C79.81 160.01 82.28 164.05 84.3 168.33C86.01 171.96 87.43 175.86 88.81 179.63C89.01 180.17 89.2 180.7 89.4 181.24C82.04 186.61 75.77 193.6 70.16 199.86C67.39 202.96 64.56 206.14 62.05 209.57C60.74 210.27 59.45 210.99 58.19 211.72C49.81 216.62 42.53 222.45 36.57 229.06C30.01 236.32 24.9 244.61 19.95 252.65C19.12 254.01 18.28 255.37 17.44 256.72L24.47 261.07C25.32 259.7 26.16 258.33 26.99 256.97C31.74 249.26 36.65 241.29 42.7 234.6C48.1 228.63 54.72 223.33 62.37 218.85C73.16 212.52 86.28 207.58 102.49 203.73C106.56 202.76 110.84 201.85 115.22 201.03C116.14 200.86 117.07 200.68 117.99 200.51C126.12 199.01 134.54 197.45 142.39 193.89C145.92 192.29 149.44 190.26 153.33 187.56C157.03 194.99 158.98 203.32 158.86 211.42C158.82 213.69 158.62 215.99 158.27 218.28C156.41 230.25 150.17 241.61 141.14 249.43C138.08 252.09 134.53 254.56 129.62 257.47L131.3 260.31C136.38 257.3 140.08 254.72 143.3 251.93C152.9 243.6 159.55 231.52 161.53 218.79C161.91 216.36 162.12 213.9 162.16 211.48C162.3 202.68 160.14 193.63 156.05 185.61C158.95 183.46 161.79 181.19 164.53 178.97C172.39 172.63 179.82 166.63 188.7 163.69C190.58 163.07 192.58 162.57 194.64 162.2C195.84 161.98 197.06 161.82 198.28 161.67C214.82 168.53 226.88 176.28 235.94 185.86C237.04 187.02 238.13 188.25 239.18 189.45C241.64 192.23 244.19 195.1 247.17 197.51C256.17 204.77 267.9 207.01 278.24 208.98L282.64 209.82L283.26 206.57L278.86 205.73C268.9 203.83 257.6 201.68 249.24 194.93C246.47 192.7 244.13 190.05 241.65 187.25C240.58 186.04 239.47 184.79 238.33 183.59C230.06 174.84 219.43 167.58 205.39 161.15C208.32 161.05 211.25 161.05 214.14 161.05C222.92 161.05 232.01 161.07 240.48 163.03L240.42 163.04ZM84.92 64.13C83.93 58.98 82.76 53.52 81.37 47.44C79.79 40.55 77.73 31.53 78.3 23.33C81.82 24.87 85.44 26.15 89.12 27.16C91.13 27.71 93.17 28.19 95.14 28.65C100.95 30.01 106.43 31.29 110.96 34.2C112.76 35.36 114.4 36.75 116 38.48C117.08 39.62 118.14 40.93 119.25 42.48C121.58 45.74 123.58 49.36 125.7 53.18C128.28 57.83 130.94 62.64 134.32 66.94C141.4 75.94 151.75 82.3 163.47 84.87C163.63 84.9 163.79 84.93 163.95 84.97C165.87 87.81 168.3 90.42 171.11 92.64C178.3 98.33 186.9 101.3 195.23 104.18L200.61 106.04L160.2 113.46C155.46 114.33 150.1 115.32 145.33 117.77C142.78 119.09 140.5 120.77 138.3 122.39C136.21 123.93 134.23 125.4 132.08 126.52C122.73 131.42 111.19 129.62 99.19 127.17C95.63 126.44 92.06 125.71 88.5 124.99C88.57 124.44 88.64 123.89 88.7 123.31C89.73 114.01 89.84 104.31 89.05 93.65C88.37 84.7 87.02 75.04 84.91 64.14L84.92 64.13ZM68.99 206.13C70.18 204.74 71.4 203.38 72.61 202.02C77.88 196.13 83.79 189.55 90.56 184.45C91.86 187.86 93.33 191.38 95.16 194.72C95.53 195.4 95.93 196.07 96.34 196.73C86.1 199.36 77.04 202.47 68.99 206.12V206.13ZM193.11 154.07C190.67 154.51 188.3 155.11 186.05 155.85C175.74 159.26 167.38 166.01 159.29 172.54C156.33 174.93 153.28 177.39 150.22 179.61C146.07 182.62 142.48 184.76 138.94 186.37C132 189.51 124.45 190.91 116.45 192.39C115.52 192.56 114.58 192.74 113.65 192.91C109.46 193.7 105.37 194.57 101.44 195.48C100.76 194.47 100.11 193.42 99.52 192.34C97.44 188.54 95.82 184.4 94.38 180.49C94.06 179.63 93.75 178.77 93.44 177.92C92.03 174.05 90.56 170.04 88.76 166.2C86.37 161.13 83.39 156.37 79.9 152.02C80.03 151.81 80.17 151.61 80.3 151.39C83.85 145.51 86.3 138.43 87.78 129.87C91.26 130.58 94.74 131.29 98.22 132C104.97 133.38 111.61 134.56 117.95 134.56C123.73 134.56 129.26 133.58 134.41 130.88C136.89 129.58 139.12 127.93 141.27 126.35C143.41 124.77 145.43 123.28 147.63 122.15C151.74 120.03 156.52 119.16 161.13 118.31L210.18 109.3L213.17 110.33C217.66 111.88 222.15 113.43 226.64 114.98C234.23 117.6 241.33 120.42 244.95 126.16C248.67 132.08 247.99 139.67 247.26 147.71C247.01 150.5 246.75 153.35 246.7 156.15C245.21 155.7 243.75 155.32 242.32 154.98C232.93 152.81 223.37 152.8 214.13 152.79C207.62 152.78 200.22 152.77 193.14 154.06L193.11 154.07Z" fill="#FBBE68"/>
<path d="M24.6299 261.93L16.5299 256.92L16.8599 256.39C17.6999 255.03 18.5399 253.68 19.3699 252.32C24.3299 244.27 29.4599 235.94 36.0599 228.64C42.0699 221.99 49.3999 216.12 57.8299 211.18C58.9799 210.5 60.2099 209.82 61.5799 209.08C64.1499 205.58 67.0699 202.32 69.6399 199.43C75.1299 193.31 81.3299 186.38 88.5899 181L88.1599 179.83C86.7899 176.07 85.3699 172.18 83.6699 168.58C81.8099 164.62 79.5199 160.83 76.8799 157.29C66.7399 169.78 51.3699 176.57 40.6099 180.61L40.1699 180.77C39.7699 180.92 39.3699 181.07 38.9699 181.21C23.6699 186.8 7.69986 190.84 -8.47014 193.21L-9.09014 193.3L-9.99014 187.15L-9.37014 187.06C6.38986 184.75 21.9399 180.82 36.8599 175.37C37.3899 175.18 37.8999 174.99 38.4199 174.79L38.8499 174.63C56.2499 168.04 67.4999 160.36 74.2399 150.45C74.6699 149.82 75.0899 149.16 75.4899 148.51C78.9999 142.69 81.3399 135.49 82.6499 126.49C82.8399 125.24 82.9999 124 83.1399 122.69C84.1299 113.72 84.2399 104.36 83.4699 94.06C82.8099 85.33 81.4799 75.88 79.4199 65.19C78.4399 60.1 77.2899 54.71 75.9099 48.69C73.7499 39.26 71.8899 30.08 72.8299 21.39C61.2499 15.33 50.9499 6.46998 42.9999 -4.30002C38.1799 -0.250016 34.9799 3.70998 32.9499 8.11998C31.1799 11.95 30.3199 16.11 29.4199 20.51C28.5999 24.53 27.7399 28.67 26.1299 32.61C25.0299 35.31 23.5699 37.91 21.7999 40.34C14.3499 50.61 1.96986 56.94 -7.98014 61.31L-8.56014 61.56L-10.3901 57.38L-9.81014 57.13C-0.380136 52.99 11.3099 47.04 18.1199 37.65C19.6799 35.51 20.9499 33.23 21.9199 30.87C23.3699 27.33 24.1799 23.4 24.9599 19.6C25.8799 15.13 26.8299 10.51 28.8199 6.19998C31.1899 1.06998 34.8699 -3.48002 40.3999 -8.06002C35.5099 -15.44 31.8299 -23.36 29.4699 -31.6L29.2999 -32.2L38.4499 -34.83L38.6199 -34.23C40.8899 -26.32 44.4999 -18.78 49.3499 -11.81C56.9599 -0.880016 67.0999 7.92998 78.6899 13.67C82.7999 15.72 87.0999 17.36 91.4799 18.56C93.3299 19.06 95.1999 19.5 97.1799 19.97C103.48 21.44 109.97 22.97 115.79 26.7C118.2 28.25 120.47 30.17 122.52 32.39L122.54 32.41C130.25 30.51 138.03 28.41 145.98 26.25C155.21 23.74 164.75 21.14 174.22 18.92C209.77 10.59 246.37 7.05998 283 8.43998L283.63 8.45998L283.46 13.02L282.83 13C246.59 11.65 210.4 15.14 175.26 23.37C165.87 25.57 156.38 28.15 147.2 30.65C139.91 32.63 132.81 34.56 125.78 36.32C126.03 36.66 126.27 36.98 126.5 37.3C129.12 40.98 131.34 44.98 133.49 48.85C136.01 53.4 138.39 57.69 141.32 61.42C147.12 68.79 155.66 74.02 165.35 76.16H165.4C172.17 77.66 179.08 77.5 185.4 75.69C187.1 75.21 188.78 74.61 190.56 73.98C193.71 72.87 196.98 71.71 200.53 71.12C208.39 69.8 215.97 71.48 222.46 73.16L223.06 73.31C223.99 73.55 224.92 73.8 225.85 74.05L225.92 74.07C229.95 75.15 233.75 76.18 237.57 76.76C246.88 78.17 256.72 76.78 265.28 72.84C270.5 70.44 275.29 67.14 280.15 63.7L280.66 63.34L286.17 71.11L285.66 71.47C280.63 75.04 275.21 78.75 269.26 81.49C261.69 84.97 253.21 86.81 244.73 86.81C241.84 86.81 238.95 86.59 236.14 86.17C231.79 85.51 227.55 84.37 223.45 83.26C222.65 83.04 221.84 82.83 221.04 82.62L220.64 82.52C214.6 80.94 208.19 79.48 202.1 80.5C199.35 80.96 196.62 81.93 193.72 82.95C191.88 83.6 189.98 84.27 188 84.84C183.11 86.23 177.99 86.84 172.75 86.65C173.35 87.21 173.96 87.73 174.58 88.23C181.02 93.33 189.17 96.14 197.05 98.87L214.96 105.05C219.45 106.6 223.93 108.15 228.42 109.69C236.99 112.64 245.06 115.9 249.64 123.18C254.37 130.7 253.56 139.6 252.79 148.2C252.51 151.25 252.23 154.4 252.23 157.33C255.11 158.37 257.93 159.49 261.04 160.75C264.57 162.17 268.21 163.64 271.8 164.84C275.97 166.23 279.9 167.15 283.46 167.57L284.08 167.64L282.97 177.09L282.35 177.02C278.14 176.52 273.58 175.46 268.79 173.87C264.94 172.58 261.17 171.06 257.53 169.59C254.3 168.29 251.01 166.96 247.77 165.83C245.09 164.89 242.64 164.17 240.28 163.62C231.88 161.68 222.84 161.67 214.1 161.66C211.97 161.66 209.98 161.66 208.02 161.69C220.85 167.83 230.92 174.86 238.74 183.13C239.88 184.34 240.99 185.59 242.06 186.8C244.53 189.59 246.86 192.22 249.59 194.42C257.83 201.07 269.04 203.2 278.93 205.09L283.95 206.05L283.09 210.53L278.07 209.57C267.65 207.58 255.85 205.33 246.72 197.97C243.7 195.53 241.13 192.64 238.66 189.84C237.61 188.65 236.53 187.43 235.43 186.27C226.43 176.74 214.57 169.12 198.14 162.29C196.81 162.45 195.72 162.61 194.7 162.79C192.66 163.16 190.69 163.65 188.85 164.26C180.08 167.17 172.69 173.12 164.88 179.43C162.06 181.71 159.49 183.76 156.81 185.77C160.84 193.84 162.89 202.71 162.75 211.46C162.71 213.91 162.49 216.4 162.11 218.85C160.11 231.73 153.39 243.95 143.67 252.37C140.42 255.19 136.69 257.79 131.58 260.82L131.04 261.14L128.72 257.22L129.26 256.9C134.13 254.01 137.66 251.56 140.68 248.93C149.59 241.2 155.76 229.99 157.6 218.16C157.95 215.9 158.15 213.63 158.18 211.39C158.3 203.62 156.53 195.72 153.04 188.47C149.34 190.99 146.01 192.9 142.61 194.44C134.69 198.03 126.24 199.59 118.07 201.11L117.98 201.13C117.09 201.3 116.19 201.46 115.3 201.63C110.94 202.45 106.67 203.36 102.6 204.32C86.4499 208.15 73.3899 213.07 62.6599 219.37C55.0599 223.81 48.4999 229.07 43.1399 235C37.1299 241.65 32.2299 249.6 27.4999 257.28C26.6699 258.64 25.8199 260.01 24.9799 261.38L24.6499 261.92L24.6299 261.93ZM18.2599 256.52L24.2199 260.2C24.9599 259.01 25.6899 257.82 26.4099 256.64C31.1699 248.91 36.0999 240.91 42.1899 234.18C47.6399 228.16 54.2999 222.82 62.0099 218.31C72.8499 211.95 86.0299 206.98 102.3 203.12C106.39 202.15 110.68 201.24 115.06 200.41C115.95 200.24 116.85 200.07 117.75 199.91L117.84 199.89C125.94 198.39 134.31 196.84 142.09 193.32C145.61 191.73 149.06 189.73 152.93 187.05L153.53 186.64L153.85 187.29C157.64 194.89 159.57 203.24 159.44 211.44C159.4 213.73 159.2 216.07 158.84 218.38C156.96 230.5 150.64 241.99 141.5 249.91C138.53 252.49 135.1 254.9 130.43 257.69L131.47 259.45C136.24 256.6 139.76 254.12 142.84 251.45C152.33 243.22 158.9 231.28 160.86 218.69C161.23 216.29 161.44 213.86 161.48 211.47C161.62 202.75 159.53 193.91 155.44 185.89L155.2 185.42L155.63 185.1C158.45 183.01 161.13 180.86 164.09 178.48C172 172.1 179.46 166.07 188.45 163.1C190.36 162.47 192.38 161.96 194.47 161.58C195.55 161.38 196.72 161.21 198.15 161.05L198.31 161.03L198.46 161.09C215.14 168.01 227.18 175.74 236.33 185.43C237.44 186.61 238.53 187.84 239.59 189.03C242.04 191.79 244.56 194.64 247.5 197.02C256.38 204.18 268.02 206.41 278.29 208.36L282.08 209.09L282.46 207.08L278.67 206.36C268.63 204.45 257.26 202.28 248.78 195.43C245.97 193.17 243.61 190.5 241.11 187.68C240.03 186.47 238.93 185.22 237.81 184.03C229.62 175.36 218.9 168.07 205.06 161.73L202.64 160.62L205.3 160.53C208.16 160.43 210.96 160.43 214.07 160.43C222.9 160.43 232.01 160.45 240.55 162.42C242.95 162.98 245.44 163.71 248.17 164.66C251.44 165.79 254.74 167.13 257.94 168.42C261.61 169.9 265.36 171.41 269.17 172.69C273.64 174.18 277.91 175.2 281.86 175.71L282.68 168.75C279.2 168.29 275.4 167.38 271.39 166.04C267.77 164.83 264.11 163.35 260.57 161.92C257.32 160.61 254.39 159.44 251.39 158.37L250.98 158.22V157.78C250.94 154.66 251.24 151.32 251.53 148.08C252.29 139.68 253.07 131 248.57 123.84C244.21 116.91 236.36 113.75 228.01 110.87C223.52 109.33 219.03 107.78 214.55 106.22L196.64 100.04C188.66 97.28 180.41 94.43 173.8 89.2C172.72 88.35 171.68 87.4 170.68 86.36L169.55 85.19L171.17 85.3C176.84 85.68 182.38 85.12 187.65 83.62C189.59 83.07 191.48 82.4 193.3 81.76C196.25 80.72 199.03 79.73 201.89 79.26C208.23 78.19 214.78 79.68 220.95 81.3L221.35 81.4C222.16 81.61 222.96 81.83 223.77 82.05C227.84 83.14 232.04 84.28 236.32 84.93C239.07 85.35 241.9 85.56 244.73 85.56C253.03 85.56 261.33 83.76 268.73 80.36C274.39 77.75 279.58 74.24 284.42 70.82L280.37 65.1C275.63 68.45 270.94 71.63 265.81 74C257.03 78.04 246.93 79.46 237.38 78.02C233.49 77.43 229.66 76.4 225.6 75.3L225.53 75.28C224.6 75.03 223.68 74.78 222.75 74.54L222.23 74.4C215.84 72.74 208.39 71.08 200.75 72.36C197.3 72.94 194.09 74.07 190.99 75.17C189.19 75.81 187.49 76.41 185.76 76.9C179.25 78.75 172.13 78.93 165.18 77.4H165.13C155.13 75.2 146.33 69.81 140.34 62.2C137.34 58.39 134.94 54.06 132.4 49.47C130.27 45.62 128.07 41.64 125.48 38.03C125.09 37.49 124.69 36.95 124.21 36.33L123.62 35.57L124.56 35.34C131.88 33.52 139.29 31.52 146.86 29.46C156.08 26.95 165.58 24.36 174.99 22.16C210.03 13.95 246.12 10.44 282.27 11.74L282.35 9.68998C246.04 8.38998 209.77 11.91 174.53 20.17C165.07 22.39 155.55 24.98 146.33 27.49C138.24 29.69 130.34 31.83 122.49 33.75L122.13 33.84L121.61 33.28C119.62 31.13 117.44 29.28 115.12 27.79C109.49 24.17 103.1 22.67 96.9199 21.23C94.9199 20.76 93.0299 20.32 91.1599 19.81C86.6999 18.59 82.3199 16.92 78.1399 14.84C66.3699 8.99998 56.0599 0.049984 48.3299 -11.05C43.5299 -17.96 39.9199 -25.42 37.5999 -33.24L30.8699 -31.31C33.2599 -23.24 36.9199 -15.48 41.7799 -8.25002L42.0999 -7.77002L41.6599 -7.41002C36.0399 -2.83002 32.3399 1.66998 29.9899 6.75998C28.0599 10.94 27.1199 15.48 26.2199 19.88C25.4299 23.75 24.6099 27.74 23.1099 31.38C22.1099 33.83 20.7799 36.2 19.1599 38.42C12.3199 47.85 0.759863 53.86 -8.70014 58.05L-7.88014 59.92C1.82986 55.62 13.6899 49.44 20.8199 39.62C22.5299 37.27 23.9399 34.76 25.0099 32.15C26.5799 28.32 27.4199 24.24 28.2299 20.28C29.1499 15.8 30.0199 11.57 31.8499 7.60998C34.0099 2.92998 37.5699 -1.41002 42.7599 -5.67002L43.2799 -6.09002L43.6699 -5.55002C51.6499 5.41998 62.0799 14.43 73.8499 20.5L74.2399 20.7L74.1899 21.13C73.1599 29.74 75.0199 38.96 77.1999 48.43C78.5799 54.46 79.7399 59.87 80.7199 64.97C82.7899 75.72 84.1199 85.21 84.7899 93.99C85.5699 104.37 85.4599 113.81 84.4599 122.85C84.3199 124.18 84.1599 125.43 83.9699 126.68C82.6399 135.87 80.2399 143.22 76.6399 149.19C76.2299 149.87 75.7999 150.54 75.3499 151.19C68.4599 161.32 57.0199 169.16 39.3699 175.84L38.9399 176C38.4199 176.19 37.8999 176.39 37.3699 176.58C22.5699 181.99 7.14986 185.91 -8.48014 188.24L-7.94014 191.9C7.93986 189.53 23.6099 185.55 38.6399 180.06C39.0399 179.92 39.4299 179.77 39.8299 179.62L40.2599 179.46C51.0499 175.41 66.5499 168.56 76.4799 155.91L76.9799 155.27L77.4699 155.91C80.3699 159.7 82.8699 163.79 84.8799 168.07C86.5999 171.73 88.0299 175.64 89.4099 179.43L90.1599 181.48L89.7799 181.76C82.4599 187.1 76.1799 194.11 70.6399 200.29C68.0499 203.18 65.1199 206.46 62.5699 209.95L62.4899 210.07L62.3599 210.14C60.9499 210.89 59.6999 211.59 58.5199 212.28C50.1899 217.15 42.9699 222.94 37.0399 229.5C30.5199 236.71 25.4199 244.99 20.4899 253C19.7699 254.18 19.0399 255.36 18.3099 256.54L18.2599 256.52ZM66.6599 207.88L68.5199 205.72C69.7599 204.28 71.0399 202.84 72.1499 201.61C77.3999 195.75 83.3499 189.11 90.1899 183.96L90.8599 183.46L91.1599 184.24C92.2499 187.09 93.7499 190.82 95.7299 194.43C96.0599 195.04 96.4399 195.69 96.8899 196.41L97.3399 197.14L96.5099 197.35C86.2299 199.99 77.3199 203.05 69.2699 206.71L66.6799 207.89L66.6599 207.88ZM90.2699 185.47C83.7999 190.48 78.1099 196.83 73.0799 202.45C72.5299 203.06 71.9399 203.73 71.3299 204.42C78.5399 201.33 86.4499 198.67 95.3699 196.35C95.0899 195.89 94.8499 195.45 94.6199 195.04C92.7799 191.69 91.3599 188.25 90.2799 185.48L90.2699 185.47ZM101.15 196.2L100.91 195.84C100.2 194.8 99.5499 193.72 98.9599 192.65C96.8599 188.82 95.2299 184.65 93.7799 180.72C93.4899 179.93 93.1999 179.13 92.8999 178.33L92.8299 178.14C91.4199 174.27 89.9599 170.28 88.1699 166.48C85.8099 161.48 82.8599 156.75 79.3899 152.42L79.1099 152.07L79.3499 151.69C79.4099 151.6 79.4699 151.5 79.5299 151.41C79.5999 151.3 79.6799 151.19 79.7499 151.07C83.2499 145.26 85.6699 138.3 87.1499 129.77L87.2599 129.13L87.8899 129.26C91.3699 129.97 94.8499 130.68 98.3299 131.39C105.81 132.92 112 133.94 117.93 133.94C124.18 133.94 129.47 132.76 134.09 130.33C136.53 129.05 138.73 127.42 140.86 125.85C143.03 124.25 145.07 122.75 147.31 121.59C151.51 119.43 156.33 118.55 160.98 117.69L210.19 108.65L214.7 110.21C218.73 111.6 222.77 113 226.8 114.39C234.5 117.04 241.71 119.91 245.43 125.83C249.27 131.93 248.57 139.62 247.84 147.77C247.6 150.38 247.34 153.34 247.28 156.17L247.26 156.99L246.47 156.75C244.94 156.29 243.52 155.92 242.13 155.59C232.81 153.44 223.29 153.43 214.08 153.42C207.61 153.41 200.26 153.4 193.21 154.68C190.8 155.11 188.46 155.71 186.24 156.44C176.04 159.82 167.72 166.53 159.67 173.02C156.72 175.4 153.66 177.87 150.57 180.11C146.38 183.14 142.76 185.31 139.18 186.93C132.17 190.11 124.58 191.51 116.54 193C115.61 193.17 114.68 193.35 113.74 193.52C109.63 194.29 105.53 195.16 101.56 196.09L101.14 196.19L101.15 196.2ZM80.6599 151.99C84.0699 156.29 86.9799 160.99 89.3099 165.94C91.1299 169.8 92.5899 173.81 94.0099 177.7L94.0799 177.9C94.3699 178.7 94.6599 179.49 94.9499 180.28C96.3799 184.17 97.9999 188.28 100.06 192.04C100.56 192.96 101.12 193.88 101.71 194.77C105.57 193.87 109.54 193.04 113.52 192.29C114.45 192.11 115.39 191.94 116.32 191.77C124.28 190.3 131.79 188.91 138.67 185.79C142.17 184.21 145.72 182.08 149.84 179.1C152.9 176.88 155.95 174.42 158.89 172.05C167.02 165.49 175.43 158.7 185.85 155.25C188.13 154.5 190.53 153.89 192.99 153.45C200.16 152.15 207.55 152.15 214.09 152.17C223.37 152.17 232.96 152.19 242.42 154.37C243.6 154.64 244.79 154.95 246.05 155.32C246.14 152.7 246.38 150.03 246.59 147.65C247.31 139.72 247.98 132.24 244.37 126.49C240.87 120.92 233.87 118.15 226.39 115.57C222.35 114.18 218.32 112.79 214.29 111.39L210.09 109.94L161.2 118.92C156.63 119.76 151.91 120.63 147.87 122.7C145.72 123.81 143.72 125.29 141.61 126.85C139.43 128.46 137.19 130.11 134.66 131.44C129.85 133.96 124.37 135.19 117.91 135.19C111.45 135.19 104.14 133.86 98.0599 132.62C94.7899 131.95 91.5199 131.28 88.2499 130.62C86.7399 139.01 84.2999 145.92 80.7999 151.72C80.7499 151.81 80.6899 151.9 80.6299 151.98L80.6599 151.99ZM117.89 130.23C111.92 130.23 105.56 129.1 99.0699 127.77C95.5099 127.04 91.9399 126.31 88.3799 125.59L87.8099 125.47L87.8799 124.89C87.9499 124.34 88.0099 123.79 88.0799 123.22C89.0999 113.96 89.2199 104.29 88.4199 93.68C87.7399 84.75 86.3899 75.12 84.2899 64.24C83.2999 59.1 82.1399 53.65 80.7399 47.57C79.1899 40.83 77.0799 31.6 77.6499 23.27L77.7099 22.38L78.5299 22.74C82.0199 24.27 85.6399 25.55 89.2599 26.54C91.2399 27.08 93.2599 27.55 95.2099 28.01C101.12 29.39 106.66 30.69 111.27 33.66C113.12 34.85 114.81 36.28 116.44 38.04C117.54 39.2 118.62 40.53 119.74 42.1C122.09 45.39 124.1 49.02 126.22 52.86C128.79 57.5 131.44 62.28 134.79 66.54C141.75 75.38 151.91 81.65 163.42 84.21L164.32 84.4L164.46 84.61C166.37 87.42 168.73 89.96 171.49 92.14C178.59 97.76 187.15 100.72 195.42 103.57L203.06 106.21L160.3 114.07C155.6 114.93 150.28 115.91 145.6 118.32C143.09 119.62 140.84 121.28 138.66 122.89C136.54 124.46 134.54 125.93 132.36 127.07C127.94 129.39 123.05 130.24 117.88 130.24L117.89 130.23ZM89.1999 124.48C92.5699 125.17 95.9499 125.85 99.3199 126.54C111.2 128.97 122.63 130.75 131.79 125.95C133.89 124.85 135.85 123.4 137.92 121.88C140.15 120.23 142.45 118.54 145.05 117.2C149.9 114.71 155.32 113.71 160.09 112.83L198.15 105.84L195.03 104.76C186.66 101.87 178 98.88 170.73 93.12C167.94 90.92 165.54 88.36 163.59 85.52H163.54L163.35 85.48C151.49 82.88 141.01 76.44 133.84 67.33C130.43 62.99 127.75 58.16 125.16 53.49C123.05 49.68 121.06 46.08 118.75 42.85C117.67 41.33 116.62 40.04 115.56 38.92C114 37.23 112.39 35.87 110.63 34.74C106.19 31.89 100.76 30.62 95.0099 29.27C92.9999 28.8 90.9699 28.32 88.9699 27.78C85.5699 26.85 82.1799 25.67 78.8899 24.28C78.5299 32.19 80.5299 40.9 81.9999 47.32C83.3999 53.41 84.5599 58.87 85.5599 64.03C87.6699 74.96 89.0199 84.63 89.7099 93.61C90.5099 104.31 90.3899 114.04 89.3599 123.38C89.3199 123.76 89.2799 124.12 89.2299 124.49L89.1999 124.48ZM164.66 81.38L164.04 80.28L164.66 81.37V81.38Z" fill="#E0CEBD"/>
</g>
<mask id="mask2_267_1901" style="mask-type:luminance" maskUnits="userSpaceOnUse" x="279" y="-29" width="285" height="284">
<path d="M279.01 255L563.01 255V-29L279.01 -29L279.01 255Z" fill="white"/>
</mask>
<g mask="url(#mask2_267_1901)">
<path d="M279.01 255L563.01 255V-29L279.01 -29L279.01 255Z" fill="#F7E8D7"/>
<path d="M474.23 122.76C474.38 124.1 474.54 125.34 474.73 126.56V126.58C476.05 135.66 478.42 142.95 481.98 148.84C482.38 149.51 482.81 150.17 483.24 150.81C490.06 160.82 501.4 168.59 518.93 175.23L519.35 175.39C519.53 175.46 519.71 175.52 519.89 175.59C520.55 163.61 518.97 151.38 515.29 140.03C514.65 138.08 513.94 136.11 513.25 134.19C511.82 130.23 510.35 126.13 509.42 121.91C507 110.81 508.57 98.73 513.7 88.56C513.45 88.36 513.2 88.16 512.94 87.93C511.93 87.05 511.03 86.09 510.16 85.15C509.22 84.14 508.33 83.19 507.34 82.36C503.66 79.29 498.48 77.76 491.01 77.54C485.86 77.38 480.7 77.79 475.64 78.73C474.86 84.11 474.29 89.17 473.91 94.02C473.14 104.36 473.25 113.77 474.24 122.77L474.23 122.76Z" fill="#ABC178"/>
<path d="M319.16 189.13C322.54 191.35 325.6 194 328.26 197C330.94 200.02 333.28 203.42 335.55 206.72C338.96 211.69 342.18 216.39 346.46 219.81C347.88 220.93 349.27 221.83 350.73 222.54C359.86 227.06 370.75 224.56 381.3 222.14C385.96 221.07 391.35 220 396.7 219.83C396.63 219.49 396.58 219.14 396.53 218.81C396.16 216.37 395.94 213.92 395.9 211.5C395.76 202.7 397.92 193.66 402.01 185.62C399.1 183.47 396.28 181.2 393.53 178.99C385.67 172.65 378.24 166.66 369.36 163.71C367.48 163.09 365.49 162.59 363.42 162.21C362.22 161.99 361.01 161.82 359.78 161.68C343.24 168.54 331.18 176.29 322.12 185.87C321.12 186.94 320.12 188.05 319.15 189.14L319.16 189.13Z" fill="#ABC178"/>
<path d="M358.51 50.96C358.56 51.17 358.6 51.37 358.66 51.59C359.1 53.31 359.69 55.04 360.26 56.72C360.82 58.37 361.4 60.08 361.86 61.83C362.83 65.48 363.26 69.35 363.14 73.2C364.54 73.64 365.9 74.13 367.24 74.6C369.03 75.24 370.73 75.83 372.44 76.32C378.86 78.15 385.88 78.32 392.75 76.81H392.77C402.63 74.65 411.3 69.33 417.2 61.84C420.17 58.06 422.56 53.75 425.09 49.18C427.22 45.32 429.44 41.33 432.04 37.68C432.47 37.08 432.9 36.52 433.33 35.96C425.83 34.09 418.32 32.06 411.02 30.07C408.86 29.48 406.67 28.89 404.49 28.3C400.99 31.7 397.5 35.1 394 38.51C390.04 42.35 385.94 46.33 380.74 48.8C376.69 50.72 372.02 51.69 366.79 51.69C364.18 51.69 361.44 51.45 358.55 50.96H358.52H358.51Z" fill="#ABC178"/>
<path d="M394.87 169.45C396.17 170.47 397.45 171.52 398.72 172.54C401.68 174.93 404.73 177.39 407.79 179.61C411.95 182.62 415.53 184.77 419.07 186.37C426.01 189.51 433.57 190.91 441.57 192.39C442.5 192.56 443.44 192.73 444.37 192.91C448.55 193.69 452.65 194.56 456.58 195.48C457.26 194.47 457.9 193.42 458.5 192.34C460.58 188.54 462.2 184.4 463.65 180.49C463.96 179.63 464.28 178.77 464.59 177.91C466 174.04 467.46 170.03 469.27 166.2C471.66 161.14 474.63 156.38 478.13 152.02C478 151.81 477.86 151.61 477.73 151.39C474.18 145.51 471.73 138.44 470.25 129.87C466.76 130.58 463.29 131.29 459.81 132C453.06 133.38 446.42 134.56 440.08 134.56H439.88C438.76 136.8 437.77 139.15 436.94 141.53C436.68 142.29 436.42 143.07 436.16 143.85C434.47 149 432.56 154.82 427.75 157.94C427.57 158.06 427.39 158.17 427.21 158.28C423.97 160.16 420.32 160.4 416.79 160.63C415.01 160.75 413.34 160.85 411.73 161.15C407.09 162.03 402.88 164.59 398.81 167.06L394.88 169.45H394.87Z" fill="#ABC178"/>
<path d="M497.35 30.69L520.18 30.69V17.96L497.35 17.96V30.69Z" fill="#E2D1C0"/>
<path d="M500.46 38.95H505.62V28.01H500.46V38.95Z" fill="#E2D1C0"/>
<path d="M508.77 65.79H535.97V53.47H508.77V65.79Z" fill="#E2D1C0"/>
<path d="M551.87 76.47H557.86V64.14H551.87V76.47Z" fill="#E2D1C0"/>
<path d="M529.36 80.83H538.44V74.2H529.36V80.83Z" fill="#E2D1C0"/>
<path d="M487.44 64.13H495.29V50.5H487.44V64.13Z" fill="#E2D1C0"/>
<path d="M413.94 20.57L430.87 20.57V11.69L413.94 11.69V20.57Z" fill="#E2D1C0"/>
<path d="M399.55 14.12H406.72V6.94999L399.55 6.94999V14.12Z" fill="#E2D1C0"/>
<path d="M365.01 35.63H377.6V27.58H365.01V35.63Z" fill="#E2D1C0"/>
<path d="M341.88 31.61H355.51V23.89H341.88V31.61Z" fill="#E2D1C0"/>
<path d="M312.97 31.62L328.46 31.62V17.96H312.97V31.62Z" fill="#E2D1C0"/>
<path d="M448.63 67.61H460.54V55.7H448.63V67.61Z" fill="#E2D1C0"/>
<path d="M443.5 113H457.74V80.83H443.5V113Z" fill="#E2D1C0"/>
<path d="M422.4 98.15H447.12V89.21H422.4V98.15Z" fill="#E2D1C0"/>
<path d="M426.18 110.03H430.87V96.91H426.18V110.03Z" fill="#E2D1C0"/>
<path d="M396.56 106.75H405.16V98.15H396.56V106.75Z" fill="#E2D1C0"/>
<path d="M281.98 117.59H294.48V93.68H281.98V117.59Z" fill="#E2D1C0"/>
<path d="M316.28 101.02H330.53V93.68H316.28V101.02Z" fill="#E2D1C0"/>
<path d="M285.76 148.12H294.48V132.1H285.76V148.12Z" fill="#E2D1C0"/>
<path d="M342.15 129.6H364.16V122.53H342.15V129.6Z" fill="#E2D1C0"/>
<path d="M347.98 142.88H357.06V135.9H347.98V142.88Z" fill="#E2D1C0"/>
<path d="M319.63 144.05H330.52V129.61H319.63V144.05Z" fill="#E2D1C0"/>
<path d="M407.93 217.31H421.01V204.23H407.93V217.31Z" fill="#E2D1C0"/>
<path d="M545.03 122.53H553.72V102.44H545.03V122.53Z" fill="#E2D1C0"/>
<path d="M520.19 118.42H537.1V104.6H520.19V118.42Z" fill="#E2D1C0"/>
<path d="M523.4 134.25H529.36V114.86H523.4V134.25Z" fill="#E2D1C0"/>
<path d="M526.38 142.72H542.57V129.61H526.38V142.72Z" fill="#E2D1C0"/>
<path d="M545.02 169.47H556.61V160.55H545.02V169.47Z" fill="#E2D1C0"/>
<path d="M530.98 165.01H549.37V155.2H530.98V165.01Z" fill="#E2D1C0"/>
<path d="M535.57 219.6H560.29V203.12H535.57V219.6Z" fill="#E2D1C0"/>
<path d="M518.91 208.21H526.38V192.31H518.91V208.21Z" fill="#E2D1C0"/>
<path d="M494.38 190.14H505.19V182.56H494.38V190.14Z" fill="#E2D1C0"/>
<path d="M515.28 140.03C519.27 152.33 520.79 165.67 519.67 178.6L522.96 178.88C524.11 165.51 522.54 151.72 518.42 139C517.77 137 517.05 135 516.35 133.06C514.96 129.2 513.52 125.21 512.64 121.19C510.41 110.96 511.81 99.84 516.45 90.4C520.32 92.59 525.13 93.76 530.31 93.76C530.95 93.76 531.59 93.74 532.24 93.71C538.96 93.33 545.33 91.26 551.5 89.25L567.42 84.07L566.4 80.93L550.48 86.11C544.51 88.05 538.35 90.06 532.06 90.41C526.76 90.7 521.84 89.66 518.02 87.48C518.12 87.3 518.22 87.13 518.34 86.94L515.51 85.24C515.44 85.36 515.37 85.47 515.3 85.59C515.24 85.54 515.18 85.49 515.11 85.44C514.23 84.67 513.42 83.81 512.57 82.89C511.6 81.85 510.6 80.78 509.45 79.82C505.18 76.25 499.35 74.47 491.1 74.22C485.01 74.04 478.91 74.6 472.96 75.88L473.65 79.11C479.34 77.89 485.18 77.35 491 77.53C498.47 77.75 503.66 79.29 507.33 82.36C508.32 83.19 509.21 84.14 510.15 85.15C511.02 86.09 511.93 87.05 512.93 87.94C513.19 88.17 513.44 88.36 513.69 88.56C508.56 98.73 506.99 110.81 509.41 121.91C510.34 126.14 511.81 130.23 513.24 134.19C513.93 136.1 514.64 138.08 515.28 140.03ZM463.89 23.89L467.18 23.62C466.74 18.37 465.72 13.13 464.15 8.05998C463.62 6.34998 462.95 4.38998 461.64 2.71998C458.1 -1.76002 451.98 -2.05002 445.9 -1.69002C440.72 -1.37002 435.57 -1.54002 432.97 -4.89002C432.48 -5.52002 432.08 -6.28002 431.66 -7.09002C431.11 -8.14002 430.54 -9.23002 429.68 -10.21C425.69 -14.75 419.04 -13.53 413.71 -12.56C413.17 -12.46 412.64 -12.36 412.12 -12.27C408.86 -11.7 405.52 -11.56 402.2 -11.86C396.71 -12.32 391.32 -13.95 386.62 -16.55C377.48 -21.6 373.84 -26.68 375.16 -32.54L371.94 -33.27C369.45 -22.25 381.17 -15.78 385.02 -13.66C389.37 -11.25 394.26 -9.62002 399.29 -8.88002C397.22 -5.78002 395.11 -3.88002 392.62 -2.90002C390.03 -1.88002 387.03 -1.92002 384.14 -1.96002L372.68 -2.13002C371.47 -2.15002 369.96 -2.17002 368.52 -1.60002C366.33 -0.740018 364.98 1.18998 363.88 2.92998C361.33 6.99998 359.06 11.23 357.15 15.51L360.17 16.86C362.02 12.72 364.21 8.61998 366.68 4.68998C367.54 3.33998 368.48 1.96998 369.73 1.47998C370.57 1.14998 371.62 1.16998 372.64 1.17998L384.1 1.34998C387.17 1.38998 390.65 1.43998 393.84 0.179981C398.3 -1.58002 401.15 -5.42002 402.98 -8.50002C406.24 -8.29002 409.5 -8.45002 412.7 -9.01002C413.23 -9.10002 413.77 -9.20002 414.32 -9.30002C419.3 -10.21 424.46 -11.16 427.21 -8.03002C427.81 -7.35002 428.26 -6.48002 428.74 -5.56002C429.21 -4.66002 429.69 -3.73002 430.36 -2.87002C433.91 1.69998 440.31 1.95998 446.1 1.59998C451.29 1.28998 456.45 1.45998 459.05 4.75998C460.01 5.97998 460.56 7.59998 461 9.01998C462.5 13.87 463.47 18.87 463.89 23.88V23.89ZM444.05 196.66L440.75 196.84C441.05 202.37 442.79 208.32 445.94 214.52C448.07 218.71 450.62 222.71 453.09 226.57C454.25 228.38 455.44 230.25 456.57 232.11C457.65 233.88 458.49 235.33 459.22 236.67C463.02 243.66 465.76 251.25 467.38 259.22L470.62 258.56C468.94 250.27 466.08 242.37 462.13 235.09C461.86 234.59 461.56 234.06 461.25 233.52C467.2 234.57 473.65 235.48 480.18 235.48C482.5 235.48 484.83 235.37 487.15 235.1C492.08 234.54 496.99 233.32 501.74 232.14C506 231.08 510.4 229.99 514.69 229.41L514.25 226.13C509.78 226.73 505.29 227.84 500.94 228.92C496.3 230.07 491.5 231.27 486.78 231.81C477.31 232.88 467.52 231.34 459.01 229.75C457.98 228.07 456.92 226.4 455.88 224.78C453.45 220.98 450.94 217.06 448.89 213.01C445.95 207.22 444.32 201.72 444.05 196.65V196.66ZM390.55 172.07L398.8 167.06C402.87 164.59 407.08 162.04 411.73 161.16C413.34 160.86 415.02 160.75 416.79 160.64C420.32 160.41 423.97 160.18 427.2 158.29C427.38 158.19 427.56 158.07 427.74 157.96C432.54 154.85 434.46 149.02 436.15 143.87C436.41 143.09 436.66 142.31 436.93 141.55C437.97 138.54 439.26 135.63 440.75 132.88L437.85 131.3C436.27 134.21 434.91 137.29 433.81 140.47C433.54 141.25 433.28 142.04 433.02 142.84C431.56 147.27 430.06 151.83 426.88 154.49C424.77 152.87 422.16 151.52 419.1 150.47C416.91 149.72 414.67 149.15 412.49 148.61C409.85 147.94 407.35 147.32 404.92 146.38C400.31 144.62 396.06 141.74 391.94 138.96C390.04 137.67 388.09 136.35 386.77 134.62C385.55 133.01 384.83 130.98 384.3 129.22C382.7 123.92 382.02 118.43 382.27 112.89C382.3 112.12 382.36 111.29 382.45 110.35L379.16 110.04C379.06 111.04 379 111.93 378.97 112.75C378.7 118.65 379.43 124.51 381.14 130.18C381.76 132.23 382.61 134.59 384.15 136.63C385.8 138.79 388.07 140.33 390.07 141.69C394.36 144.59 398.78 147.58 403.74 149.48C406.35 150.48 409.06 151.17 411.68 151.83C413.79 152.36 415.97 152.91 418.03 153.62C420.2 154.36 422.09 155.26 423.69 156.3C421.54 157.04 419.12 157.21 416.59 157.37C414.8 157.49 412.94 157.6 411.13 157.95C405.9 158.94 401.23 161.78 397.1 164.28L388.85 169.29L390.56 172.12L390.55 172.07ZM275.1 36.77V40.07C289.7 40.02 303.97 40.14 317.9 41.85C316.54 42.93 315.36 44.03 314.3 45.2C309.65 50.38 307.45 57.18 305.92 63.14C305.59 64.43 305.28 65.72 304.96 67.02C303.88 71.5 302.76 76.14 300.87 80.31L303.88 81.67C305.89 77.22 307.05 72.43 308.17 67.8C308.48 66.52 308.79 65.24 309.12 63.97C310.56 58.39 312.59 52.07 316.76 47.41C318.31 45.68 320.2 44.11 322.66 42.5C327.92 43.3 332.78 44.28 337.47 45.51C339.73 46.1 342.03 46.77 344.25 47.42C347.75 48.44 351.35 49.47 354.99 50.27C355.11 50.96 355.26 51.67 355.45 52.42C355.92 54.26 356.53 56.05 357.13 57.79C357.67 59.39 358.24 61.04 358.67 62.67C359.86 67.16 360.16 72.01 359.55 76.7L362.83 77.13C363.5 72.02 363.17 66.73 361.87 61.83C361.41 60.09 360.83 58.38 360.26 56.73C359.69 55.05 359.1 53.31 358.65 51.6C358.59 51.38 358.55 51.18 358.5 50.97C358.51 50.97 358.52 50.97 358.53 50.97C361.41 51.45 364.16 51.69 366.77 51.69C372 51.69 376.67 50.72 380.71 48.8C385.91 46.32 390.01 42.35 393.97 38.51C397.69 34.88 401.42 31.26 405.14 27.65L402.84 25.28C399.11 28.9 395.39 32.52 391.67 36.15C387.9 39.8 384.01 43.59 379.29 45.83C373.85 48.42 367.04 49.06 359.07 47.72C358.68 47.66 358.3 47.58 357.92 47.51L357.89 47.26H356.59C352.76 46.47 348.9 45.34 345.16 44.25C342.92 43.6 340.6 42.92 338.29 42.32C333.3 41.02 328.15 39.98 322.52 39.14L322.39 39.12C306.95 36.87 291.2 36.72 275.08 36.77H275.1ZM310.24 258.32L313.34 259.46C316.99 249.58 320.43 240.25 328.11 234.19C330.36 232.41 332.86 231.03 335.5 229.56C336.62 228.94 337.75 228.31 338.85 227.66C341.11 226.32 343.32 224.81 345.44 223.18C346.7 224.09 347.96 224.86 349.26 225.5C353.45 227.57 357.95 228.33 362.53 228.33C369.08 228.33 375.79 226.79 382.02 225.36C387.09 224.19 393.03 223 398.67 223.1L398.72 219.8C392.72 219.73 386.55 220.93 381.3 222.14C370.75 224.56 359.86 227.06 350.73 222.54C349.27 221.83 347.88 220.94 346.47 219.81C342.19 216.39 338.96 211.69 335.55 206.72C333.29 203.43 330.95 200.02 328.27 197.01C325.17 193.52 321.54 190.52 317.49 188.08L315.79 190.91C319.55 193.17 322.92 195.96 325.8 199.2C328.35 202.06 330.62 205.38 332.82 208.59C335.82 212.97 338.92 217.47 342.82 221.03C340.99 222.4 339.09 223.67 337.16 224.82C336.08 225.46 334.99 226.06 333.89 226.67C331.25 228.14 328.51 229.66 326.05 231.6C317.64 238.24 313.87 248.45 310.22 258.32H310.24Z" fill="#FDF9F4"/>
<path d="M343.92 161.06C346.81 161.06 349.74 161.06 352.67 161.16C338.63 167.58 328 174.84 319.73 183.6C318.59 184.8 317.49 186.05 316.41 187.26C313.93 190.06 311.59 192.71 308.82 194.94C300.46 201.68 289.17 203.84 279.2 205.74L274.8 206.58L275.42 209.83L279.82 208.99C290.16 207.02 301.89 204.78 310.89 197.52C313.87 195.11 316.42 192.24 318.88 189.46C319.93 188.27 321.03 187.04 322.12 185.87C331.17 176.29 343.23 168.53 359.78 161.68C361 161.82 362.22 161.99 363.42 162.21C365.48 162.58 367.48 163.09 369.36 163.7C378.24 166.64 385.67 172.63 393.53 178.98C396.27 181.19 399.1 183.47 402.01 185.62C397.91 193.64 395.76 202.69 395.9 211.49C395.94 213.91 396.15 216.37 396.53 218.8C398.51 231.54 405.16 243.61 414.76 251.94C417.98 254.73 421.68 257.32 426.76 260.32L428.44 257.48C423.54 254.58 419.98 252.1 416.92 249.44C407.9 241.62 401.65 230.26 399.79 218.29C399.44 216.01 399.24 213.7 399.2 211.43C399.07 203.33 401.02 195 404.73 187.57C408.62 190.27 412.14 192.3 415.67 193.9C423.52 197.46 431.93 199.02 440.07 200.52C440.99 200.69 441.92 200.86 442.84 201.04C447.22 201.86 451.5 202.77 455.57 203.74C471.78 207.58 484.9 212.53 495.69 218.86C503.34 223.34 509.96 228.63 515.36 234.61C521.41 241.3 526.32 249.27 531.07 256.98C531.9 258.34 532.75 259.71 533.59 261.08L540.62 256.73C539.78 255.37 538.94 254.01 538.11 252.66C533.16 244.63 528.05 236.33 521.49 229.07C515.52 222.47 508.25 216.64 499.87 211.73C498.61 210.99 497.32 210.28 496.01 209.58C493.51 206.15 490.68 202.97 487.9 199.87C482.29 193.61 476.02 186.62 468.66 181.25C468.86 180.71 469.05 180.18 469.25 179.64C470.63 175.87 472.05 171.97 473.76 168.34C475.77 164.07 478.24 160.03 481.11 156.29C491.09 168.99 506.55 175.89 517.61 180.04L518.04 180.2C518.44 180.35 518.84 180.5 519.24 180.64C534.5 186.22 550.43 190.24 566.56 192.61L567.28 187.7C551.48 185.39 535.88 181.44 520.93 175.98C520.4 175.79 519.88 175.6 519.36 175.4L518.93 175.24C501.4 168.6 490.05 160.83 483.24 150.82C482.8 150.18 482.38 149.52 481.97 148.85C478.42 142.96 476.05 135.68 474.73 126.59V126.57C474.54 125.35 474.38 124.11 474.24 122.77C473.24 113.77 473.14 104.37 473.91 94.02C474.58 85.26 475.9 75.79 477.97 65.08C478.95 59.99 480.1 54.58 481.49 48.56C483.68 39 485.54 29.68 484.51 21.05C496.39 14.92 506.85 5.88999 514.9 -5.19001C520.05 -0.95001 523.51 3.25999 525.64 7.86999C527.44 11.77 528.3 15.96 529.22 20.4C530.04 24.38 530.88 28.5 532.47 32.38C533.56 35.03 534.99 37.59 536.73 39.98C544.09 50.12 556.38 56.41 566.26 60.74L567.59 57.71C558.09 53.54 546.3 47.53 539.41 38.03C537.82 35.85 536.52 33.53 535.54 31.12C534.07 27.52 533.25 23.56 532.47 19.73C531.56 15.3 530.62 10.72 528.66 6.47999C526.29 1.33999 522.48 -3.30001 516.82 -7.92001C521.81 -15.36 525.58 -23.37 527.99 -31.76L520.05 -34.04C517.76 -26.07 514.12 -18.46 509.24 -11.43C501.57 -0.410009 491.35 8.46999 479.67 14.26C475.52 16.33 471.19 17.98 466.77 19.19C464.91 19.7 463.03 20.14 461.04 20.6C454.81 22.06 448.36 23.57 442.63 27.25C440.26 28.77 438.04 30.65 436.02 32.84C435.93 32.94 435.84 33.04 435.75 33.14C427.75 31.18 419.73 29.01 411.93 26.88C402.71 24.37 393.18 21.77 383.71 19.55C348.23 11.24 311.68 7.70999 275.1 9.07999L275.22 12.38C311.52 11.03 347.76 14.52 382.96 22.76C392.37 24.97 401.88 27.55 411.07 30.06C418.37 32.05 425.88 34.08 433.38 35.95C432.95 36.5 432.52 37.07 432.09 37.67C429.49 41.32 427.28 45.31 425.14 49.17C422.61 53.74 420.22 58.05 417.25 61.82C411.35 69.31 402.67 74.63 392.82 76.79H392.81C385.94 78.3 378.92 78.14 372.5 76.31C370.79 75.82 369.1 75.22 367.3 74.59C364.17 73.48 360.94 72.34 357.43 71.75C349.79 70.47 342.51 72.03 335.69 73.8L335.17 73.94C334.22 74.19 333.27 74.45 332.31 74.7C328.27 75.79 324.45 76.81 320.6 77.4C311.17 78.83 301.2 77.42 292.53 73.43C287.27 71.01 282.44 67.69 277.55 64.23L272.77 70.97C277.78 74.52 283.16 78.22 289.07 80.94C296.61 84.41 304.99 86.2 313.34 86.2C316.19 86.2 319.04 85.99 321.84 85.57C326.15 84.91 330.37 83.78 334.46 82.68C335.27 82.46 336.07 82.25 336.87 82.03L337.27 81.93C343.37 80.33 349.85 78.86 356.07 79.9C358.86 80.37 361.63 81.34 364.55 82.38C366.38 83.03 368.28 83.7 370.23 84.25C375.57 85.77 381.23 86.34 386.92 85.95C385.97 86.93 384.96 87.87 383.87 88.73C377.34 93.89 369.14 96.73 361.21 99.47L346.91 104.4L343.31 105.64C338.82 107.19 334.34 108.74 329.85 110.29C321.39 113.21 313.43 116.41 308.96 123.52C304.35 130.86 305.14 139.65 305.91 148.15C306.21 151.51 306.5 154.73 306.47 157.78C303.35 158.89 300.27 160.13 297.27 161.34C293.74 162.77 290.08 164.24 286.48 165.45C282.27 166.85 278.3 167.78 274.69 168.21L275.65 176.42C279.82 175.93 284.34 174.88 289.09 173.3C292.94 172.01 296.71 170.49 300.36 169.02C303.55 167.73 306.85 166.4 310.1 165.27C312.8 164.32 315.27 163.6 317.65 163.05C326.12 161.09 335.2 161.08 343.99 161.07L343.92 161.06ZM468.95 93.64C468.15 104.29 468.27 113.99 469.3 123.3C469.36 123.88 469.43 124.43 469.5 124.98C465.94 125.7 462.37 126.43 458.81 127.16C446.81 129.61 435.27 131.41 425.92 126.51C423.77 125.38 421.79 123.92 419.7 122.38C417.5 120.76 415.22 119.08 412.67 117.76C407.9 115.31 402.53 114.32 397.8 113.45L357.39 106.03L362.77 104.17C371.09 101.29 379.7 98.32 386.89 92.63C389.69 90.41 392.12 87.8 394.05 84.96C394.21 84.93 394.37 84.9 394.53 84.86C406.25 82.29 416.6 75.93 423.68 66.93C427.06 62.63 429.73 57.82 432.3 53.17C434.42 49.34 436.42 45.73 438.75 42.47C439.85 40.92 440.92 39.62 442 38.47C443.6 36.74 445.24 35.35 447.04 34.19C451.57 31.28 457.05 30 462.86 28.64C464.83 28.18 466.87 27.7 468.88 27.15C472.56 26.15 476.18 24.86 479.7 23.32C480.27 31.53 478.21 40.54 476.63 47.43C475.23 53.51 474.07 58.97 473.08 64.12C470.98 75.03 469.62 84.68 468.94 93.63L468.95 93.64ZM461.67 196.74C462.08 196.08 462.47 195.41 462.85 194.73C464.68 191.39 466.15 187.87 467.45 184.46C474.22 189.56 480.13 196.14 485.4 202.03C486.61 203.38 487.82 204.75 489.02 206.14C480.97 202.49 471.91 199.38 461.67 196.75V196.74ZM343.91 152.8C334.67 152.8 325.11 152.82 315.72 154.99C314.29 155.32 312.84 155.71 311.34 156.16C311.28 153.35 311.03 150.51 310.78 147.72C310.05 139.68 309.37 132.09 313.09 126.17C316.7 120.43 323.81 117.61 331.4 114.99C335.89 113.45 340.38 111.89 344.87 110.34L347.86 109.31L396.91 118.32C401.52 119.17 406.29 120.04 410.41 122.16C412.61 123.3 414.63 124.79 416.77 126.36C418.92 127.95 421.15 129.59 423.63 130.89C428.78 133.59 434.31 134.57 440.09 134.57C446.43 134.57 453.06 133.39 459.82 132.01C463.3 131.3 466.78 130.59 470.26 129.88C471.74 138.44 474.19 145.51 477.74 151.4C477.87 151.61 478.01 151.82 478.14 152.03C474.65 156.38 471.67 161.14 469.28 166.21C467.47 170.04 466.01 174.05 464.6 177.93C464.29 178.79 463.97 179.65 463.66 180.5C462.22 184.41 460.59 188.55 458.52 192.35C457.93 193.43 457.28 194.48 456.6 195.49C452.67 194.57 448.57 193.7 444.39 192.92C443.46 192.74 442.53 192.57 441.59 192.4C433.59 190.92 426.03 189.52 419.1 186.38C415.56 184.78 411.97 182.63 407.82 179.62C404.76 177.4 401.7 174.93 398.75 172.55C390.66 166.02 382.3 159.27 371.99 155.86C369.74 155.12 367.37 154.52 364.93 154.08C357.85 152.79 350.46 152.8 343.94 152.81L343.91 152.8Z" fill="#FBBE68"/>
<path d="M533.05 261.4C532.2 260.03 531.36 258.66 530.53 257.3C525.8 249.62 520.91 241.67 514.89 235.02C509.53 229.09 502.96 223.84 495.37 219.39C484.64 213.09 471.57 208.17 455.43 204.34C451.36 203.37 447.09 202.46 442.73 201.65C441.84 201.48 440.94 201.32 440.05 201.15L439.96 201.13C431.79 199.62 423.34 198.06 415.42 194.46C412.01 192.92 408.68 191.01 404.99 188.49C401.5 195.73 399.73 203.64 399.85 211.41C399.89 213.65 400.08 215.92 400.43 218.18C402.27 230.01 408.44 241.23 417.35 248.95C420.38 251.58 423.9 254.04 428.77 256.92L429.31 257.24L426.99 261.16L426.45 260.84C421.34 257.81 417.61 255.21 414.36 252.39C404.64 243.97 397.92 231.75 395.92 218.87C395.54 216.41 395.33 213.93 395.28 211.48C395.14 202.73 397.2 193.85 401.22 185.79C398.53 183.79 395.97 181.73 393.15 179.45C385.34 173.14 377.95 167.19 369.18 164.28C367.33 163.67 365.36 163.17 363.33 162.81C362.31 162.63 361.22 162.46 359.89 162.31C343.46 169.14 331.6 176.76 322.6 186.29C321.5 187.45 320.42 188.68 319.37 189.86C316.89 192.66 314.33 195.55 311.31 197.99C302.19 205.35 290.38 207.6 279.96 209.59L274.94 210.55L274.08 206.07L279.1 205.11C288.99 203.22 300.2 201.09 308.44 194.44C311.17 192.24 313.49 189.62 315.97 186.82C317.04 185.61 318.15 184.36 319.29 183.15C327.11 174.87 337.18 167.84 350.01 161.71C348.05 161.68 346.06 161.67 343.93 161.68C335.19 161.68 326.14 161.7 317.75 163.64C315.39 164.19 312.94 164.91 310.26 165.85C307.02 166.97 303.73 168.3 300.5 169.61C296.86 171.08 293.09 172.6 289.24 173.89C284.45 175.49 279.89 176.55 275.68 177.04L275.06 177.11L273.95 167.66L274.57 167.59C278.14 167.17 282.06 166.25 286.23 164.86C289.82 163.66 293.46 162.19 296.99 160.77C300.1 159.52 302.92 158.39 305.8 157.35C305.8 154.42 305.52 151.27 305.24 148.22C304.46 139.61 303.66 130.72 308.39 123.2C312.97 115.92 321.04 112.67 329.61 109.71C334.1 108.17 338.59 106.62 343.07 105.07L360.98 98.89C368.86 96.17 377.01 93.35 383.45 88.25C384.07 87.76 384.68 87.23 385.28 86.67C380.04 86.86 374.92 86.25 370.03 84.86C368.05 84.3 366.15 83.62 364.31 82.97C361.41 81.95 358.68 80.98 355.93 80.52C349.84 79.5 343.43 80.96 337.39 82.54L336.99 82.64C336.19 82.85 335.38 83.07 334.58 83.28C330.48 84.38 326.24 85.52 321.89 86.19C319.08 86.62 316.19 86.83 313.3 86.83C304.82 86.83 296.34 84.99 288.77 81.51C282.82 78.77 277.4 75.05 272.37 71.49L271.86 71.13L277.37 63.36L277.88 63.72C282.74 67.17 287.54 70.46 292.75 72.86C301.31 76.8 311.15 78.19 320.46 76.78C324.28 76.2 328.08 75.17 332.11 74.09L332.18 74.07C333.11 73.82 334.04 73.57 334.97 73.33L335.57 73.18C342.06 71.5 349.64 69.82 357.5 71.14C361.06 71.74 364.32 72.89 367.47 74C369.25 74.63 370.93 75.22 372.63 75.71C378.95 77.51 385.87 77.68 392.63 76.19H392.68C402.38 74.05 410.91 68.82 416.71 61.45C419.65 57.72 422.02 53.43 424.54 48.88C426.68 45.01 428.9 41 431.53 37.33C431.76 37.01 432 36.69 432.25 36.35C425.22 34.59 418.11 32.67 410.83 30.68C401.65 28.18 392.16 25.6 382.77 23.4C347.63 15.17 311.44 11.68 275.2 13.03L274.57 13.05L274.4 8.48999L275.03 8.46999C311.66 7.09999 348.26 10.63 383.81 18.95C393.29 21.17 402.83 23.77 412.05 26.28C420 28.45 427.78 30.55 435.49 32.44L435.51 32.42C437.57 30.2 439.83 28.28 442.24 26.73C448.06 22.99 454.55 21.47 460.85 20C462.83 19.54 464.7 19.1 466.55 18.59C470.93 17.39 475.23 15.75 479.34 13.7C490.93 7.95999 501.07 -0.860006 508.68 -11.78C513.53 -18.75 517.14 -26.29 519.41 -34.2L519.58 -34.82L528.73 -32.19L528.56 -31.59C526.2 -23.35 522.52 -15.43 517.63 -8.05001C523.15 -3.47001 526.84 1.06999 529.21 6.20999C531.2 10.52 532.15 15.14 533.07 19.61C533.85 23.41 534.66 27.34 536.11 30.88C537.07 33.24 538.35 35.52 539.91 37.66C546.72 47.04 558.41 53 567.84 57.14L568.42 57.39L566.59 61.57L566.01 61.32C556.06 56.95 543.67 50.62 536.23 40.35C534.46 37.92 533 35.32 531.9 32.62C530.29 28.68 529.44 24.54 528.61 20.52C527.71 16.12 526.85 11.96 525.08 8.12999C523.05 3.71999 519.84 -0.240006 515.03 -4.29001C507.08 6.47999 496.78 15.34 485.2 21.4C486.14 30.09 484.28 39.27 482.12 48.7C480.74 54.71 479.59 60.11 478.61 65.2C476.55 75.9 475.22 85.34 474.56 94.07C473.79 104.37 473.9 113.74 474.89 122.7C475.03 124.01 475.19 125.25 475.38 126.5C476.69 135.5 479.03 142.7 482.54 148.52C482.94 149.18 483.36 149.83 483.79 150.46C490.53 160.37 501.78 168.05 519.18 174.64L519.61 174.8C520.13 174.99 520.64 175.19 521.17 175.38C536.09 180.83 551.64 184.76 567.4 187.07L568.02 187.16L567.12 193.31L566.5 193.22C550.32 190.85 534.36 186.81 519.06 181.22C518.66 181.08 518.26 180.93 517.86 180.78L517.42 180.62C506.67 176.58 491.3 169.79 481.15 157.3C478.51 160.84 476.22 164.63 474.36 168.59C472.66 172.2 471.24 176.08 469.87 179.84L469.44 181.01C476.7 186.39 482.91 193.32 488.39 199.44C490.97 202.32 493.88 205.58 496.45 209.09C497.82 209.82 499.05 210.51 500.2 211.19C508.64 216.13 515.96 222 521.97 228.65C528.57 235.95 533.7 244.28 538.66 252.33C539.49 253.69 540.33 255.04 541.17 256.4L541.5 256.93L533.4 261.94L533.07 261.4H533.05ZM537.56 252.98C532.63 244.98 527.53 236.7 521.01 229.48C515.09 222.93 507.86 217.14 499.53 212.26C498.35 211.57 497.1 210.87 495.69 210.12L495.56 210.05L495.48 209.93C492.93 206.43 490 203.16 487.41 200.27C481.87 194.09 475.59 187.08 468.27 181.74L467.89 181.46L468.64 179.41C470.02 175.63 471.45 171.71 473.17 168.05C475.19 163.77 477.68 159.68 480.58 155.89L481.07 155.25L481.57 155.89C491.51 168.54 507 175.39 517.79 179.44L518.22 179.6C518.62 179.75 519.01 179.89 519.41 180.04C534.44 185.53 550.11 189.52 565.99 191.88L566.53 188.22C550.9 185.89 535.48 181.97 520.68 176.56C520.15 176.37 519.63 176.17 519.11 175.98L518.68 175.82C501.02 169.13 489.59 161.3 482.7 151.17C482.26 150.52 481.82 149.85 481.41 149.17C477.81 143.2 475.42 135.85 474.08 126.66C473.89 125.42 473.73 124.16 473.59 122.83C472.59 113.79 472.48 104.35 473.26 93.97C473.93 85.19 475.26 75.7 477.33 64.95C478.32 59.85 479.47 54.44 480.85 48.41C483.02 38.94 484.89 29.73 483.86 21.11L483.81 20.68L484.2 20.48C495.96 14.41 506.4 5.39999 514.38 -5.57001L514.77 -6.11001L515.29 -5.69001C520.47 -1.43001 524.04 2.91999 526.2 7.58999C528.03 11.55 528.9 15.78 529.82 20.26C530.63 24.21 531.47 28.3 533.04 32.13C534.11 34.74 535.51 37.25 537.23 39.6C544.36 49.43 556.22 55.61 565.93 59.9L566.75 58.03C557.28 53.84 545.73 47.83 538.89 38.4C537.27 36.18 535.95 33.81 534.94 31.36C533.45 27.71 532.63 23.72 531.83 19.86C530.93 15.47 529.99 10.92 528.06 6.73999C525.71 1.64999 522 -2.85001 516.39 -7.43001L515.95 -7.79001L516.27 -8.27001C521.13 -15.5 524.79 -23.26 527.18 -31.33L520.45 -33.26C518.13 -25.44 514.53 -17.98 509.72 -11.07C501.99 0.0299931 491.69 8.98999 479.91 14.82C475.73 16.9 471.35 18.58 466.89 19.79C465.02 20.3 463.14 20.74 461.13 21.21C454.95 22.66 448.56 24.15 442.93 27.77C440.61 29.26 438.43 31.11 436.44 33.26L435.92 33.82L435.56 33.73C427.71 31.81 419.81 29.67 411.72 27.47C402.51 24.96 392.98 22.37 383.52 20.15C348.28 11.9 312.01 8.36999 275.7 9.66999L275.78 11.72C311.93 10.43 348.01 13.93 383.06 22.14C392.47 24.35 401.97 26.93 411.19 29.44C418.76 31.5 426.16 33.5 433.49 35.32L434.43 35.55L433.84 36.31C433.36 36.93 432.95 37.47 432.57 38.01C429.99 41.63 427.79 45.6 425.65 49.45C423.11 54.04 420.71 58.37 417.71 62.18C411.72 69.79 402.92 75.18 392.92 77.37H392.87C385.92 78.91 378.8 78.73 372.29 76.88C370.55 76.39 368.86 75.79 367.06 75.15C363.96 74.05 360.75 72.92 357.3 72.34C349.65 71.06 342.2 72.72 335.82 74.38L335.3 74.52C334.37 74.76 333.45 75.01 332.52 75.26L332.45 75.28C328.39 76.37 324.55 77.4 320.67 78C311.12 79.45 301.02 78.02 292.24 73.98C287.11 71.62 282.41 68.43 277.68 65.08L273.63 70.8C278.47 74.22 283.66 77.74 289.32 80.34C296.73 83.74 305.03 85.54 313.32 85.54C316.15 85.54 318.98 85.33 321.73 84.91C326.01 84.26 330.21 83.13 334.28 82.03C335.09 81.81 335.89 81.6 336.7 81.38L337.1 81.28C343.27 79.66 349.82 78.17 356.16 79.24C359.01 79.72 361.8 80.7 364.75 81.74C366.57 82.38 368.46 83.05 370.4 83.6C375.67 85.1 381.21 85.67 386.88 85.28L388.5 85.17L387.37 86.34C386.38 87.37 385.33 88.33 384.25 89.18C377.64 94.41 369.39 97.26 361.41 100.02L343.5 106.2C339.01 107.75 334.53 109.3 330.04 110.85C321.69 113.73 313.84 116.89 309.48 123.82C304.98 130.98 305.76 139.66 306.52 148.06C306.81 151.3 307.11 154.64 307.08 157.76V158.2L306.66 158.35C303.66 159.42 300.73 160.59 297.48 161.9C293.94 163.33 290.28 164.81 286.66 166.02C282.65 167.36 278.85 168.27 275.37 168.73L276.19 175.69C280.14 175.18 284.41 174.16 288.88 172.67C292.7 171.39 296.44 169.88 300.11 168.4C303.31 167.11 306.61 165.78 309.88 164.64C312.6 163.69 315.09 162.95 317.5 162.4C326.04 160.43 335.15 160.42 343.98 160.41C347.09 160.41 349.89 160.41 352.75 160.51L355.41 160.6L352.99 161.71C339.15 168.04 328.43 175.34 320.24 184.01C319.11 185.2 318.01 186.44 316.94 187.66C314.44 190.48 312.08 193.14 309.27 195.41C300.79 202.26 289.41 204.42 279.38 206.34L275.59 207.06L275.97 209.07L279.76 208.34C290.03 206.38 301.68 204.16 310.55 197C313.49 194.63 316.02 191.78 318.46 189.01C319.51 187.82 320.61 186.59 321.72 185.41C330.88 175.72 342.91 167.98 359.59 161.07L359.74 161.01L359.9 161.03C361.33 161.2 362.5 161.37 363.58 161.56C365.67 161.94 367.7 162.45 369.6 163.08C378.59 166.06 386.06 172.08 393.96 178.46C396.92 180.85 399.6 182.99 402.42 185.08L402.85 185.4L402.61 185.87C398.52 193.88 396.43 202.73 396.57 211.45C396.61 213.84 396.82 216.27 397.19 218.67C399.15 231.26 405.72 243.2 415.21 251.43C418.28 254.1 421.81 256.58 426.58 259.43L427.62 257.67C422.96 254.88 419.53 252.47 416.55 249.89C407.42 241.97 401.1 230.48 399.21 218.36C398.85 216.05 398.65 213.71 398.61 211.42C398.48 203.22 400.41 194.87 404.2 187.27L404.52 186.62L405.12 187.03C408.99 189.72 412.44 191.71 415.96 193.3C423.74 196.83 432.11 198.38 440.21 199.87L440.3 199.89C441.2 200.06 442.09 200.22 442.99 200.39C447.37 201.21 451.66 202.12 455.75 203.1C472.02 206.96 485.2 211.93 496.04 218.29C503.75 222.8 510.42 228.14 515.86 234.16C521.95 240.9 526.87 248.89 531.64 256.62C532.36 257.8 533.1 258.99 533.83 260.18L539.79 256.5C539.06 255.32 538.33 254.14 537.61 252.96L537.56 252.98ZM488.75 206.7C480.69 203.05 471.78 199.98 461.51 197.34L460.68 197.13L461.13 196.4C461.58 195.67 461.96 195.03 462.29 194.42C464.27 190.81 465.77 187.08 466.86 184.23L467.16 183.45L467.83 183.95C474.67 189.11 480.62 195.74 485.87 201.6C486.97 202.83 488.25 204.27 489.5 205.71L491.36 207.87L488.77 206.69L488.75 206.7ZM463.39 195.03C463.16 195.45 462.91 195.88 462.64 196.34C471.56 198.67 479.46 201.32 486.68 204.41C486.07 203.72 485.48 203.05 484.93 202.44C479.89 196.82 474.2 190.47 467.74 185.46C466.67 188.23 465.24 191.67 463.4 195.02L463.39 195.03ZM456.43 196.1C452.46 195.17 448.36 194.31 444.25 193.53C443.32 193.36 442.39 193.18 441.45 193.01C433.41 191.52 425.82 190.12 418.81 186.94C415.23 185.32 411.61 183.15 407.42 180.12C404.33 177.88 401.27 175.41 398.32 173.03C390.27 166.54 381.96 159.82 371.75 156.45C369.53 155.72 367.18 155.13 364.78 154.69C357.73 153.41 350.38 153.42 343.91 153.43C334.7 153.43 325.18 153.45 315.86 155.6C314.47 155.92 313.05 156.3 311.52 156.76L310.73 157L310.71 156.18C310.65 153.35 310.38 150.39 310.15 147.78C309.41 139.64 308.72 131.94 312.56 125.84C316.28 119.93 323.5 117.06 331.19 114.4C335.22 113.01 339.26 111.62 343.29 110.22L347.8 108.66L397.01 117.7C401.67 118.55 406.48 119.44 410.68 121.6C412.92 122.76 414.96 124.26 417.13 125.86C419.26 127.43 421.46 129.06 423.9 130.34C428.53 132.77 433.82 133.95 440.06 133.95C446.3 133.95 452.18 132.93 459.66 131.4C463.14 130.69 466.62 129.98 470.1 129.27L470.73 129.14L470.84 129.78C472.32 138.31 474.74 145.27 478.24 151.08C478.31 151.19 478.38 151.31 478.46 151.42C478.52 151.51 478.58 151.61 478.64 151.7L478.88 152.08L478.6 152.43C475.13 156.75 472.18 161.48 469.82 166.49C468.03 170.29 466.57 174.29 465.16 178.15L465.09 178.34C464.8 179.14 464.51 179.93 464.21 180.73C462.76 184.66 461.13 188.83 459.03 192.66C458.44 193.74 457.79 194.81 457.08 195.85L456.84 196.21L456.42 196.11L456.43 196.1ZM477.18 151.73C473.68 145.93 471.24 139.03 469.73 130.63C466.46 131.29 463.19 131.96 459.92 132.63C453.83 133.87 446.78 135.2 440.07 135.2C433.61 135.2 428.13 133.97 423.32 131.45C420.8 130.12 418.55 128.47 416.37 126.86C414.25 125.3 412.25 123.82 410.11 122.71C406.07 120.64 401.35 119.77 396.78 118.93L347.89 109.95L343.69 111.4C339.65 112.79 335.62 114.19 331.59 115.58C324.11 118.16 317.11 120.93 313.61 126.5C310 132.24 310.68 139.73 311.39 147.66C311.6 150.04 311.85 152.71 311.93 155.33C313.19 154.97 314.39 154.66 315.56 154.38C325.02 152.19 334.61 152.18 343.89 152.18C350.43 152.17 357.83 152.16 364.99 153.46C367.45 153.9 369.86 154.51 372.13 155.26C382.55 158.71 390.96 165.5 399.09 172.06C402.03 174.43 405.07 176.89 408.14 179.11C412.26 182.09 415.81 184.22 419.31 185.8C426.18 188.92 433.7 190.31 441.66 191.78C442.59 191.95 443.53 192.13 444.46 192.3C448.44 193.05 452.41 193.88 456.27 194.78C456.86 193.88 457.42 192.97 457.92 192.05C459.98 188.29 461.59 184.17 463.03 180.29C463.32 179.5 463.61 178.7 463.9 177.91L463.97 177.71C465.39 173.82 466.85 169.81 468.67 165.95C471 161 473.91 156.3 477.32 152C477.26 151.91 477.21 151.83 477.15 151.74L477.18 151.73ZM425.63 127.06C423.44 125.91 421.45 124.44 419.33 122.88C417.15 121.27 414.9 119.61 412.39 118.31C407.7 115.9 402.39 114.92 397.69 114.06L354.93 106.2L362.57 103.56C370.84 100.7 379.4 97.75 386.5 92.13C389.26 89.95 391.62 87.42 393.53 84.6L393.67 84.39L394.57 84.2C406.08 81.64 416.24 75.37 423.2 66.53C426.55 62.27 429.2 57.49 431.77 52.85C433.9 49.01 435.91 45.38 438.25 42.09C439.37 40.52 440.45 39.19 441.55 38.03C443.18 36.27 444.87 34.84 446.72 33.65C451.34 30.68 456.87 29.39 462.78 28C464.73 27.54 466.75 27.07 468.73 26.53C472.36 25.54 475.97 24.26 479.46 22.73L480.28 22.37L480.34 23.26C480.92 31.59 478.8 40.82 477.25 47.56C475.86 53.63 474.69 59.09 473.7 64.23C471.6 75.11 470.25 84.74 469.57 93.67C468.78 104.29 468.89 113.95 469.91 123.21C469.97 123.78 470.04 124.33 470.11 124.88L470.18 125.46L469.61 125.58C466.05 126.3 462.48 127.03 458.92 127.76C452.43 129.09 446.07 130.22 440.1 130.22C434.92 130.22 430.04 129.37 425.62 127.05L425.63 127.06ZM468.68 123.37C467.65 114.03 467.53 104.29 468.33 93.6C469.01 84.62 470.37 74.94 472.48 64.02C473.48 58.86 474.64 53.4 476.04 47.31C477.51 40.89 479.51 32.18 479.15 24.27C475.86 25.67 472.47 26.84 469.07 27.77C467.07 28.32 465.04 28.79 463.03 29.26C457.28 30.61 451.84 31.88 447.41 34.73C445.65 35.86 444.04 37.23 442.48 38.91C441.42 40.03 440.37 41.32 439.29 42.84C436.98 46.07 434.99 49.67 432.88 53.48C430.29 58.15 427.61 62.99 424.2 67.32C417.03 76.43 406.55 82.88 394.69 85.47L394.5 85.51H394.45C392.5 88.35 390.1 90.9 387.31 93.11C380.04 98.86 371.38 101.85 363.01 104.75L359.89 105.83L397.95 112.82C402.73 113.7 408.14 114.69 412.99 117.19C415.59 118.53 417.88 120.23 420.12 121.87C422.19 123.4 424.15 124.84 426.25 125.94C435.41 130.74 446.84 128.96 458.72 126.53C462.09 125.84 465.47 125.15 468.84 124.47C468.8 124.11 468.75 123.74 468.71 123.36L468.68 123.37ZM393.34 81.38L393.96 80.29L393.34 81.39V81.38Z" fill="#E0CEBD"/>
</g>
</g>
<g clip-path="url(#clip0_267_1901)">
<g filter="url(#filter0_d_267_1901)">
<path d="M363 150.748C363 133.214 348.672 119 331.002 119C313.332 119 299 133.214 299 150.748C299 166.779 310.978 180.027 326.542 182.179L331.002 188L335.463 182.179C351.026 180.027 363.005 166.779 363.005 150.748H363Z" fill="#FFFEF0"/>
</g>
<path d="M331.002 177.875C346.104 177.875 358.346 165.73 358.346 150.748C358.346 135.767 346.104 123.622 331.002 123.622C315.901 123.622 303.659 135.767 303.659 150.748C303.659 165.73 315.901 177.875 331.002 177.875Z" fill="#FDF3B4"/>
<g clip-path="url(#clip1_267_1901)">
<path d="M343.142 157.433C349.154 154.719 346.602 163.513 342.449 161.072C342.971 159.848 343.178 158.635 343.142 157.433Z" fill="#FFFEF0"/>
<path d="M319.814 155.787C314.349 155.843 317.472 162.814 320.924 160.438C320.345 159.163 319.984 157.604 319.814 155.787Z" fill="#FFFEF0"/>
<path d="M319.814 155.787C320.546 163.8 324.996 165.097 329.896 165.581C330.642 165.654 331.394 165.687 332.143 165.668C339.852 165.486 343.229 162.557 343.139 157.433L342.762 149.878L330.597 145.794L322.472 147.429L319.811 155.787H319.814Z" fill="#FFFEF0"/>
<path d="M318.137 155.787C318.869 163.8 323.319 165.097 328.219 165.581C328.965 165.654 329.717 165.687 330.466 165.668C338.175 165.486 341.552 162.557 341.462 157.433L341.085 149.878L328.921 145.794L320.795 147.429L318.134 155.787H318.137Z" stroke="#110E00" stroke-width="0.83854" stroke-linecap="round" stroke-linejoin="round"/>
<path d="M326.564 158.224C327.09 158.224 327.534 157.777 327.534 157.254C327.534 156.732 327.09 156.284 326.564 156.284C326.039 156.284 325.594 156.732 325.594 157.254C325.594 157.777 326.039 158.224 326.564 158.224Z" fill="black"/>
<path d="M335.045 158.696C335.57 158.696 336.015 158.249 336.015 157.727C336.015 157.204 335.57 156.757 335.045 156.757C334.519 156.757 334.075 157.204 334.075 157.727C334.075 158.249 334.519 158.696 335.045 158.696Z" fill="black"/>
<path d="M328.546 160.03C329.89 160.6 331.444 160.743 332.839 160.253C333.158 160.142 333.404 159.806 333.292 159.457C333.191 159.141 332.839 158.884 332.495 159.004C332.205 159.107 331.903 159.183 331.598 159.225C331.727 159.208 331.526 159.23 331.52 159.23C331.436 159.239 331.349 159.244 331.266 159.247C331.115 159.253 330.967 159.256 330.816 159.247C330.665 159.239 330.514 159.23 330.363 159.214C330.483 159.228 330.237 159.194 330.215 159.188C330.15 159.177 330.086 159.166 330.025 159.152C329.876 159.121 329.731 159.082 329.586 159.04C329.505 159.015 329.424 158.99 329.343 158.959C329.323 158.951 329.097 158.864 329.2 158.906C328.89 158.775 328.493 158.803 328.314 159.138C328.169 159.415 328.213 159.882 328.546 160.024V160.03Z" fill="black"/>
<path d="M326.939 138.873C319.025 137.943 320.16 143.751 316.096 146.594C316.144 147.058 316.345 147.385 316.745 147.536C316.342 148.763 316.107 149.892 316.096 150.895C316.398 152.816 316.965 154.624 318.925 155.846C320.085 155.871 321.186 155.555 322.164 154.549C322.793 154.68 323.484 154.509 324.286 153.841C330.418 154.646 326.651 144.978 329.943 148.833C335.64 146.068 330.511 154.691 335.718 154.959C337.935 155.574 340.059 155.966 341.962 155.843L343.142 157.433C344.467 156.799 345.747 156.142 345.971 154.901C346.968 154.202 347.737 153.28 347.444 151.306C348.176 151.035 348.114 150.211 347.678 149.126C347.212 139.986 335.198 133.224 328.529 137.99L326.939 138.873Z" fill="#D3DE16"/>
<path d="M325.261 138.873C317.348 137.943 318.483 143.751 314.419 146.594C314.466 147.058 314.668 147.385 315.067 147.536C314.665 148.763 314.43 149.892 314.419 150.895C314.721 152.816 315.288 154.624 317.248 155.846C318.408 155.871 319.509 155.555 320.487 154.549C321.116 154.68 321.806 154.509 322.609 153.841C328.741 154.646 324.973 144.978 328.266 148.833C333.963 146.068 328.833 154.691 334.041 154.959C336.257 155.574 338.382 155.966 340.285 155.843L341.465 157.433C342.79 156.799 344.07 156.142 344.293 154.901C345.291 154.202 346.06 153.28 345.766 151.306C346.499 151.035 346.437 150.211 346.001 149.126C345.534 139.986 333.521 133.224 326.852 137.99L325.261 138.873Z" stroke="#110E00" stroke-width="0.83854" stroke-linecap="round" stroke-linejoin="round"/>
<path d="M320.616 153.693C321.161 153.042 321.463 152.393 321.525 151.742" stroke="#110E00" stroke-width="0.83854" stroke-linecap="round" stroke-linejoin="round"/>
<path d="M322.609 153.841C323.397 152.925 323.984 151.974 323.976 150.926" stroke="#110E00" stroke-width="0.83854" stroke-linecap="round" stroke-linejoin="round"/>
<path d="M334.416 152.382C334.793 153.841 335.453 155.04 336.814 155.599" stroke="#110E00" stroke-width="0.83854" stroke-linecap="round" stroke-linejoin="round"/>
<path d="M337.183 152.382C337.907 154.017 338.799 155.387 340.286 155.843" stroke="#110E00" stroke-width="0.83854" stroke-linecap="round" stroke-linejoin="round"/>
<path d="M316.077 149.651C315.378 151.108 315.383 152.765 315.775 154.529" stroke="#110E00" stroke-width="0.83854" stroke-linecap="round" stroke-linejoin="round"/>
<path d="M317.122 153.193C317.08 154.11 317.103 155.001 317.248 155.843" stroke="#110E00" stroke-width="0.83854" stroke-linecap="round" stroke-linejoin="round"/>
<path d="M342.901 152.715C343.307 154.11 343.463 155.404 342.901 156.413" stroke="#110E00" stroke-width="0.83854" stroke-linecap="round" stroke-linejoin="round"/>
<path d="M343.268 147.793C343.799 149.392 344.447 150.825 345.764 151.306" stroke="#110E00" stroke-width="0.83854" stroke-linecap="round" stroke-linejoin="round"/>
<path d="M318.137 155.787C312.672 155.843 315.794 162.814 319.246 160.438C318.668 159.163 318.307 157.604 318.137 155.787Z" stroke="#110E00" stroke-width="0.83854" stroke-linecap="round" stroke-linejoin="round"/>
<path d="M341.465 157.433C347.477 154.719 344.926 163.513 340.772 161.072C341.295 159.848 341.502 158.635 341.465 157.433Z" stroke="#110E00" stroke-width="0.83854" stroke-linecap="round" stroke-linejoin="round"/>
<path d="M325.497 141.926C323.112 142.166 321.544 143.485 320.619 145.649" stroke="#110E00" stroke-width="0.83854" stroke-linecap="round" stroke-linejoin="round"/>
<path d="M331.034 141.926C333.826 142.812 332.275 144.984 335.998 148.041" stroke="#110E00" stroke-width="0.83854" stroke-linecap="round" stroke-linejoin="round"/>
</g>
</g>
<g clip-path="url(#clip2_267_1901)">
<g filter="url(#filter1_d_267_1901)">
<path d="M121 31.7484C121 14.2143 106.672 0 89.0023 0C71.3325 0 57 14.2143 57 31.7484C57 47.7792 68.9783 61.0271 84.542 63.1792L89.0023 69L93.4625 63.1792C109.026 61.0271 121.005 47.7792 121.005 31.7484H121Z" fill="#FFFEF0"/>
</g>
<path d="M89.0022 58.875C104.104 58.875 116.346 46.73 116.346 31.7484C116.346 16.7668 104.104 4.62177 89.0022 4.62177C73.9008 4.62177 61.6587 16.7668 61.6587 31.7484C61.6587 46.73 73.9008 58.875 89.0022 58.875Z" fill="#FDF3B4"/>
<g clip-path="url(#clip3_267_1901)">
<path d="M75.7778 33.6472C69.53 8.79491 107.559 13.3786 104.316 31.3741L75.7778 33.6446V33.6472Z" fill="#37BACC"/>
<path d="M74.5786 33.6472C68.3282 8.79491 106.36 13.3786 103.117 31.3741L74.5786 33.6472Z" stroke="#110E00" stroke-width="0.801343" stroke-linecap="round" stroke-linejoin="round"/>
<path d="M90.1194 42.9855C96.9158 42.9855 102.425 38.6779 102.425 33.3641C102.425 28.0503 96.9158 23.7426 90.1194 23.7426C83.323 23.7426 77.8135 28.0503 77.8135 33.3641C77.8135 38.6779 83.323 42.9855 90.1194 42.9855Z" fill="#FFFEF0"/>
<path d="M88.9197 42.9855C95.7161 42.9855 101.226 38.6779 101.226 33.3641C101.226 28.0503 95.7161 23.7426 88.9197 23.7426C82.1233 23.7426 76.6138 28.0503 76.6138 33.3641C76.6138 38.6779 82.1233 42.9855 88.9197 42.9855Z" stroke="#110E00" stroke-width="0.801343" stroke-linecap="round" stroke-linejoin="round"/>
<path d="M82.357 29.1384C72.8397 11.7973 103.804 10.2988 96.6557 27.931L82.357 29.1384Z" fill="#37BACC"/>
<path d="M81.1549 29.1384C71.6403 11.7973 102.604 10.2988 95.4536 27.931L81.1549 29.1384Z" stroke="#110E00" stroke-width="0.801343" stroke-linecap="round" stroke-linejoin="round"/>
<path d="M77.8135 33.3642C72.8879 32.6723 73.903 40.1622 78.9755 37.4457C78.3397 36.85 77.8082 35.9391 77.8135 33.3642Z" fill="#FFFEF0"/>
<path d="M76.6138 33.3642C71.6882 32.6723 72.7033 40.1622 77.7758 37.4457C77.14 36.85 76.6085 35.9391 76.6138 33.3642Z" stroke="#110E00" stroke-width="0.801343" stroke-linecap="round" stroke-linejoin="round"/>
<path d="M76.9319 38.0439C76.2695 38.2042 75.7166 38.5488 75.356 39.2165C75.201 39.871 75.2064 40.4853 75.8608 40.9528C76.1119 42.0079 76.5019 42.7665 77.1376 42.9882C76.2802 43.1057 75.8314 43.5705 76.1012 44.639C74.9847 45.6139 75.193 46.3031 76.2454 46.8079C77.3593 46.8133 78.0591 46.4393 77.5944 44.9996C78.3076 44.655 78.6281 44.1875 77.8107 43.3595C79.0127 43.0176 79.2104 42.4727 78.751 41.7942C80.1159 41.9972 80.6421 41.1478 79.2932 37.9478L76.9293 38.0439H76.9319Z" fill="#37BACC"/>
<path d="M75.7327 38.0439C75.0703 38.2042 74.5173 38.5488 74.1567 39.2165C74.0018 39.871 74.0071 40.4853 74.6616 40.9528C74.9127 42.0079 75.3027 42.7665 75.9384 42.9882C75.0809 43.1057 74.6322 43.5705 74.902 44.639C73.7854 45.6139 73.9938 46.3031 75.0462 46.8079C76.1601 46.8133 76.8599 46.4393 76.3952 44.9996C77.1083 44.655 77.4289 44.1875 76.6115 43.3595C77.8135 43.0176 78.0112 42.4727 77.5518 41.7942C78.9167 41.9972 79.4429 41.1478 78.094 37.9478L75.73 38.0439H75.7327Z" stroke="#110E00" stroke-width="0.801343" stroke-linecap="round" stroke-linejoin="round"/>
<path d="M74.6616 40.9501C75.7301 40.4827 76.6623 39.847 77.3621 38.9254" stroke="#110E00" stroke-width="0.801343" stroke-linecap="round" stroke-linejoin="round"/>
<path d="M77.7736 42.3124C77.0096 42.0346 76.4033 41.5191 76.7185 39.6386" stroke="#110E00" stroke-width="0.801343" stroke-linecap="round" stroke-linejoin="round"/>
<path d="M74.9019 44.6364L76.3977 44.9996" stroke="#110E00" stroke-width="0.801343" stroke-linecap="round" stroke-linejoin="round"/>
<path d="M74.6613 46.5862L73.4727 48.5121" stroke="#110E00" stroke-width="0.801343" stroke-linecap="round" stroke-linejoin="round"/>
<path d="M75.1954 46.8053L74.9897 48.7339" stroke="#110E00" stroke-width="0.801343" stroke-linecap="round" stroke-linejoin="round"/>
<path d="M76.0103 46.6504L76.3976 48.7339" stroke="#110E00" stroke-width="0.801343" stroke-linecap="round" stroke-linejoin="round"/>
<path d="M102.043 35.7494C108.452 34.3737 104.931 29.2692 102.043 30.9787C102.644 32.7123 102.431 34.2509 102.043 35.7494Z" fill="#FFFEF0"/>
<path d="M102.043 35.7494C108.452 34.3737 104.931 29.2692 102.043 30.9787C102.644 32.7123 102.431 34.2509 102.043 35.7494Z" stroke="#110E00" stroke-width="0.801343" stroke-linecap="round" stroke-linejoin="round"/>
<path d="M102.043 35.7495C101.592 37.0931 101.132 38.4473 101.245 39.051C101.688 39.2594 102.094 39.3074 102.425 39.051C102.61 39.7241 103.021 40.1355 103.985 39.9004C102.738 41.3295 103.745 42.6223 104.859 42.1682C103.897 44.0327 105.553 45.1412 106.488 44.1529C107.359 43.1993 107.132 41.9706 105.644 42.0747C106.469 41.3615 106.654 40.6029 104.511 39.6894C105.11 38.8533 105.107 38.0253 103.865 37.2079C104.423 37.3415 104.982 37.467 105.377 37.3014C105.572 36.5989 105.607 35.9311 105.401 35.3167C104.568 35.1885 103.333 35.4423 102.041 35.7495H102.043Z" fill="#37BACC"/>
<path d="M100.844 35.7495C100.393 37.0931 99.9332 38.4473 100.045 39.051C100.489 39.2594 100.895 39.3074 101.226 39.051C101.41 39.7241 101.822 40.1355 102.786 39.9004C101.539 41.3295 102.546 42.6223 103.659 42.1682C102.698 44.0327 104.354 45.1412 105.289 44.1529C106.16 43.1993 105.933 41.9706 104.445 42.0747C105.27 41.3615 105.454 40.6029 103.312 39.6894C103.911 38.8533 103.908 38.0253 102.666 37.2079C103.224 37.3415 103.782 37.467 104.178 37.3014C104.373 36.5989 104.407 35.9311 104.202 35.3167C103.368 35.1885 102.134 35.4423 100.841 35.7495H100.844Z" stroke="#110E00" stroke-width="0.801343" stroke-linecap="round" stroke-linejoin="round"/>
<path d="M100.844 35.7494L102.343 38.8159L101.226 39.0509" stroke="#110E00" stroke-width="0.801343" stroke-linecap="round" stroke-linejoin="round"/>
<path d="M76.478 27.8562C75.6072 29.5871 75.1718 31.4435 75.1558 33.4229" stroke="#110E00" stroke-width="0.801343" stroke-linecap="round" stroke-linejoin="round"/>
<path d="M82.5308 24.7978C82.4693 26.2803 82.7471 27.6666 83.4176 28.9461" stroke="#110E00" stroke-width="0.801343" stroke-linecap="round" stroke-linejoin="round"/>
<path d="M86.4357 22.7917C86.2433 24.8031 86.3849 26.6863 87.0153 28.3771" stroke="#110E00" stroke-width="0.801343" stroke-linecap="round" stroke-linejoin="round"/>
<path d="M90.2661 23.9136C90.8644 25.3827 91.0648 26.8518 90.8644 28.3183" stroke="#110E00" stroke-width="0.801343" stroke-linecap="round" stroke-linejoin="round"/>
<path d="M93.4477 24.0204C93.5625 25.5323 93.5679 26.9293 93.0684 27.7974" stroke="#110E00" stroke-width="0.801343" stroke-linecap="round" stroke-linejoin="round"/>
<path d="M104.56 44.5188L105.11 46.2737" stroke="#110E00" stroke-width="0.801343" stroke-linecap="round" stroke-linejoin="round"/>
<path d="M106.4 45.8731L105.289 44.1529" stroke="#110E00" stroke-width="0.801343" stroke-linecap="round" stroke-linejoin="round"/>
<path d="M107.599 44.5188C107.132 44.046 106.557 43.6694 105.668 43.5865" stroke="#110E00" stroke-width="0.801343" stroke-linecap="round" stroke-linejoin="round"/>
<path d="M86.8126 34.5982C87.3148 34.5982 87.7395 34.1708 87.7395 33.6713C87.7395 33.1718 87.3148 32.7444 86.8126 32.7444C86.3105 32.7444 85.8857 33.1718 85.8857 33.6713C85.8857 34.1708 86.3105 34.5982 86.8126 34.5982Z" fill="black"/>
<path d="M94.8898 33.7755C95.392 33.7755 95.8167 33.3481 95.8167 32.8486C95.8167 32.3491 95.392 31.9217 94.8898 31.9217C94.3876 31.9217 93.9629 32.3491 93.9629 32.8486C93.9629 33.3481 94.3876 33.7755 94.8898 33.7755Z" fill="black"/>
<path d="M89.1575 36.0139C90.5145 36.3531 92.005 36.2009 93.2417 35.5331C93.5275 35.3782 93.6397 34.9615 93.4634 34.6864C93.2764 34.3979 92.9212 34.299 92.6167 34.4647C92.5499 34.4994 92.4831 34.5341 92.4163 34.5662C92.395 34.5768 92.1866 34.665 92.3041 34.6196C92.1786 34.6703 92.0504 34.7157 91.9222 34.7531C91.7726 34.7985 91.6203 34.8359 91.4654 34.868C91.4066 34.8787 91.3479 34.8894 91.2891 34.9C91.249 34.9054 91.2116 34.9134 91.1716 34.9187C91.2384 34.9107 91.233 34.9107 91.1582 34.9187C90.859 34.9455 90.5599 34.9588 90.2607 34.9428C90.2019 34.9401 90.1405 34.9348 90.0817 34.9294C90.0417 34.9268 90.0016 34.9214 89.9642 34.9161C90.031 34.9268 90.0257 34.9241 89.9509 34.9161C89.7959 34.8894 89.641 34.86 89.4861 34.8226C89.1736 34.7451 88.8023 34.9241 88.7248 35.2553C88.6473 35.5865 88.821 35.9311 89.1575 36.0166V36.0139Z" fill="black"/>
<path d="M102.038 30.6342C101.525 28.6549 100.646 27.0629 99.1533 26.1173" stroke="#110E00" stroke-width="0.801343" stroke-linecap="round" stroke-linejoin="round"/>
</g>
</g>
<defs>
<filter id="filter0_d_267_1901" x="294" y="119" width="74.0044" height="79" filterUnits="userSpaceOnUse" color-interpolation-filters="sRGB">
<feFlood flood-opacity="0" result="BackgroundImageFix"/>
<feColorMatrix in="SourceAlpha" type="matrix" values="0 0 0 0 0 0 0 0 0 0 0 0 0 0 0 0 0 0 127 0" result="hardAlpha"/>
<feOffset dy="5"/>
<feGaussianBlur stdDeviation="2.5"/>
<feComposite in2="hardAlpha" operator="out"/>
<feColorMatrix type="matrix" values="0 0 0 0 0 0 0 0 0 0 0 0 0 0 0 0 0 0 0.15 0"/>
<feBlend mode="normal" in2="BackgroundImageFix" result="effect1_dropShadow_267_1901"/>
<feBlend mode="normal" in="SourceGraphic" in2="effect1_dropShadow_267_1901" result="shape"/>
</filter>
<filter id="filter1_d_267_1901" x="52" y="0" width="74.0044" height="79" filterUnits="userSpaceOnUse" color-interpolation-filters="sRGB">
<feFlood flood-opacity="0" result="BackgroundImageFix"/>
<feColorMatrix in="SourceAlpha" type="matrix" values="0 0 0 0 0 0 0 0 0 0 0 0 0 0 0 0 0 0 127 0" result="hardAlpha"/>
<feOffset dy="5"/>
<feGaussianBlur stdDeviation="2.5"/>
<feComposite in2="hardAlpha" operator="out"/>
<feColorMatrix type="matrix" values="0 0 0 0 0 0 0 0 0 0 0 0 0 0 0 0 0 0 0.15 0"/>
<feBlend mode="normal" in2="BackgroundImageFix" result="effect1_dropShadow_267_1901"/>
<feBlend mode="normal" in="SourceGraphic" in2="effect1_dropShadow_267_1901" result="shape"/>
</filter>
<clipPath id="clip0_267_1901">
<rect width="70" height="74" fill="white" transform="translate(296 119)"/>
</clipPath>
<clipPath id="clip1_267_1901">
<rect width="34" height="30.0924" fill="white" transform="translate(314 136)"/>
</clipPath>
<clipPath id="clip2_267_1901">
<rect width="70" height="74" fill="white" transform="translate(54)"/>
</clipPath>
<clipPath id="clip3_267_1901">
<rect width="35" height="34.1345" fill="white" transform="translate(73 15)"/>
</clipPath>
</defs>
</svg>
