<svg width="52" height="47" viewBox="0 0 52 47" fill="none" xmlns="http://www.w3.org/2000/svg">
<g clip-path="url(#clip0_124_1257)">
<path d="M44.5699 32.78C53.7653 28.6291 49.8623 42.0779 43.5098 38.346C44.3092 36.4735 44.6255 34.6182 44.5699 32.78Z" fill="#FFFEF0"/>
<path d="M8.89197 30.2621C0.534526 30.3476 5.3096 41.0092 10.5891 37.3755C9.70421 35.4262 9.15274 33.0408 8.89197 30.2621Z" fill="#FFFEF0"/>
<path d="M8.89197 30.2621C10.012 42.5182 16.8177 44.5018 24.3116 45.2413C25.453 45.3525 26.6029 45.4038 27.7486 45.3739C39.5388 45.096 44.7029 40.6159 44.5661 32.78L43.989 21.2249L25.3846 14.9792L12.9574 17.4801L8.8877 30.2621H8.89197Z" fill="#FFFEF0"/>
<path d="M6.32703 30.2621C7.44706 42.5182 14.2527 44.5018 21.7466 45.2413C22.888 45.3525 24.038 45.4038 25.1837 45.3739C36.9739 45.096 42.1379 40.6159 42.0012 32.78L41.424 21.2249L22.8196 14.9792L10.3925 17.4801L6.32275 30.2621H6.32703Z" stroke="#110E00" stroke-width="1.28247" stroke-linecap="round" stroke-linejoin="round"/>
<path d="M19.2158 33.9898C20.0195 33.9898 20.6992 33.3058 20.6992 32.5064C20.6992 31.707 20.0195 31.023 19.2158 31.023C18.4121 31.023 17.7324 31.707 17.7324 32.5064C17.7324 33.3058 18.4121 33.9898 19.2158 33.9898Z" fill="black"/>
<path d="M32.186 34.7123C32.9897 34.7123 33.6694 34.0283 33.6694 33.2289C33.6694 32.4295 32.9897 31.7455 32.186 31.7455C31.3823 31.7455 30.7026 32.4295 30.7026 33.2289C30.7026 34.0283 31.3823 34.7123 32.186 34.7123Z" fill="black"/>
<path d="M22.2465 36.7514C24.3027 37.6235 26.6795 37.8415 28.8127 37.0934C29.3001 36.9224 29.6763 36.4094 29.5053 35.875C29.3514 35.392 28.8127 34.9987 28.2869 35.1825C27.8423 35.3407 27.3806 35.4561 26.9147 35.5202C27.1113 35.4946 26.8035 35.5288 26.795 35.5288C26.6667 35.5416 26.5342 35.5501 26.406 35.5544C26.1751 35.563 25.9485 35.5672 25.7177 35.5544C25.4868 35.5416 25.256 35.5288 25.0252 35.5031C25.209 35.5245 24.8328 35.4732 24.7986 35.4646C24.7003 35.4475 24.6019 35.4304 24.5079 35.4091C24.2813 35.362 24.059 35.3022 23.8367 35.2381C23.7128 35.1996 23.5888 35.1611 23.4648 35.1141C23.4349 35.1013 23.0886 34.9687 23.2468 35.0329C22.7723 34.8319 22.1652 34.8747 21.8916 35.3877C21.6694 35.8109 21.7378 36.5248 22.2465 36.7428V36.7514Z" fill="black"/>
<path d="M19.7884 4.39461C7.68616 2.97107 9.42177 11.8543 3.20605 16.2019C3.27873 16.9115 3.58652 17.4117 4.19783 17.6426C3.58225 19.5192 3.22315 21.2463 3.20605 22.781C3.66774 25.7179 4.53555 28.4837 7.53226 30.3519C9.30635 30.3903 10.9907 29.9073 12.4869 28.3683C13.4487 28.5692 14.5046 28.3085 15.7315 27.2868C25.1107 28.5179 19.3481 13.731 24.384 19.6261C33.0962 15.3982 25.2518 28.5863 33.2159 28.9967C36.6059 29.9372 39.8549 30.5357 42.7661 30.3476L44.5701 32.78C46.5964 31.8096 48.5543 30.805 48.8963 28.9069C50.4224 27.8382 51.598 26.4275 51.1492 23.4094C52.2692 22.9947 52.1751 21.7336 51.5083 20.075C50.7943 6.09603 32.4208 -4.24498 22.2209 3.04374L19.7884 4.39461Z" fill="#D3DE16"/>
<path d="M17.2235 4.39461C5.12122 2.97107 6.85683 11.8543 0.641113 16.2019C0.713787 16.9115 1.02158 17.4117 1.63289 17.6426C1.01731 19.5192 0.658213 21.2463 0.641113 22.781C1.1028 25.7179 1.97061 28.4837 4.96732 30.3519C6.74141 30.3903 8.42572 29.9073 9.92194 28.3683C10.8838 28.5692 11.9397 28.3085 13.1666 27.2868C22.5457 28.5179 16.7832 13.731 21.819 19.6261C30.5313 15.3982 22.6868 28.5863 30.651 28.9967C34.041 29.9372 37.2899 30.5357 40.2011 30.3476L42.0051 32.78C44.0314 31.8096 45.9894 30.805 46.3313 28.9069C47.8575 27.8382 49.0331 26.4275 48.5842 23.4094C49.7043 22.9947 49.6102 21.7336 48.9433 20.075C48.2294 6.09603 29.8558 -4.24498 19.6559 3.04374L17.2235 4.39461Z" stroke="#110E00" stroke-width="1.28247" stroke-linecap="round" stroke-linejoin="round"/>
<path d="M10.1187 27.0602C10.9523 26.0641 11.414 25.0723 11.508 24.0763" stroke="#110E00" stroke-width="1.28247" stroke-linecap="round" stroke-linejoin="round"/>
<path d="M13.167 27.2868C14.3725 25.8846 15.2702 24.4312 15.2574 22.8281" stroke="#110E00" stroke-width="1.28247" stroke-linecap="round" stroke-linejoin="round"/>
<path d="M31.2241 25.0552C31.8012 27.2867 32.8101 29.1207 34.892 29.9757" stroke="#110E00" stroke-width="1.28247" stroke-linecap="round" stroke-linejoin="round"/>
<path d="M35.4561 25.0552C36.5633 27.5561 37.927 29.6508 40.2012 30.3476" stroke="#110E00" stroke-width="1.28247" stroke-linecap="round" stroke-linejoin="round"/>
<path d="M3.17586 20.8787C2.10713 23.1059 2.11568 25.6409 2.71417 28.3384" stroke="#110E00" stroke-width="1.28247" stroke-linecap="round" stroke-linejoin="round"/>
<path d="M4.77489 26.2949C4.71076 27.6971 4.74496 29.0608 4.96726 30.3475" stroke="#110E00" stroke-width="1.28247" stroke-linecap="round" stroke-linejoin="round"/>
<path d="M44.2021 25.564C44.822 27.6971 45.0614 29.6764 44.2021 31.2197" stroke="#110E00" stroke-width="1.28247" stroke-linecap="round" stroke-linejoin="round"/>
<path d="M44.7622 18.0358C45.5744 20.4811 46.5662 22.6741 48.5797 23.4094" stroke="#110E00" stroke-width="1.28247" stroke-linecap="round" stroke-linejoin="round"/>
<path d="M6.32703 30.2621C-2.03042 30.3476 2.74466 41.0092 8.02417 37.3755C7.13927 35.4262 6.5878 33.0408 6.32703 30.2621Z" stroke="#110E00" stroke-width="1.28247" stroke-linecap="round" stroke-linejoin="round"/>
<path d="M42.0055 32.78C51.2008 28.6291 47.2978 42.0779 40.9453 38.346C41.7447 36.4735 42.0611 34.6182 42.0055 32.78Z" stroke="#110E00" stroke-width="1.28247" stroke-linecap="round" stroke-linejoin="round"/>
<path d="M17.5828 9.06281C13.9363 9.43045 11.538 11.4482 10.123 14.757" stroke="#110E00" stroke-width="1.28247" stroke-linecap="round" stroke-linejoin="round"/>
<path d="M26.0513 9.06281C30.3219 10.418 27.9493 13.7396 33.6435 18.4163" stroke="#110E00" stroke-width="1.28247" stroke-linecap="round" stroke-linejoin="round"/>
</g>
<defs>
<clipPath id="clip0_124_1257">
<rect width="52" height="46.0237" fill="white"/>
</clipPath>
</defs>
</svg>
