<svg width="839" height="186" viewBox="0 0 839 186" fill="none" xmlns="http://www.w3.org/2000/svg">
<g clip-path="url(#clip0_117_5122)">
<path d="M111.692 183.116C161.216 183.116 201.363 142.969 201.363 93.4454C201.363 43.9218 161.216 3.77487 111.692 3.77487C62.1682 3.77487 22.0214 43.9218 22.0214 93.4454C22.0214 142.969 62.1682 183.116 111.692 183.116Z" fill="#F9D80D"/>
<path d="M99.2774 183.116C148.801 183.116 188.948 142.969 188.948 93.4454C188.948 43.9218 148.801 3.77487 99.2774 3.77487C49.7538 3.77487 9.60687 43.9218 9.60687 93.4454C9.60687 142.969 49.7538 183.116 99.2774 183.116Z" stroke="#110E00" stroke-width="5.72975" stroke-linecap="round" stroke-linejoin="round"/>
<path d="M130.409 45.4874C135.012 45.4874 135.031 38.3253 130.409 38.3253C125.787 38.3253 125.787 45.4874 130.409 45.4874Z" fill="black"/>
<path d="M153.137 51.6565C157.74 51.6565 157.759 44.4943 153.137 44.4943C148.515 44.4943 148.515 51.6565 153.137 51.6565Z" fill="black"/>
<path d="M132.224 51.179C136.273 54.4832 141.544 55.7819 146.643 54.5596C147.866 54.2731 148.706 52.8215 148.305 51.6183C147.904 50.3578 146.663 49.632 145.364 49.9567C145.115 50.014 144.867 50.0713 144.619 50.1286C144.485 50.1477 144.371 50.1668 144.237 50.1859C144.562 50.1477 144.581 50.1477 144.294 50.1859C143.779 50.2432 143.282 50.2623 142.766 50.2623C142.251 50.2623 141.735 50.2241 141.238 50.1859C140.971 50.1477 140.99 50.1477 141.296 50.1859C141.162 50.1668 141.047 50.1477 140.914 50.1286C140.684 50.0904 140.474 50.0522 140.264 49.9949C139.787 49.8803 139.328 49.7657 138.87 49.6129C138.622 49.5365 138.393 49.441 138.144 49.3455C138.698 49.5556 137.934 49.25 137.839 49.1927C137.38 48.9635 136.922 48.7152 136.502 48.4478C136.292 48.3141 136.082 48.1613 135.871 48.0277C135.776 47.9513 135.661 47.8749 135.566 47.7985C135.795 47.9704 135.814 47.9895 135.604 47.7985C134.63 47.0154 133.159 46.7862 132.224 47.7985C131.421 48.677 131.192 50.3387 132.224 51.179Z" fill="black"/>
<path d="M164.845 102.556C166.201 110.768 168.417 118.561 171.396 126.029C173.23 130.593 177.699 133.554 182.607 133.363C187.516 133.172 192.692 132.79 198.593 131.816C199.414 141.423 211.084 146.35 211.581 131.3C222.754 140.047 224.969 131.319 215.248 123.966C213.147 122.381 210.549 121.559 207.914 121.502C202.451 121.388 196.893 121.502 191.164 122.075C186.561 122.553 182.283 119.707 180.774 115.333C179.475 111.571 178.424 107.197 177.489 102.556" stroke="#110E00" stroke-width="5.72975" stroke-linecap="round" stroke-linejoin="round"/>
<path d="M41.1778 103.32C32.9652 104.676 25.1727 106.891 17.705 109.871C13.1403 111.704 10.1799 116.173 10.3709 121.082C10.5619 125.99 10.9439 131.166 11.9179 137.068C2.31105 137.889 -2.61654 149.559 12.4336 150.055C3.68619 161.228 12.4145 163.444 19.7677 153.722C21.3529 151.621 22.1742 149.024 22.2315 146.388C22.3461 140.926 22.2315 135.368 21.6585 129.638C21.181 125.035 24.0268 120.757 28.4005 119.248C32.163 117.95 36.5367 116.899 41.1778 115.963" stroke="#110E00" stroke-width="5.72975" stroke-linecap="round" stroke-linejoin="round"/>
<path d="M313.36 49.4791C158.676 -36.2952 231.673 202.845 363.877 178.208C379.252 175.343 392.278 165.125 398.752 150.896C451.008 35.9569 356.142 -47.3918 313.36 49.4791Z" fill="#37BACC"/>
<path d="M300.048 49.4791C145.364 -36.2952 218.361 202.845 350.565 178.208C365.94 175.343 378.965 165.125 385.44 150.896C437.695 35.9569 342.83 -47.3918 300.048 49.4791Z" stroke="#110E00" stroke-width="5.72975" stroke-linecap="round" stroke-linejoin="round"/>
<path d="M357.766 42.4125C362.368 42.4125 362.388 35.2503 357.766 35.2503C353.144 35.2503 353.144 42.4125 357.766 42.4125Z" fill="black"/>
<path d="M381.066 45.7166C385.669 45.7166 385.688 38.5544 381.066 38.5544C376.444 38.5544 376.444 45.7166 381.066 45.7166Z" fill="black"/>
<path d="M374.477 51.0071C374.191 51.0453 374.363 51.0071 374.554 51.0071C374.42 51.0071 374.305 51.0262 374.172 51.0453C373.885 51.0644 373.58 51.0835 373.293 51.0835C372.758 51.0835 372.224 51.0644 371.689 51.0071C371.631 51.0071 371.192 50.9498 371.498 51.0071C371.822 51.0453 371.269 50.9689 371.192 50.9689C370.925 50.9307 370.638 50.8734 370.371 50.8161C369.779 50.6824 369.206 50.5487 368.633 50.3577C368.098 50.1859 367.563 49.9949 367.048 49.8039C367.009 49.8039 366.608 49.6129 366.857 49.7275C367.105 49.8421 366.704 49.6511 366.666 49.632C366.379 49.4983 366.112 49.3646 365.825 49.2309C365.348 48.9826 364.889 48.7152 364.431 48.4287C364.183 48.2759 363.954 48.104 363.705 47.9512C363.61 47.8749 363.495 47.7985 363.4 47.7221C363.113 47.512 363.839 48.0658 363.381 47.703C362.196 46.748 360.478 46.748 359.637 48.1804C358.014 50.9498 357.116 54.0248 357.594 57.2334C357.937 59.5253 359.217 61.7408 361.031 63.1733C364.909 66.2673 370.715 66.5347 374.324 62.8295C376.769 60.3275 377.571 56.7369 377.514 53.3563C377.514 52.1149 376.425 50.9116 375.127 50.9689C373.828 51.0262 372.72 52.0194 372.739 53.3563C372.739 54.1012 372.682 54.8079 372.644 55.5527C372.644 55.8201 372.682 55.2471 372.682 55.2662C372.663 55.3426 372.663 55.4572 372.644 55.5336C372.625 55.6864 372.586 55.8392 372.567 55.992C372.51 56.2976 372.434 56.6223 372.338 56.9279C372.262 57.1952 372.166 57.4626 372.071 57.73C371.937 58.0929 372.013 57.7873 372.128 57.5963C372.052 57.7109 371.994 57.8828 371.937 57.9974C371.822 58.2266 371.708 58.4367 371.574 58.6659C371.517 58.7614 371.44 58.876 371.383 58.9715C371.326 59.067 371.02 59.468 371.307 59.1052C371.593 58.7423 371.307 59.1052 371.23 59.1816C371.154 59.2771 371.078 59.3534 371.001 59.4298C370.829 59.6017 370.657 59.7545 370.485 59.9264C370.142 60.232 370.753 59.7545 370.638 59.8118C370.543 59.8691 370.466 59.9455 370.371 60.0028C370.18 60.1365 369.989 60.2511 369.779 60.3466C369.683 60.4039 369.588 60.4421 369.492 60.4803C369.149 60.6522 369.588 60.423 369.741 60.3848C369.531 60.4421 369.32 60.5376 369.11 60.614C368.919 60.6713 368.709 60.7286 368.499 60.7668C368.404 60.7859 368.289 60.805 368.194 60.8241C367.85 60.9005 368.9 60.7668 368.385 60.7859C367.945 60.805 367.525 60.8241 367.086 60.7859C366.99 60.7859 366.876 60.7477 366.78 60.7477C366.952 60.7477 367.468 60.8623 367.009 60.7668C366.78 60.7286 366.57 60.6904 366.36 60.6331C366.15 60.5758 365.959 60.5185 365.749 60.4612C365.672 60.423 365.577 60.4039 365.501 60.3657C365.023 60.1938 365.921 60.5758 365.653 60.4421C365.252 60.2511 364.87 60.0601 364.507 59.8118C364.412 59.7545 364.336 59.6972 364.24 59.6399C363.858 59.3916 364.45 59.8309 364.393 59.7736C364.221 59.6208 364.049 59.4871 363.877 59.3344C363.724 59.1816 363.572 59.0288 363.438 58.876C363.361 58.7996 363.304 58.7041 363.228 58.6277C362.941 58.2839 363.572 59.1243 363.323 58.7423C363.075 58.3603 362.846 57.9783 362.636 57.5772C362.464 57.2334 362.674 57.6345 362.731 57.7873C362.712 57.6727 362.655 57.5772 362.617 57.4626C362.54 57.2334 362.464 56.9852 362.407 56.756C362.368 56.6223 362.349 56.4886 362.311 56.3549C362.235 55.9156 362.311 56.1448 362.311 56.4886C362.311 56.2021 362.254 55.9156 362.254 55.6482C362.254 55.3617 362.254 55.0561 362.273 54.7697C362.273 54.6169 362.311 54.4641 362.311 54.3113C362.292 54.5405 362.292 55.1134 362.311 54.3113C362.445 53.6428 362.636 52.9743 362.884 52.3441C362.903 52.2868 362.941 52.2104 362.96 52.1531C363.113 51.7711 362.769 52.535 362.903 52.2677C362.999 52.0958 363.056 51.9239 363.151 51.752C363.342 51.37 363.553 50.988 363.763 50.606L360.019 51.0835C364.336 54.5978 370.237 56.5077 375.795 55.6673C377.036 55.4763 377.82 53.8529 377.457 52.726C377.017 51.37 375.852 50.8543 374.515 51.0644L374.477 51.0071Z" fill="black"/>
<path d="M260.895 106.337L226.822 126.85C231.253 138.577 216.661 143.638 209.002 131.052C201.936 117.453 212.02 110.902 222.238 119.248L248.289 99.5954" stroke="#110E00" stroke-width="5.72975" stroke-linecap="round" stroke-linejoin="round"/>
<path d="M392.889 61.3398L422.072 34.3144C415.349 23.7335 428.623 15.8074 438.65 26.5793C448.334 38.459 439.796 46.9199 428.089 40.8273L406.583 65.3697" stroke="#110E00" stroke-width="5.72975" stroke-linecap="round" stroke-linejoin="round"/>
<path d="M528.97 9.69561C485.424 9.69561 450.129 44.9909 450.129 88.537C450.129 98.9651 452.173 108.916 455.859 118.026C466.096 147.974 459.812 164.017 450.129 177.195C467.834 169.957 489.053 165.277 518.695 166.672C522.056 167.111 525.475 167.359 528.951 167.359C572.497 167.359 607.793 132.064 607.793 88.5179C607.793 44.9718 572.497 9.67651 528.951 9.67651L528.97 9.69561Z" fill="#D3DE16"/>
<path d="M517.874 9.69561C474.328 9.69561 439.032 44.9909 439.032 88.537C439.032 98.9651 441.076 108.916 444.762 118.026C454.999 147.974 448.716 164.017 439.032 177.195C456.737 169.957 477.957 165.277 507.598 166.672C510.96 167.111 514.379 167.359 517.855 167.359C561.401 167.359 596.696 132.064 596.696 88.5179C596.696 44.9718 561.401 9.67651 517.855 9.67651L517.874 9.69561Z" stroke="#110E00" stroke-width="5.72975" stroke-linecap="round" stroke-linejoin="round"/>
<path d="M499.558 41.4002C504.161 41.4002 504.18 34.238 499.558 34.238C494.936 34.238 494.936 41.4002 499.558 41.4002Z" fill="black"/>
<path d="M522.954 43.9022C527.557 43.9022 527.576 36.74 522.954 36.74C518.332 36.74 518.332 43.9022 522.954 43.9022Z" fill="black"/>
<path d="M517.559 52.1968C518.084 49.1083 515.374 46.0714 511.505 45.4136C507.637 44.7558 504.075 46.7263 503.55 49.8148C503.025 52.9033 505.735 55.9402 509.604 56.598C513.472 57.2557 517.034 55.2853 517.559 52.1968Z" stroke="#110E00" stroke-width="5.72975" stroke-linecap="round" stroke-linejoin="round"/>
<path d="M471.043 72.7038L446.176 41.6676C435.136 47.6075 428.184 33.8179 439.644 24.5739C452.173 15.7501 460.003 24.8795 453.109 36.1098L476.066 59.3153" stroke="#110E00" stroke-width="5.72975" stroke-linecap="round" stroke-linejoin="round"/>
<path d="M721.91 34.9447C683.769 -11.7336 621.85 34.9447 655.674 88.3078C602.311 141.193 689.021 200.286 718.09 155.021C745.727 185.045 818.151 159.796 782.626 106.414C837.689 59.7163 772.886 -8.90695 721.891 34.9447H721.91Z" fill="#FF7B17"/>
<path d="M709.859 34.9447C671.718 -11.7336 609.798 34.9447 643.623 88.3078C590.26 141.193 676.97 200.286 706.039 155.021C733.675 185.045 806.099 159.796 770.575 106.414C825.638 59.7163 760.834 -8.90695 709.839 34.9447H709.859Z" stroke="#110E00" stroke-width="5.72975" stroke-linecap="round" stroke-linejoin="round"/>
<path d="M771.51 67.2223L812.822 56.0493C814.503 53.5091 816.145 50.8925 818.323 49.4219C819.392 48.6961 820.71 48.3905 821.932 48.7725C825.122 49.7657 824.511 53.6428 823.193 54.655C829.324 49.8612 833.506 52.5541 835.359 57.7109C836.199 60.0219 835.741 62.5048 834.194 64.3956C829.935 69.6288 823.021 69.2468 814.789 66.1336L773.802 78.0133" stroke="#110E00" stroke-width="5.72975" stroke-linecap="round" stroke-linejoin="round"/>
<path d="M667.038 118.37C662.76 125.494 657.813 131.93 652.294 137.775C648.913 141.346 643.661 142.454 639.153 140.468C634.646 138.481 629.986 136.208 624.867 133.134C620.57 141.747 607.888 142.053 612.988 127.862C599.389 131.873 600.535 122.954 612.281 119.688C614.821 118.981 617.533 119.172 620.016 120.108C625.135 122.018 630.253 124.157 635.372 126.812C639.478 128.951 644.501 127.9 647.519 124.386C650.116 121.368 652.695 117.682 655.292 113.729" stroke="#110E00" stroke-width="5.72975" stroke-linecap="round" stroke-linejoin="round"/>
<path d="M561.305 94.9543L597.078 118.446C600.096 118.007 603.132 117.51 605.692 118.16C606.952 118.484 608.041 119.248 608.576 120.433C609.951 123.488 606.627 125.589 605.023 125.284C612.682 126.697 613.446 131.586 610.81 136.419C609.645 138.577 607.468 139.876 605.023 139.99C598.281 140.277 593.984 134.852 590.852 126.621L554.754 103.835" stroke="#110E00" stroke-width="5.72975" stroke-linecap="round" stroke-linejoin="round"/>
<path d="M717.269 68.9603C721.872 68.9603 721.891 61.7981 717.269 61.7981C712.647 61.7981 712.647 68.9603 717.269 68.9603Z" fill="black"/>
<path d="M740.685 71.4623C745.287 71.4623 745.307 64.3001 740.685 64.3001C736.063 64.3001 736.063 71.4623 740.685 71.4623Z" fill="black"/>
<path d="M732.988 93.1902C734.774 82.6873 733.086 73.6397 729.217 72.982C725.349 72.3242 720.765 80.3053 718.979 90.8082C717.193 101.311 718.882 110.359 722.75 111.016C726.618 111.674 731.202 103.693 732.988 93.1902Z" stroke="#110E00" stroke-width="5.72975" stroke-linecap="round" stroke-linejoin="round"/>
</g>
<defs>
<clipPath id="clip0_117_5122">
<rect width="838.644" height="185.09" fill="white" transform="translate(0 0.910004)"/>
</clipPath>
</defs>
</svg>
